<svg width="750.443" height="115.13" xmlns="http://www.w3.org/2000/svg"><g stroke-linecap="round" fill-rule="evenodd" font-size="12" stroke="#000" stroke-width=".945" style="stroke:#000;stroke-width:.25mm" fill="none"><path d="M84.151 18.929q0 2.7-1.6 5.9a14.999 14.999 0 0 1-2.112 3.112q-1.312 1.513-3.138 2.938-2.999 2.342-7.552 4.211a51.22 51.22 0 0 1-2.048.789 44.562 44.562 0 0 1-5.288 1.524q-2.622.594-5.624 1.003a86.44 86.44 0 0 1-3.738.423q-5.666.533-10.8.533a91.414 91.414 0 0 1-5-.133q-7.3-.4-14.4-2.7a60.264 60.264 0 0 0-.731 1.015q-1.144 1.622-2.569 3.835-1.9 2.95-3.95 6.35-2.05 3.4-4 7.05a73.86 73.86 0 0 0-1.988 3.995 58.571 58.571 0 0 0-1.262 2.955 63.615 63.615 0 0 0-1.657 4.678Q4.796 72.574 5.22 76.702a13.379 13.379 0 0 0 .031.277 14.435 14.435 0 0 0 .623 2.838q.541 1.604 1.456 2.736a6.788 6.788 0 0 0 2.371 1.876q3.75 1.8 9.8-.25a31.218 31.218 0 0 0 5.056-2.268q3.797-2.098 7.894-5.482a101.89 101.89 0 0 0 6.741-6.265 113.38 113.38 0 0 0 .959-.985q3.8-3.95 7.25-8.1a126.535 126.535 0 0 0 5.617-7.263 115.046 115.046 0 0 0 .733-1.037q2.9-4.15 4.9-7.85 1.761-3.291 3.345-4.649a4.749 4.749 0 0 1 .955-.651 6.093 6.093 0 0 1 .602-.264q1.562-.58 2.448.264a2.501 2.501 0 0 1 .636 1.028q.313.921.164 2.322-.25 2.35-2.45 4.75a46.82 46.82 0 0 0-2.476 3.096 58.905 58.905 0 0 0-1.674 2.404q-2.05 3.1-3.8 6.6-1.75 3.5-3.1 7.25a48.985 48.985 0 0 0-1.96 6.987 45.258 45.258 0 0 0-.09.463q-1.094 5.747-.317 8.665a6.457 6.457 0 0 0 .167.535 6.984 6.984 0 0 0 .625 1.316q.453.728 1.043 1.161a3.261 3.261 0 0 0 1.682.623 4.685 4.685 0 0 0 .406.017q1.528 0 3.387-.955a15.562 15.562 0 0 0 1.607-.962q3.1-2.1 6.1-5.8a84.772 84.772 0 0 0 2.749-3.81 105.758 105.758 0 0 0 1.901-2.89q2.35-3.7 4.05-7.5a4.68 4.68 0 0 1 .334-.571q.435-.629.939-.781a1.129 1.129 0 0 1 .327-.048q.9 0 .1 1.8a109.689 109.689 0 0 1-.567 1.195q-.508 1.055-1.133 2.305a71.455 71.455 0 0 1-1.493 2.821 83.74 83.74 0 0 1-.757 1.329q-1.25 2.15-2.6 4.35a47.159 47.159 0 0 1-1.707 2.593 39.142 39.142 0 0 1-1.043 1.407 26.725 26.725 0 0 1-2.847 3.153 29.297 29.297 0 0 1-.103.097q-1.65 1.55-3.55 2.75t-4 1.9a13.227 13.227 0 0 1-4.134.7 12.607 12.607 0 0 1-.066 0q-2.8 0-4.5-1.5a8.586 8.586 0 0 1-2.228-3.137 10.447 10.447 0 0 1-.272-.713 16.599 16.599 0 0 1-.715-3.069 21.124 21.124 0 0 1-.185-2.181 28.007 28.007 0 0 1-.016-.966 27.637 27.637 0 0 1 .416-4.784 32.307 32.307 0 0 1 .877-3.73 27.73 27.73 0 0 1 .523-1.57q.689-1.876 1.496-3.195a10.822 10.822 0 0 1 .504-.755q-1.375 1.65-3.175 3.607a153.08 153.08 0 0 1-1.725 1.843q-2.9 3.05-6.25 6.1t-7.15 5.75a45.916 45.916 0 0 1-5.248 3.24 39.499 39.499 0 0 1-2.402 1.16 26.103 26.103 0 0 1-6.228 1.894 23.867 23.867 0 0 1-1.522.206 15.913 15.913 0 0 1-1.624.084 14.513 14.513 0 0 1-5.776-1.184 9.927 9.927 0 0 1-4.906-4.435 13.136 13.136 0 0 1-.494-.965Q0 77.834 0 72.62a31.402 31.402 0 0 1 .001-.291q.05-5.4 1.9-11.9a57.572 57.572 0 0 1 3.075-8.242 71.538 71.538 0 0 1 2.575-5.058q1.9-3.4 4.05-6.6 2.15-3.2 4.75-6.1a42.942 42.942 0 0 1-4.578-2.473 38.366 38.366 0 0 1-.972-.627 24.274 24.274 0 0 1-3.587-2.901 21.755 21.755 0 0 1-.863-.899 7.543 7.543 0 0 1-1.424-2.28 9.001 9.001 0 0 1-.226-.62 13.867 13.867 0 0 1-.584-2.626 12.456 12.456 0 0 1-.066-.724q-.075-1.249.107-2.355a8.688 8.688 0 0 1 .143-.695 5.319 5.319 0 0 1 .263-.797q.337-.791.887-1.203a3.301 3.301 0 0 1 .282-.332q.639-.651 1.253-.353a1.271 1.271 0 0 1 .215.135q.811.62.12 2.287a7.019 7.019 0 0 1-.07.163 7.819 7.819 0 0 0-.397 1.13q-.426 1.625.097 2.97a10.54 10.54 0 0 0 .804 1.613q.64 1.062 1.596 2.187a21.817 21.817 0 0 0 4.008 3.572q1.925 1.349 4.297 2.493a37.264 37.264 0 0 0 .495.235q4.7-5.2 10.2-9.95 5.5-4.75 11.65-8.35 6.15-3.6 12.9-5.7t14.05-2.1q5.719 0 9.669 1.769a14.385 14.385 0 0 1 2.981 1.781q4.55 3.55 4.55 9.15Zm-4.1-1.2a8.726 8.726 0 0 0-.451-2.88q-.806-2.319-3.052-3.73a9.297 9.297 0 0 0-.147-.09q-3.65-2.2-9.15-2.2a40.086 40.086 0 0 0-9.053.993 35.183 35.183 0 0 0-3.947 1.157q-6 2.15-11.2 5.7-5.2 3.55-9.8 8.2-4.6 4.65-8.8 9.65a48.08 48.08 0 0 0 9.885 2.086 55.488 55.488 0 0 0 2.565.214 73.667 73.667 0 0 0 2.895.114q5.735.119 13.255-.514a56.345 56.345 0 0 0 6.249-.842 43.634 43.634 0 0 0 4.951-1.258 37.257 37.257 0 0 0 4.358-1.687 27.227 27.227 0 0 0 4.142-2.363 20.478 20.478 0 0 0 3.268-2.815 16.607 16.607 0 0 0 2.132-2.835q1.9-3.2 1.9-6.9Z" vector-effect="non-scaling-stroke"><animate attributeName="stroke-dasharray" begin="0s" dur="1.5s" values="0,183;183,0" fill="freeze"/><animate attributeName="fill" from="#fff" to="#000" begin="1s" dur="1s" fill="freeze" repeatCount="1"/></path><path d="M107.851 49.129h5.4a46.811 46.811 0 0 0-.905.759q-.545.469-.995.891a10.858 10.858 0 0 0-.884.938 13.882 13.882 0 0 0-.666.862q-.75 1.05-1.55 2.6a100.672 100.672 0 0 0-.642 1.268q-.57 1.144-1.258 2.582-1.1 2.1-2.15 4.35a235.483 235.483 0 0 0-1.97 4.333 216.854 216.854 0 0 0-.03.067q-.95 2.15-1.65 4a23.804 23.804 0 0 0-.422 1.207q-.346 1.09-.478 1.943a17.822 17.822 0 0 0-.192 1.011q-.327 2.058.08 3.179a2.479 2.479 0 0 0 .162.36 4.075 4.075 0 0 0 .447.656q.611.722 1.403.794 1.8 0 3.65-1.6a18.765 18.765 0 0 0 1.924-1.94 25.332 25.332 0 0 0 1.626-2.11 48.803 48.803 0 0 0 2.267-3.605 57.685 57.685 0 0 0 .983-1.795 190.115 190.115 0 0 0 2.013-3.938 161.938 161.938 0 0 0 .837-1.712 3.828 3.828 0 0 1 .204-.387q.484-.794 1.057-.599a.877.877 0 0 1 .089.036.634.634 0 0 1 .375.497q.07.414-.219 1.112a5.834 5.834 0 0 1-.106.241q-1.2 2.6-2.8 5.75-1.6 3.15-3.6 5.95-2 2.8-4.4 4.7a9.278 9.278 0 0 1-2.236 1.331 7.484 7.484 0 0 1-2.864.569 5.764 5.764 0 0 1-1.774-.266 5.06 5.06 0 0 1-1.226-.584q-1.3-.85-1.95-2.5a8.582 8.582 0 0 1-.444-1.588q-.141-.765-.186-1.642a16.317 16.317 0 0 1-.02-.82q0-2.077.749-4.603a24.898 24.898 0 0 1 .251-.797q.7-2.2 1.7-4.7t2.15-5.05q1.15-2.55 2.3-5.05t2.05-4.6a4.528 4.528 0 0 1 .488-.78q.461-.586 1.062-.87.95-.45 2.35-.45Zm-25.4 29.9a19.125 19.125 0 0 0 2.585-2.692 23.032 23.032 0 0 0 1.065-1.458q1.65-2.45 3.1-5.25 1.45-2.8 2.7-5.7l2.35-5.45q1.1-2.55 2.1-4.5a15.172 15.172 0 0 1 .7-1.229q.678-1.065 1.4-1.721a7.686 7.686 0 0 1 .7-.624q.394-.307.788-.518a4.568 4.568 0 0 1 .112-.058 5.2 5.2 0 0 1 .92-.351q.456-.128.98-.199.946-.129 2.149-.147a26.63 26.63 0 0 1 .401-.003h3.65a.965.965 0 0 1 .075.002q.282.022.048.228a1.07 1.07 0 0 1-.023.02 2.686 2.686 0 0 1-.216.161q-.233.157-.57.331a9.442 9.442 0 0 1-.114.058q-.6.3-1.45.55-.611.18-1.094.23a3.43 3.43 0 0 1-.356.02 12.251 12.251 0 0 0-.394-.008q-1.532-.003-2.548.403a3.244 3.244 0 0 0-1.158.755q-.815.849-1.677 2.184a27.14 27.14 0 0 0-.823 1.366 43.915 43.915 0 0 0-1.182 2.317q-.541 1.136-1.108 2.456a100.552 100.552 0 0 0-1.16 2.827q-1.85 4.7-4.2 9.25a41.442 41.442 0 0 1-2.833 4.723 33.293 33.293 0 0 1-2.467 3.127q-2.95 3.3-6.85 3.3a11.899 11.899 0 0 1-3.269-.439 10.774 10.774 0 0 1-1.181-.411q-2.05-.85-3.35-3.25-1.8-3.3-1.05-5.3t2.15-2.55q1.214-.477 2.127.248a2.686 2.686 0 0 1 .273.252 1.544 1.544 0 0 1 .392.778q.222 1.104-.692 3.072a2.454 2.454 0 0 0-.266 1.111q0 .289.066.589.2.9.75 1.65.55.75 1.4 1.2.85.45 1.75.45 1.49-.088 2.634-.367a9.808 9.808 0 0 0 .316-.083 5.459 5.459 0 0 0 1.648-.789 6.888 6.888 0 0 0 .702-.561Z" vector-effect="non-scaling-stroke"><animate attributeName="stroke-dasharray" begin="0s" dur="1.5s" values="0,183;183,0" fill="#000"/><animate attributeName="fill" from="#fff" to="#000" begin="1s" dur="1s" fill="freeze" repeatCount="1"/></path><path stroke-dasharray="0,183" d="M141.051 64.829q-1.4 3-3 6.35-1.6 3.35-3.8 6.2-2.2 2.85-5.15 4.7t-7.15 1.85q-3.8 0-6.65-2.4a7.863 7.863 0 0 1-2.479-3.907q-.379-1.29-.455-2.844a15.909 15.909 0 0 1-.016-.449 20.06 20.06 0 0 1 .205-2.793 25.251 25.251 0 0 1 .345-1.907q.55-2.5 1.6-4.95t2.45-4.75q1.4-2.3 3.1-4.3 1.9-2.2 4.2-4a22.074 22.074 0 0 1 2.516-1.715 17.343 17.343 0 0 1 2.084-1.035 12.982 12.982 0 0 1 2.402-.742 10.4 10.4 0 0 1 2.048-.208q2.15 0 3.85 1.2 1.4 1.1 1.65 2.8.248 1.681-.532 3.704a11.32 11.32 0 0 1-.018.046 13.679 13.679 0 0 1-1.104 2.192 18.702 18.702 0 0 1-1.396 1.958 22 22 0 0 1-2.874 2.922 25.958 25.958 0 0 1-1.226.978q-1.2.9-2.85 1.7-1.65.8-3.45 1.4a36.426 36.426 0 0 1-2.067.624 29.192 29.192 0 0 1-1.333.326 20.644 20.644 0 0 1-.941.184q-.907.155-1.566.165a5.952 5.952 0 0 1-.093.001q-.407.951-.746 2.319a28.658 28.658 0 0 0-.304 1.381 17.647 17.647 0 0 0-.337 3.393 16.258 16.258 0 0 0 .037 1.107 8.888 8.888 0 0 0 .414 2.182 7.407 7.407 0 0 0 .786 1.668q1.024 1.608 3.426 1.649a7.413 7.413 0 0 0 .124.001q3.3 0 5.95-1.95 2.65-1.95 4.7-4.65 2.05-2.7 3.5-5.6 1.433-2.866 2.329-4.853a73.232 73.232 0 0 0 .021-.047q.3-.7.75-1.05a2.425 2.425 0 0 1 .246-.169q.287-.172.527-.181a.712.712 0 0 1 .027 0 .538.538 0 0 1 .234.049q.123.058.206.186a.763.763 0 0 1 .06.115.501.501 0 0 1 .036.132q.046.354-.286 1.018Zm-10.4-2.8q2-1.7 3.35-3.8a18.914 18.914 0 0 0 .957-1.657q.429-.844.703-1.634a10.136 10.136 0 0 0 .19-.609 9.714 9.714 0 0 0 .203-.876q.179-.997.066-1.775a3.56 3.56 0 0 0-.069-.349 1.943 1.943 0 0 0-.209-.528q-.394-.66-1.291-.622a2.847 2.847 0 0 0-.769.154q-1.038.344-2.531 1.446-2.1 1.55-5.2 5.25-2 2.4-3.65 5.2-1.65 2.8-2.35 4.2a5.393 5.393 0 0 0 .487-.025q.506-.046 1.186-.179a19.728 19.728 0 0 0 .227-.046 15.565 15.565 0 0 0 1.108-.276q.561-.161 1.176-.376a27.188 27.188 0 0 0 .416-.148 21.494 21.494 0 0 0 2.23-.97 25.071 25.071 0 0 0 .82-.43q1.55-.85 2.95-1.95Z" vector-effect="non-scaling-stroke"><animate attributeName="stroke-dasharray" begin="0s" dur="1.5s" values="0,183;183,0" fill="freeze"/><animate attributeName="fill" from="#fff" to="#000" begin="1s" dur="1s" fill="freeze" repeatCount="1"/></path><path d="M145.351 64.129q1.6-2 3.55-4.2 1.95-2.2 4.15-4.2t4.5-3.65a23.014 23.014 0 0 1 2.732-1.695 18.772 18.772 0 0 1 1.868-.855 26.557 26.557 0 0 1 1.902-.608q2.436-.673 4.092-.515a5.913 5.913 0 0 1 .206.023 6.562 6.562 0 0 1 1.175.255q.632.205 1.094.535a2.841 2.841 0 0 1 .831.91 5.231 5.231 0 0 1 .23.982q.037.29.037.573a4.153 4.153 0 0 1-.067.745 4.344 4.344 0 0 1-.425 1.258 3.904 3.904 0 0 1-.425.642q-.65.8-1.65 1.15-.913.319-1.91.097a4.201 4.201 0 0 1-.19-.047 1.964 1.964 0 0 0-.61-1.233 3.082 3.082 0 0 0-.54-.417 3.473 3.473 0 0 0-.977-.405q-.804-.205-1.873-.145a9.4 9.4 0 0 0-1.441.201q-.719.154-1.517.419a20.544 20.544 0 0 0-1.292.48q-2.45 1-5.15 3.1-2.3 6.7-1.95 11.95.24 3.596 1.301 6.09a10.517 10.517 0 0 0 1.149 2.06 8.19 8.19 0 0 0 1.72 1.781 6.346 6.346 0 0 0 3.58 1.269q2.417.113 4.948-1.913a16.297 16.297 0 0 0 1.652-1.537 19.09 19.09 0 0 0 1.416-1.691q.696-.928 1.411-2.065a44.388 44.388 0 0 0 1.123-1.894q2.05-3.65 4.15-8.05.542-1.083 1.083-.823a.707.707 0 0 1 .117.073q.6.45.1 1.65-3 6.8-5.65 10.75a39.18 39.18 0 0 1-1.798 2.479q-.9 1.137-1.775 2.032a16.732 16.732 0 0 1-1.527 1.389 14.8 14.8 0 0 1-1.772 1.223q-1.504.874-2.928 1.127a16.985 16.985 0 0 1-2.977.266 16.253 16.253 0 0 1-1.473-.066q-1.4-.1-2.85-.65a8.533 8.533 0 0 1-2.048-1.132 10.308 10.308 0 0 1-.702-.568 11.696 11.696 0 0 1-1.563-1.699 14.566 14.566 0 0 1-.787-1.151 9.2 9.2 0 0 1-.841-1.792q-.396-1.127-.609-2.508a46.766 46.766 0 0 1-.268-1.974q-.186-1.654-.186-2.935a16.43 16.43 0 0 1 .004-.391q.05-2.1.35-3.5-1.3 1.7-2.65 3.6-1.35 1.9-2.35 3.9-.6 1.2-1.45 3.2a504.987 504.987 0 0 1-.472 1.106q-.534 1.25-1.269 2.953a2014.938 2014.938 0 0 1-.709 1.641 4.092 4.092 0 0 1-.353.547q-.212.274-.445.453a1.628 1.628 0 0 1-.602.3q-.665.166-1.883.194a22.494 22.494 0 0 1-.517.006 29.816 29.816 0 0 1-.768.06q-.305.02-.575.03a13.905 13.905 0 0 1-.507.01 2.518 2.518 0 0 0-.858.157q-.317.115-.642.312a4.412 4.412 0 0 0-.05.031q3.6-7.2 6.85-14.2 3.25-7 6.95-13.8a46.019 46.019 0 0 1 .919-1.663q1.331-2.287 2.381-3.337a4.373 4.373 0 0 1 2.389-1.215q.517-.092 1.096-.092a7.58 7.58 0 0 1 .315.007 15.299 15.299 0 0 1 1.772.286 17.082 17.082 0 0 1 .278.064 5.086 5.086 0 0 0 1.182.139 5.402 5.402 0 0 0 .968-.089 4.286 4.286 0 0 0-.587.4q-.672.537-1.463 1.5a33.808 33.808 0 0 0-1.035 1.33q-.512.692-1.052 1.482a58.016 58.016 0 0 0-.363.538 81.616 81.616 0 0 0-1.644 2.574 98.965 98.965 0 0 0-1.006 1.676q-1.35 2.3-2.55 4.7Z" vector-effect="non-scaling-stroke"><animate attributeName="stroke-dasharray" begin="0s" dur="1.5s" values="0,183;183,0" fill="freeze"/><animate attributeName="fill" from="#fff" to="#000" begin="1s" dur="1s" fill="freeze" repeatCount="1"/></path><path d="M199.676 70.355a157.633 157.633 0 0 0 2.475-5.126q.419-.897.337-1.365a.546.546 0 0 0-.337-.435.732.732 0 0 0-.015-.007q-.575-.231-1.15.686a5.007 5.007 0 0 0-.235.421q-1.5 3-3.2 6.1-1.7 3.1-3.8 5.65a23.009 23.009 0 0 1-.735.85 19.903 19.903 0 0 1-3.915 3.35 10.006 10.006 0 0 1-2.285 1.098 11.222 11.222 0 0 1-3.565.552 7.298 7.298 0 0 1-1.267-.105 4.487 4.487 0 0 1-3.283-2.245 9.823 9.823 0 0 1-.923-2.181 11.394 11.394 0 0 1-.427-3.169 16.4 16.4 0 0 1 .029-.968 18.242 18.242 0 0 1 .571-3.532 36.534 36.534 0 0 1 .154-.571 32.842 32.842 0 0 1 1.296-3.779 40.455 40.455 0 0 1 .652-1.489 33.257 33.257 0 0 1 1.148-2.261 60.844 60.844 0 0 1 .021-.037q.641-1.145 1.167-1.97a19.706 19.706 0 0 1 .462-.693 31.262 31.262 0 0 1 .793-1.132 37.172 37.172 0 0 1 1.507-1.918q1.3-1.55 2.75-2.75a23.317 23.317 0 0 1 1.17-.909 18.469 18.469 0 0 1 1.68-1.091q1.4-.8 2.8-.8t2.05 1.15a1.952 1.952 0 0 1 .09.179q.419.961.052 2.766a13.313 13.313 0 0 1-.192.805 8.235 8.235 0 0 1-.415 1.129 9.915 9.915 0 0 1-.935 1.621q-.95 1.35-1.75 2.35.669.669 1.548.603a2.387 2.387 0 0 0 .352-.053q1.1-.25 2.1-1.15a8.103 8.103 0 0 0 .687-.699 9.496 9.496 0 0 0 1.063-1.501q.75-1.3.95-2.5a9.559 9.559 0 0 0 .033-.286q.08-.812.007-1.539a5.341 5.341 0 0 0-1.39-3.175 5.114 5.114 0 0 0-1.614-1.164q-1.571-.736-3.936-.736a12.796 12.796 0 0 0-3.38.458 15.353 15.353 0 0 0-3.72 1.592 18.913 18.913 0 0 0-3.177 2.351 23.827 23.827 0 0 0-3.123 3.499 34.056 34.056 0 0 0-1.208 1.721 40.638 40.638 0 0 0-2.142 3.679q-1.55 3-2.5 6.1-.95 3.1-1.1 6a14.432 14.432 0 0 0-.019.745q0 .765.085 1.482a10.068 10.068 0 0 0 .784 2.923 7.65 7.65 0 0 0 1.186 1.879 8.729 8.729 0 0 0 2.114 1.771 8.067 8.067 0 0 0 1.474.696q1.032.37 2.287.546a17.649 17.649 0 0 0 2.439.158 22.881 22.881 0 0 0 .254-.002q1.779-.019 3.337-.317a13.572 13.572 0 0 0 3.459-1.131q2.95-1.45 5.2-4a27.286 27.286 0 0 0 1.625-2.032 32.772 32.772 0 0 0 2.425-3.918 133.472 133.472 0 0 0 1.125-2.174Z" vector-effect="non-scaling-stroke"><animate attributeName="stroke-dasharray" begin="0s" dur="1.5s" values="0,183;183,0" fill="freeze"/><animate attributeName="fill" from="#fff" to="#000" begin="1s" dur="1s" fill="freeze" repeatCount="1"/></path><path d="M235.549 66.966a105.522 105.522 0 0 0 .902-1.837q.419-.897.337-1.365a.546.546 0 0 0-.337-.435q-.58-.249-1.16.601a4.46 4.46 0 0 0-.24.399q-.8 1.6-2.3 4.45-1.5 2.85-3.35 5.65-1.85 2.8-3.75 4.8-1.809 1.904-3.347 1.904a2.453 2.453 0 0 1-.153-.004q-2.006 0-1.185-4.988a30.017 30.017 0 0 1 .185-1.012 21.294 21.294 0 0 1 .16-.678q.514-2.041 1.54-4.522 1.2-2.9 2.65-5.65 1.45-2.75 2.8-4.9a41.138 41.138 0 0 1 .631-.977q.916-1.37 1.519-1.973a5.402 5.402 0 0 1-.968.089 5.086 5.086 0 0 1-1.182-.139 17.082 17.082 0 0 0-.278-.064 15.299 15.299 0 0 0-1.772-.286q-.47-.04-.901-.006a3.877 3.877 0 0 0-2.849 1.506 14.947 14.947 0 0 0-.124.158q-.876 1.135-1.897 2.888a54.499 54.499 0 0 0-1.029 1.854q-2 3.7-4.15 7.25-2.15 3.55-4.75 6.75-.956 1.115-1.912 1.963a13.575 13.575 0 0 1-1.688 1.287q-1.125.718-2.074.988a3.944 3.944 0 0 1-1.076.162 2.996 2.996 0 0 1-.057-.001q-.828-.016-1.426-.492a2.765 2.765 0 0 1-.617-.707 2.649 2.649 0 0 1-.233-.479q-.362-.97-.212-2.562a13.057 13.057 0 0 1 .095-.759q.2-1.4.75-2.95.55-1.55 1.2-3 .346-.771.677-1.442a30.398 30.398 0 0 1 .573-1.108q.6-1.1.9-1.6 2.7-4.5 6.3-8.45a42.634 42.634 0 0 1 1.277-1.343q2.929-2.946 5.723-4.507a11.823 11.823 0 0 1 .115-.061q2.736-1.427 5.135-.839a4.08 4.08 0 0 1 2.599 1.881 6.033 6.033 0 0 1 .651 1.519q.896.138 1.388-.295a1.455 1.455 0 0 0 .362-.505q.361-.801-.272-1.665a3.766 3.766 0 0 0-.378-.435q-2.1-2.3-5.15-2.9a13.702 13.702 0 0 0-2.651-.257q-.238 0-.477.008a15.424 15.424 0 0 0-3.172.449 21.091 21.091 0 0 0-2.021.607 24.109 24.109 0 0 0-4.379 2.093 22.902 22.902 0 0 0-.196.119 20.391 20.391 0 0 0-5.154 4.481q-3.8 4.5-5.75 8.85a42.172 42.172 0 0 0-.374.859q-.779 1.848-1.288 3.565a24.117 24.117 0 0 0-.788 3.576q-.312 2.281-.136 4.191a12.25 12.25 0 0 0 .386 2.159 11.213 11.213 0 0 0 .191.618q.306.896.731 1.61a5.751 5.751 0 0 0 1.528 1.722q1.7 1.25 4.15.75 1.723-.352 3.668-1.84a19.504 19.504 0 0 0 1.682-1.46 30.977 30.977 0 0 0 .681-.67 34.177 34.177 0 0 0 3.419-4.08 100.906 100.906 0 0 0 .853-1.207q1.329-1.912 2.247-3.443a33.787 33.787 0 0 0-.459 1.809q-.604 2.708-.491 4.641a13.608 13.608 0 0 0 .131 1.266q.118.765.321 1.404a5.915 5.915 0 0 0 .598 1.33 5.889 5.889 0 0 0 .434.611 4.509 4.509 0 0 0 1.866 1.389q1.4.55 2.6.45 2.2-.2 4.45-2.25a25.388 25.388 0 0 0 1.921-1.957 31.62 31.62 0 0 0 2.329-2.993q2-2.9 3.65-6a197.153 197.153 0 0 0 .978-1.86q.462-.89.87-1.703Z" vector-effect="non-scaling-stroke"><animate attributeName="stroke-dasharray" begin="0s" dur="1.5s" values="0,183;183,0" fill="freeze"/><animate attributeName="fill" from="#fff" to="#000" begin="1s" dur="1s" fill="freeze" repeatCount="1"/></path><path d="M256.151 69.129q-.7 1.4-1.45 3.45a21.925 21.925 0 0 0-.818 2.771 18.889 18.889 0 0 0-.232 1.229 10.514 10.514 0 0 0-.1.895q-.06.893.061 1.653a5.369 5.369 0 0 0 .189.802 1.881 1.881 0 0 0 .661.963q.347.259.842.365a3.598 3.598 0 0 0 .747.072 3.974 3.974 0 0 0 1.692-.402q.613-.287 1.241-.778a10.295 10.295 0 0 0 1.017-.92 28.965 28.965 0 0 0 2.583-3.058 35.106 35.106 0 0 0 1.267-1.842q1.8-2.8 3.25-5.65 1.45-2.85 2.25-4.45a3.828 3.828 0 0 1 .204-.387q.484-.794 1.057-.599a.877.877 0 0 1 .089.036.634.634 0 0 1 .375.497q.07.414-.219 1.112a5.834 5.834 0 0 1-.106.241q-.756 1.581-1.772 3.588a294.862 294.862 0 0 1-.978 1.912q-1.65 3.2-3.75 6.15a28.363 28.363 0 0 1-3.039 3.617 24.399 24.399 0 0 1-1.561 1.433q-2.5 2.1-5.4 2.1a4.592 4.592 0 0 1-1.953-.446 5.612 5.612 0 0 1-.397-.204 5.61 5.61 0 0 1-1.079-.806q-.555-.522-1.071-1.244a6.642 6.642 0 0 1-.47-.94q-.486-1.173-.83-2.96a9.699 9.699 0 0 1-.177-1.652q-.031-1.693.577-3.248 1.032-2.149 1.841-3.891a233.852 233.852 0 0 0 .259-.559 134.893 134.893 0 0 1 1.575-3.298 122.272 122.272 0 0 1 .225-.452 197.427 197.427 0 0 1 1.652-3.227 217.387 217.387 0 0 1 .248-.473 339.918 339.918 0 0 1 1.004-1.891q.606-1.134 1.296-2.409 1.9-3.6 3.3-5a4.373 4.373 0 0 1 2.389-1.215q.517-.092 1.096-.092a7.58 7.58 0 0 1 .315.007 15.299 15.299 0 0 1 1.772.286 17.082 17.082 0 0 1 .278.064 5.086 5.086 0 0 0 1.182.139 5.402 5.402 0 0 0 .968-.089 4.409 4.409 0 0 0-.654.448q-.882.714-1.996 2.152-1.55 2-3.2 4.7-1.65 2.7-3.3 5.75t-2.95 5.75Zm-18.7 2.1a39.272 39.272 0 0 0 .087-.175q.377-.762.913-1.925 1.3-2.7 2.95-5.75 1.65-3.05 3.3-5.75t3.2-4.7q1.114-1.438 1.996-2.152a4.409 4.409 0 0 1 .654-.448 5.402 5.402 0 0 1-.968.089 5.086 5.086 0 0 1-1.182-.139 17.082 17.082 0 0 0-.278-.064 15.299 15.299 0 0 0-1.772-.286 7.58 7.58 0 0 0-.315-.007q-.579 0-1.096.092a4.373 4.373 0 0 0-2.389 1.215q-1.05 1.05-2.381 3.337a46.019 46.019 0 0 0-.919 1.663q-3.7 6.8-6.95 13.8-3.25 7-6.85 14.2a4.412 4.412 0 0 1 .05-.031q.325-.197.642-.312a2.518 2.518 0 0 1 .858-.157 13.905 13.905 0 0 0 .507-.01q.27-.01.575-.03a29.816 29.816 0 0 0 .768-.06 22.494 22.494 0 0 0 .517-.006q1.218-.028 1.883-.194a1.628 1.628 0 0 0 .602-.3q.233-.179.445-.453a4.092 4.092 0 0 0 .353-.547 854.09 854.09 0 0 1 .712-1.641q.74-1.703 1.295-2.953a218.331 218.331 0 0 1 .493-1.106 227.563 227.563 0 0 0 .4-.894q.618-1.388 1-2.306.313-.75.586-1.344a22.786 22.786 0 0 1 .314-.656Zm15.971-5.634a8.092 8.092 0 0 0 1.029-1.966q.2-.2-.4-.2a2.967 2.967 0 0 0-.211.007q-.262.019-.425.087a.51.51 0 0 0-.164.106 6.23 6.23 0 0 1-.271.444 5.176 5.176 0 0 1-.929 1.056 1.798 1.798 0 0 1-.701.37q-.519.143-1.199.03a9.1 9.1 0 0 1-.952-.164 10.123 10.123 0 0 1-2.398-.886q-1.65-.85-3.55-.95-2-.2-3.45 1.3a16.009 16.009 0 0 0-1.216 1.406 11.732 11.732 0 0 0-1.034 1.594.39.39 0 0 0-.015.025q-.135.24.359.27a2.558 2.558 0 0 0 .156.005 4.168 4.168 0 0 0 .163-.003q.378-.015.538-.103a.229.229 0 0 0 .099-.094 3.37 3.37 0 0 1 .357-.565 3.753 3.753 0 0 1 .843-.785q.8-.55 1.8-.45 1.7.1 3.45 1.05a9.755 9.755 0 0 0 .713.351 8.093 8.093 0 0 0 2.837.699 4.527 4.527 0 0 0 .451.023q1.008 0 1.882-.472a4.808 4.808 0 0 0 1.167-.901 10.762 10.762 0 0 0 1.071-1.284Z" vector-effect="non-scaling-stroke"><animate attributeName="stroke-dasharray" begin="0s" dur="1.5s" values="0,183;183,0" fill="freeze"/><animate attributeName="fill" from="#fff" to="#000" begin="1s" dur="1s" fill="freeze" repeatCount="1"/></path><path d="M309.651 65.129q-1.9 3.9-3.5 7a44.438 44.438 0 0 1-1.742 3.082 34.179 34.179 0 0 1-1.608 2.368 27.488 27.488 0 0 1-2.524 2.947 23.823 23.823 0 0 1-1.226 1.153 18.44 18.44 0 0 1-2.812 2.011 23.248 23.248 0 0 1-1.988 1.039q-1.673 4.626-4.752 9.883a83.357 83.357 0 0 1-.098.167q-3.15 5.35-7.4 9.85t-9.35 7.5a21.849 21.849 0 0 1-6.079 2.485 19.224 19.224 0 0 1-4.421.515 16.757 16.757 0 0 1-3.489-.33q-5.911-1.264-5.911-7.37 0-3.7 2.55-6.55a24.591 24.591 0 0 1 4.837-4.136 28.512 28.512 0 0 1 1.313-.814 66.107 66.107 0 0 1 4.547-2.477 54.992 54.992 0 0 1 2.653-1.223 122.499 122.499 0 0 1 6.011-2.396 110.633 110.633 0 0 1 .839-.304q3.35-1.2 6.5-2.2 3.15-1 6.05-2.2.9-2.6 1.45-5.35a58.618 58.618 0 0 0 .761-4.911 65.406 65.406 0 0 0 .089-.839 62.783 62.783 0 0 0 .205-2.413q.095-1.472.095-2.737 0-2.011-.159-2.863a3.208 3.208 0 0 0-.041-.187q-.815 1.563-2.024 3.611a147.194 147.194 0 0 1-1.226 2.039q-2.05 3.35-4.6 6.25a24.595 24.595 0 0 1-2.979 2.883 19.978 19.978 0 0 1-2.471 1.717 8.356 8.356 0 0 1-1.966.85q-1.929.542-3.901-.041a7.955 7.955 0 0 1-.033-.009 10.332 10.332 0 0 1-2.187-1.228 6.834 6.834 0 0 1-2.563-3.622q-.803-2.75-.283-6.001a18.731 18.731 0 0 1 .233-1.199 28.757 28.757 0 0 1 1.653-4.996 35.905 35.905 0 0 1 1.497-3.054 45.444 45.444 0 0 1 3.978-6.081 40.703 40.703 0 0 1 1.072-1.319q2.2-2.7 5.05-4.55a19.431 19.431 0 0 1 4.988-2.339 18.082 18.082 0 0 1 .962-.261 15.232 15.232 0 0 1 3.594-.433 15.418 15.418 0 0 1 2.656.233 12.76 12.76 0 0 1 4.709 1.866 15.692 15.692 0 0 1 1.241.884q1.3 1.1 1.45 2.1.15 1-.3 1.55a1.343 1.343 0 0 1-.339.301q-.341.208-.784.152a1.622 1.622 0 0 1-.027-.003q-.682-.098-1.08-1.146a4.277 4.277 0 0 1-.02-.054q-.601-1.624-1.473-2.524a3.674 3.674 0 0 0-1.277-.876q-1.375-.55-3.028-.205a7.806 7.806 0 0 0-.922.255q-2.2.75-4.65 2.65t-4.75 4.4q-2.7 3.1-5 6.7t-3.55 6.85a21.652 21.652 0 0 0-.729 2.228q-.473 1.787-.473 3.282a9.294 9.294 0 0 0 .002.19 4.682 4.682 0 0 0 .202 1.318 3.223 3.223 0 0 0 1.848 2.032 3.779 3.779 0 0 0 1.445.284q1.286 0 2.734-.837a9.918 9.918 0 0 0 .771-.497 22.428 22.428 0 0 0 2.866-2.439 30.548 30.548 0 0 0 2.434-2.761q2.55-3.25 4.55-6.85a50.269 50.269 0 0 0 1.123-2.133q1.096-2.217 1.577-3.867a8.905 8.905 0 0 1 .305-.877q.383-.929.894-1.43a2.476 2.476 0 0 1 .101-.093q.8-.7 1.7-.9a8.274 8.274 0 0 1 1.376-.191 7.374 7.374 0 0 1 .374-.009 2.403 2.403 0 0 0 .782-.123 2.093 2.093 0 0 0 .668-.377 54.476 54.476 0 0 1 .741 8.971 55.936 55.936 0 0 1-.091 3.179q-.35 6.15-1.95 12.15 1.8-1.3 3.65-2.9 1.85-1.6 3.35-3.6 2.237-2.952 3.473-5.624a21.068 21.068 0 0 0 .277-.626q1.25-2.95 2.05-4.35a4.207 4.207 0 0 1 .249-.409q.571-.82 1.174-.602a.871.871 0 0 1 .027.011q.75.3.05 1.8Zm-22.6 22.9q-.8.3-1.7.6l-1.8.6q-5.5 1.9-11.35 4.15-5.85 2.25-10.65 5.45-2.4 1.6-4.15 4.05a17.72 17.72 0 0 0-1.223 1.957q-.563 1.055-.887 2.07a10.066 10.066 0 0 0-.19.673q-.189.773-.189 1.476a4.42 4.42 0 0 0 .689 2.424 3.136 3.136 0 0 0 1.467 1.198q1.061.452 2.683.452a10.73 10.73 0 0 0 1.866-.172 14.285 14.285 0 0 0 1.584-.378q1.85-.55 3.55-1.35a36.662 36.662 0 0 0 2.727-1.421 32.971 32.971 0 0 0 .473-.279q1.5-.9 2.4-1.6a40.493 40.493 0 0 0 2.871-2.625 50.037 50.037 0 0 0 1.729-1.825q2.3-2.55 4.4-5.35 3.7-5.2 5.7-10.1Z" vector-effect="non-scaling-stroke"><animate attributeName="stroke-dasharray" begin="0s" dur="1.5s" values="0,183;183,0" fill="freeze"/><animate attributeName="fill" from="#fff" to="#000" begin="1s" dur="1s" fill="freeze" repeatCount="1"/></path><path d="m308.351 82.129-9.4 23.3q-1.5 3.2-2.85 4.3a3.901 3.901 0 0 1-1.446.726q-1.027.284-2.404.174a11.426 11.426 0 0 1-1.658-.295 13.01 13.01 0 0 1-.392-.105q-1.05-.3-2.15-.1a3.827 3.827 0 0 0 .302-.354q.657-.847 1.998-3.096a116.374 116.374 0 0 0 1.346-2.321q.59-1.043 1.228-2.212a229.118 229.118 0 0 0 1.326-2.467q2.2-4.15 4.7-9.05a252.642 252.642 0 0 0 4.107-8.422 229.977 229.977 0 0 0 .543-1.178q2.15-4.7 3.7-8.65 1.55-3.95 2.05-6.25a5.619 5.619 0 0 1-.519.719q-.593.69-1.281.931-1 .35-.5-.75.307-.613.73-1.577a76.061 76.061 0 0 0 .27-.623q.57-1.331.96-2.209a99.174 99.174 0 0 1 .04-.091q.7-1.6 1.25-3.7a24.709 24.709 0 0 0 .532-2.547 20.335 20.335 0 0 0 .168-1.453q.15-1.9-.15-3.25a3.52 3.52 0 0 0-.18-.587q-.338-.812-1.02-.963 1.1-.2 2.1-.4.8-.2 1.65-.25a13.933 13.933 0 0 0 .369-.026q.552-.048.781-.124.984-.09 1.648-.139a50.337 50.337 0 0 1 .152-.011 2.773 2.773 0 0 1 .159-.007q.485-.007.811.172a1.112 1.112 0 0 1 .13.085q.4.3.55 1.25a9.401 9.401 0 0 1 .076.639q.074.845.074 2.111a12.457 12.457 0 0 1-.074 1.309q-.108 1.024-.376 2.241-.45 2.05-1.05 4.25-.6 2.2-1.3 4.3a132.768 132.768 0 0 1-.593 1.742q-.369 1.058-.707 1.958a65.14 65.14 0 0 1 1.238-1.517q.562-.67 1.203-1.403a128.826 128.826 0 0 1 1.359-1.53 57.251 57.251 0 0 1 2.875-2.973 47.862 47.862 0 0 1 1.725-1.577q1.378-1.225 3.255-2.597a67.613 67.613 0 0 1 1.195-.853q2.65-1.85 5.35-3.3 2.7-1.45 5.05-2.25 2.002-.682 3.241-.493a2.85 2.85 0 0 1 .409.093 353.674 353.674 0 0 0-3.554 6.554 296.942 296.942 0 0 0-1.946 3.746q-1.1 2.1-2.15 4.3-1.05 2.2-1.95 4.25-.9 2.05-1.55 3.85a23.956 23.956 0 0 0-.422 1.273q-.179.601-.297 1.132a11.016 11.016 0 0 0-.131.695 21.763 21.763 0 0 0-.155.894q-.281 1.87-.017 2.762a1.572 1.572 0 0 0 .172.394 2.351 2.351 0 0 0 .437.521 1.711 1.711 0 0 0 1.163.429 4.002 4.002 0 0 0 1.639-.374q.61-.272 1.238-.742a10.486 10.486 0 0 0 1.123-.984q2.1-2.1 4-4.95t3.4-5.75a729.905 729.905 0 0 0 .707-1.369q.993-1.931 1.593-3.131a3.828 3.828 0 0 1 .204-.387q.484-.794 1.057-.599a.877.877 0 0 1 .089.036.634.634 0 0 1 .375.497q.07.414-.219 1.112a5.834 5.834 0 0 1-.106.241q-.756 1.581-1.772 3.588a294.862 294.862 0 0 1-.978 1.912q-1.65 3.2-3.75 6.15a28.363 28.363 0 0 1-3.039 3.617 24.399 24.399 0 0 1-1.561 1.433q-2.5 2.1-5.4 2.1-1.3 0-2.7-.5-1.4-.5-2.35-1.85a5.68 5.68 0 0 1-.721-1.45q-.221-.65-.341-1.423a11.258 11.258 0 0 1-.088-.727q-.2-2.25.9-5.75.467-1.555 1.417-3.442a35.043 35.043 0 0 1 .583-1.108A101.214 101.214 0 0 1 327 65.647q.519-.897 1.107-1.876a188.138 188.138 0 0 1 1.244-2.042 10.364 10.364 0 0 0 .485-.899q.216-.458.344-.871a4.073 4.073 0 0 0 .171-.83q.1-1.1-.75-1.3-.71-.167-2.082.503a12.121 12.121 0 0 0-.568.297 12.618 12.618 0 0 0-1.099.697q-1.516 1.062-3.601 3.003-1.117 1.031-2.493 2.358a231.261 231.261 0 0 0-.457.442 31.862 31.862 0 0 0-1.482 1.543q-.977 1.085-2.018 2.407-1.821 2.313-3.69 5.45a70.579 70.579 0 0 0-.06.1 50.927 50.927 0 0 0-1.846 3.416q-.881 1.781-1.739 3.812a83.221 83.221 0 0 0-.115.272Z" vector-effect="non-scaling-stroke"><animate attributeName="stroke-dasharray" begin="0s" dur="1.5s" values="0,183;183,0" fill="freeze"/><animate attributeName="fill" from="#fff" to="#000" begin="1s" dur="1s" fill="freeze" repeatCount="1"/></path><path d="M464.36 15.527a33.82 33.82 0 0 0-3.709-2.498q-5.2-3.1-11.6-4.8 1.3-1.3 2.5-2.25a44.332 44.332 0 0 1 .053-.042q.793-.626 1.408-1.052a13.794 13.794 0 0 1 .539-.356q1.8-1.1 1.6-1.8-.2-.7-2.6.3a25.289 25.289 0 0 0-1.907.748 19.369 19.369 0 0 0-2.143 1.102q-1.75 1.05-3.45 2.35-8.9-1.8-18.25-1.55t-17.75 1.45q-3.6.5-7.9 1.5a78.592 78.592 0 0 0-1.077.258 86.532 86.532 0 0 0-7.673 2.292q-4.45 1.55-8.65 3.7a41.819 41.819 0 0 0-.586.306 37.502 37.502 0 0 0-6.964 4.744 28.847 28.847 0 0 0-.414.365 25.562 25.562 0 0 0-5.036 6.135 16.434 16.434 0 0 0-1.219 2.581 18.122 18.122 0 0 0-1.081 5.519q-.095 1.815.129 3.413a12.925 12.925 0 0 0 .871 3.237 16.22 16.22 0 0 0 .438.953 13.701 13.701 0 0 0 2.812 3.847q2.05 1.95 4.8 2.95 2.75 1 5.75 1.1.545.019 1.092.002a18.132 18.132 0 0 0 4.758-.802q2.95-.9 5.35-2.7 2.4-1.8 3.9-4.45a11.161 11.161 0 0 0 1.052-2.556 13.159 13.159 0 0 0 .448-3.494 3.638 3.638 0 0 0-.003-.152q-.039-.952-.597-.998a.619.619 0 0 0-.051-.002q-.449 0-.66.681a3.169 3.169 0 0 0-.089.371q-.9 2.5-2.45 4.75-1.55 2.25-3.55 3.9-2 1.65-4.3 2.6-2.3.95-4.7.85-2.3-.1-4.25-1.1-1.95-1-3.3-2.7-1.35-1.7-2-4a10.841 10.841 0 0 1-.402-2.963l.001-.118a12.799 12.799 0 0 1 .151-1.819q.9-5.6 4.85-9.85 3.95-4.25 9.25-7.3t11.15-4.95q5.85-1.9 10.55-2.8a57.128 57.128 0 0 1 .416-.079q1.467-.273 3.118-.502a95.336 95.336 0 0 1 3.516-.419q3.95-.4 8.25-.55a106.774 106.774 0 0 1 3.723-.065 114.36 114.36 0 0 1 5.077.115q4.5.2 8.8.8-1.4 1.3-2.65 2.7a161.049 161.049 0 0 1-.634.706 184.289 184.289 0 0 1-2.016 2.194q-6.4 7.2-11.25 15.4t-9.1 16.2q-4.25 8-8.35 15.1a64.315 64.315 0 0 1-3.74 5.772 49.008 49.008 0 0 1-5.26 6.128q-5.1 4.9-10.7 7.8-5.6 2.9-12.3 2.6a15.549 15.549 0 0 1-1.389-.14q-1.101-.163-2.017-.482a7.228 7.228 0 0 1-2.044-1.078 8.824 8.824 0 0 1-.738-.634 6.91 6.91 0 0 1-1.862-2.966q-.65-2.1 0-4.3.65-2.2 2.5-3.7a7.378 7.378 0 0 1 .21-.164q1.028-.774 2.375-1.23a11.892 11.892 0 0 1 2.215-.506q2.041-.277 4.583.355a21.618 21.618 0 0 1 2.367.745 5.247 5.247 0 0 0 .178.065q.64.22 1.01.142a.565.565 0 0 0 .412-.307.513.513 0 0 0 .01-.021q.263-.59-1.31-1.179a38.239 38.239 0 0 0-1.356-.425q-3.799-1.111-6.913-1.111a15.961 15.961 0 0 0-1.681.086 22.956 22.956 0 0 0-.939.118q-1.641.243-3.031.705a12.369 12.369 0 0 0-2.98 1.427 11.355 11.355 0 0 0-.878.647 8.908 8.908 0 0 0-2.822 3.903 9.743 9.743 0 0 0-.156.466q-.384 1.249-.384 2.477a7.999 7.999 0 0 0 .39 2.457 7.4 7.4 0 0 0 .279.731q.977 2.213 3.471 4.019a11.511 11.511 0 0 0 1.775 1.048q1.331.639 2.979 1.062a24.645 24.645 0 0 0 3.246.59 35.8 35.8 0 0 0 4.39.274 33.06 33.06 0 0 0 11.16-1.924q7.45-2.65 13.85-8.65 4.3-4.2 8-8.75t7-9.45a33.521 33.521 0 0 0 1.039.061q2.662.117 6.143-.118a94.993 94.993 0 0 0 2.918-.243q6.1-.6 12.3-2.1a41.528 41.528 0 0 0 4.345-1.328 51.691 51.691 0 0 0 5.755-2.522q5.2-2.65 9.5-6.15a42.069 42.069 0 0 0 1.054-.887 37.244 37.244 0 0 0 6.196-6.863 23.655 23.655 0 0 0 1.751-2.94 18.318 18.318 0 0 0 1.799-5.71 13.217 13.217 0 0 0 .122-1.788q0-3.497-1.872-6.962-1.579-2.923-4.941-5.552Zm-6.009-.398q-2.3-1.5-5.15-2.6a50.337 50.337 0 0 0-4.862-1.59 56.587 56.587 0 0 0-1.188-.31q-3.8 5.4-7.2 11.15-3.4 5.75-6.7 11.6-3.3 5.85-6.65 11.7-3.35 5.85-6.95 11.45a31.121 31.121 0 0 0 1.636.042q3.133 0 6.764-.592a77.933 77.933 0 0 0 8.203-1.81 86.806 86.806 0 0 0 1.197-.34q5.4-1.6 10.15-4.4a48.533 48.533 0 0 0 6.26-4.361 42.398 42.398 0 0 0 2.14-1.889q3.65-3.45 5.95-7.25 2.3-3.8 2.8-7.55t-1-7.2q-1.48-3.405-5.297-5.982a21.401 21.401 0 0 0-.103-.068Z" vector-effect="non-scaling-stroke"><animate attributeName="stroke-dasharray" begin="0s" dur="1.5s" values="0,183;183,0" fill="freeze"/><animate attributeName="fill" from="#fff" to="#000" begin="1s" dur="1s" fill="freeze" repeatCount="1"/></path><path d="M469.551 49.129h6.1q-.7.6-1.75 1.3-.806.537-1.524 1.606a10.287 10.287 0 0 0-.426.694q-2.6 4.4-4.75 8.8t-4.25 8.9q-1.756 3.805-1.989 6.373a9.275 9.275 0 0 0-.011.127 11.996 11.996 0 0 0-.029.52q-.046 1.382.277 2.267a2.595 2.595 0 0 0 .502.863 1.832 1.832 0 0 0 1.377.612q.647.014 1.473-.312 1.71-.675 3.825-3.011a26.373 26.373 0 0 0 .475-.539q2.068-2.363 4.232-5.597a75.178 75.178 0 0 0 .068-.103q2.2-3.3 4.25-6.85t3.9-7.05q1.85-3.5 3.25-6.5a4.528 4.528 0 0 1 .488-.78q.461-.586 1.062-.87.95-.45 2.35-.45h5.4q-1.4 1-2.45 2.25a17.576 17.576 0 0 0-1.373 1.884 21.025 21.025 0 0 0-.577.966q-.9 1.6-1.7 3.65-.8 2.05-1.7 4.55-1.9 5.1-3.85 11-1.95 5.9-4.15 11.9 1.6-.5 3.55-1.3a24.708 24.708 0 0 0 3.494-1.779 27.386 27.386 0 0 0 .356-.221 25.55 25.55 0 0 0 3.022-2.247 29.092 29.092 0 0 0 .678-.603 23.873 23.873 0 0 0 3.206-3.619 26.235 26.235 0 0 0 .094-.131 71.615 71.615 0 0 0 2.366-3.73 56.069 56.069 0 0 0 1.534-2.77 286.712 286.712 0 0 1 .75-1.444q.998-1.906 1.589-2.949a37.282 37.282 0 0 1 .061-.107 4.325 4.325 0 0 1 .233-.387q.559-.819 1.119-.586a.791.791 0 0 1 .048.023.608.608 0 0 1 .34.487q.059.403-.216 1.079a6.036 6.036 0 0 1-.124.284q-2.6 5.2-4.6 8.75a32.99 32.99 0 0 1-2.392 3.677 26.668 26.668 0 0 1-2.058 2.423q-2.45 2.55-5.9 4.5a39.43 39.43 0 0 1-2.861 1.455q-2.614 1.207-5.989 2.395-2.4 4.2-5.45 8.9-3.05 4.7-6.85 8.65t-8.5 6.5q-4.7 2.55-10.2 2.55a21.186 21.186 0 0 1-2.209-.108q-1.053-.11-1.93-.335a8.159 8.159 0 0 1-1.761-.657q-2.1-1.1-2.95-2.9-.843-1.786-.554-3.915a8.62 8.62 0 0 1 .004-.035q.3-2.15 1.4-4.25 1.4-2.8 3.95-4.8 2.55-2 5.45-3.4a53.021 53.021 0 0 1 6.194-2.43 69.311 69.311 0 0 1 5.456-1.52q6.55-1.55 12.65-3.25 1.4-2.5 2.7-5.6 1.3-3.1 2.4-6.2 1.1-3.1 2-5.9a358.199 358.199 0 0 0 .633-1.988q.492-1.562.867-2.812a1002.936 1002.936 0 0 1-1.045 1.844l-.978 1.72a1862.406 1862.406 0 0 1-1.077 1.886q-1.8 3.15-4.05 6t-4.9 4.9a10.485 10.485 0 0 1-2.366 1.401 8.183 8.183 0 0 1-3.184.649 9.905 9.905 0 0 1-.892-.043 13.062 13.062 0 0 1-.858-.107 5.526 5.526 0 0 1-1.68-.56 6.311 6.311 0 0 1-.17-.09 5.517 5.517 0 0 1-1.166-.877 6.815 6.815 0 0 1-.484-.523 4.619 4.619 0 0 1-.716-1.208 6.365 6.365 0 0 1-.334-1.092 10.261 10.261 0 0 1-.179-1.769q-.008-.675.079-1.331.2-1.5.75-2.95.55-1.45 1.3-2.8.75-1.35 1.45-2.75-.5 0-.95-.3-.45-.3.05-1.3.5-.8.9-1.7.4-.9.9-1.8l3-5.8a230.849 230.849 0 0 0 1.236-2.423q.559-1.113 1.047-2.119a135.127 135.127 0 0 0 .317-.658 4.528 4.528 0 0 1 .488-.78q.461-.586 1.062-.87.95-.45 2.35-.45Zm-.3 41.6q-2.4.6-5.15 1.3-2.75.7-5.55 1.5a151.769 151.769 0 0 0-4.747 1.438 138.091 138.091 0 0 0-.653.212q-2.6.85-4.7 1.75a21.145 21.145 0 0 0-4.071 2.371 17.896 17.896 0 0 0-2.279 2.029 19.145 19.145 0 0 0-1.673 2.018q-.822 1.152-1.33 2.295a10.301 10.301 0 0 0-.397 1.037q-.85 2.65.15 4.55a3.215 3.215 0 0 0 1.752 1.51q.998.39 2.448.39a11.82 11.82 0 0 0 3.936-.704 16.525 16.525 0 0 0 2.864-1.346 41.557 41.557 0 0 0 5.934-4.239 46.633 46.633 0 0 0 .816-.711q3.25-2.9 6-6.1 2.75-3.2 4.45-5.6.5-.8 1.05-1.75a144.18 144.18 0 0 1 1.076-1.825 157.82 157.82 0 0 1 .074-.125Z" vector-effect="non-scaling-stroke"><animate attributeName="stroke-dasharray" begin="0s" dur="1.5s" values="0,183;183,0" fill="freeze"/><animate attributeName="fill" from="#fff" to="#000" begin="1s" dur="1s" fill="freeze" repeatCount="1"/></path><path d="M529.851 49.129h5.4a46.811 46.811 0 0 0-.905.759q-.545.469-.995.891a10.858 10.858 0 0 0-.884.938 13.882 13.882 0 0 0-.666.862q-.75 1.05-1.55 2.6a100.672 100.672 0 0 0-.642 1.268q-.57 1.144-1.258 2.582-1.1 2.1-2.15 4.35a235.483 235.483 0 0 0-1.97 4.333 216.854 216.854 0 0 0-.03.067q-.95 2.15-1.65 4a23.804 23.804 0 0 0-.422 1.207q-.346 1.09-.478 1.943a17.939 17.939 0 0 0-.192 1.009q-.383 2.406.242 3.491a4.187 4.187 0 0 0 .49.69q.596.671 1.36.81a3.84 3.84 0 0 0 .571.043q1.708 0 3.379-1.543a17.836 17.836 0 0 0 1.788-1.931q1.003-1.246 1.962-2.819a55.396 55.396 0 0 0 2.085-3.75 69.121 69.121 0 0 0 1.365-2.85 544.919 544.919 0 0 0 2.773-6.235 495.654 495.654 0 0 0 .377-.865 150.736 150.736 0 0 1 1.441-3.215q.724-1.564 1.409-2.935 1.35-2.7 2.55-3.8a7.686 7.686 0 0 1 .7-.624q.394-.307.788-.518a4.568 4.568 0 0 1 .112-.058 5.2 5.2 0 0 1 .92-.351q.456-.128.98-.199.946-.129 2.149-.147a26.63 26.63 0 0 1 .401-.003h3.65a.965.965 0 0 1 .075.002q.282.022.048.228a1.07 1.07 0 0 1-.023.02 2.686 2.686 0 0 1-.216.161q-.233.157-.57.331a9.442 9.442 0 0 1-.114.058q-.6.3-1.45.55-.611.18-1.094.23a3.43 3.43 0 0 1-.356.02 12.245 12.245 0 0 0-.394-.008q-2.586-.005-3.656 1.158-.772.84-1.658 2.153a35.927 35.927 0 0 0-.892 1.397 27.496 27.496 0 0 0-.832 1.558q-.437.882-.881 1.908a55.031 55.031 0 0 0-.537 1.284q-1.15 2.85-2.5 6t-2.95 6.3q-1.6 3.15-3.5 5.6a19.497 19.497 0 0 1-2.248 2.455 15.885 15.885 0 0 1-1.902 1.495 8.149 8.149 0 0 1-4.614 1.406 9.071 9.071 0 0 1-.336-.006 6.428 6.428 0 0 1-1.872-.381 5.654 5.654 0 0 1-1.128-.569q-1.3-.85-1.95-2.5a8.715 8.715 0 0 1-.463-1.686q-.14-.792-.175-1.698a16.005 16.005 0 0 1-.012-.616 13.335 13.335 0 0 1 .192-2.181q.246-1.482.808-3.169.7-2.2 1.7-4.7t2.15-5.05q1.15-2.55 2.3-5.05t2.05-4.6a4.528 4.528 0 0 1 .488-.78q.461-.586 1.062-.87.95-.45 2.35-.45Zm21.1 0h5.4a46.811 46.811 0 0 0-.905.759q-.545.469-.995.891a10.858 10.858 0 0 0-.884.938 13.882 13.882 0 0 0-.666.862q-.75 1.05-1.55 2.6a100.672 100.672 0 0 0-.642 1.268q-.57 1.144-1.258 2.582-1.1 2.1-2.15 4.35a235.483 235.483 0 0 0-1.97 4.333 216.854 216.854 0 0 0-.03.067q-.95 2.15-1.65 4a23.804 23.804 0 0 0-.422 1.207q-.346 1.09-.478 1.943a17.822 17.822 0 0 0-.192 1.011q-.327 2.058.08 3.179a2.479 2.479 0 0 0 .162.36 4.075 4.075 0 0 0 .447.656q.611.722 1.403.794 1.8 0 3.65-1.6a18.765 18.765 0 0 0 1.924-1.94 25.332 25.332 0 0 0 1.626-2.11 48.803 48.803 0 0 0 2.267-3.605 57.685 57.685 0 0 0 .983-1.795 190.115 190.115 0 0 0 2.013-3.938 161.938 161.938 0 0 0 .837-1.712 3.828 3.828 0 0 1 .204-.387q.484-.794 1.057-.599a.877.877 0 0 1 .089.036.634.634 0 0 1 .375.497q.07.414-.219 1.112a5.834 5.834 0 0 1-.106.241q-1.2 2.6-2.8 5.75-1.6 3.15-3.6 5.95a24.545 24.545 0 0 1-2.656 3.148 20.66 20.66 0 0 1-1.744 1.552 9.278 9.278 0 0 1-2.236 1.331 7.484 7.484 0 0 1-2.864.569 5.764 5.764 0 0 1-1.774-.266 5.06 5.06 0 0 1-1.226-.584q-1.3-.85-1.95-2.5a8.582 8.582 0 0 1-.444-1.588q-.141-.765-.186-1.642a16.317 16.317 0 0 1-.02-.82q0-2.077.749-4.603a24.898 24.898 0 0 1 .251-.797q.7-2.2 1.7-4.7t2.15-5.05q1.15-2.55 2.3-5.05t2.05-4.6a4.528 4.528 0 0 1 .488-.78q.461-.586 1.062-.87.95-.45 2.35-.45Zm-44.7 29.9a19.125 19.125 0 0 0 2.585-2.692 23.032 23.032 0 0 0 1.065-1.458q1.65-2.45 3.1-5.25 1.45-2.8 2.7-5.7l2.35-5.45q1.1-2.55 2.1-4.5a15.172 15.172 0 0 1 .7-1.229q.678-1.065 1.4-1.721a7.686 7.686 0 0 1 .7-.624q.394-.307.788-.518a4.568 4.568 0 0 1 .112-.058 5.2 5.2 0 0 1 .92-.351q.456-.128.98-.199.946-.129 2.149-.147a26.63 26.63 0 0 1 .401-.003h3.65a.965.965 0 0 1 .075.002q.282.022.048.228a1.07 1.07 0 0 1-.023.02 2.686 2.686 0 0 1-.216.161q-.233.157-.57.331a9.442 9.442 0 0 1-.114.058q-.6.3-1.45.55-.611.18-1.094.23a3.43 3.43 0 0 1-.356.02 12.251 12.251 0 0 0-.394-.008q-1.532-.003-2.548.403a3.244 3.244 0 0 0-1.158.755q-.815.849-1.677 2.184a27.14 27.14 0 0 0-.823 1.366 43.915 43.915 0 0 0-1.182 2.317q-.541 1.136-1.108 2.456a100.552 100.552 0 0 0-1.16 2.827q-1.85 4.7-4.2 9.25a41.442 41.442 0 0 1-2.833 4.723 33.293 33.293 0 0 1-2.467 3.127q-2.95 3.3-6.85 3.3a11.899 11.899 0 0 1-3.269-.439 10.774 10.774 0 0 1-1.181-.411q-2.05-.85-3.35-3.25-1.8-3.3-1.05-5.3t2.15-2.55q1.214-.477 2.127.248a2.686 2.686 0 0 1 .273.252 1.544 1.544 0 0 1 .392.778q.222 1.104-.692 3.072a2.454 2.454 0 0 0-.266 1.111q0 .289.066.589.2.9.75 1.65.55.75 1.4 1.2.85.45 1.75.45 1.49-.088 2.634-.367a9.808 9.808 0 0 0 .316-.083 5.459 5.459 0 0 0 1.648-.789 6.888 6.888 0 0 0 .702-.561Z" vector-effect="non-scaling-stroke"><animate attributeName="stroke-dasharray" begin="0s" dur="1.5s" values="0,183;183,0" fill="freeze"/><animate attributeName="fill" from="#fff" to="#000" begin="1s" dur="1s" fill="freeze" repeatCount="1"/></path><path d="M581.451 69.129q-.7 1.4-1.45 3.45a21.925 21.925 0 0 0-.818 2.771 18.889 18.889 0 0 0-.232 1.229 10.514 10.514 0 0 0-.1.895q-.06.893.061 1.653a5.369 5.369 0 0 0 .189.802 1.881 1.881 0 0 0 .661.963q.347.259.842.365a3.598 3.598 0 0 0 .747.072 3.974 3.974 0 0 0 1.692-.402q.613-.287 1.241-.778a10.295 10.295 0 0 0 1.017-.92 28.965 28.965 0 0 0 2.583-3.058 35.106 35.106 0 0 0 1.267-1.842q1.8-2.8 3.25-5.65 1.45-2.85 2.25-4.45a3.828 3.828 0 0 1 .204-.387q.484-.794 1.057-.599a.877.877 0 0 1 .089.036.634.634 0 0 1 .375.497q.07.414-.219 1.112a5.834 5.834 0 0 1-.106.241q-.756 1.581-1.772 3.588a294.862 294.862 0 0 1-.978 1.912q-1.65 3.2-3.75 6.15a28.363 28.363 0 0 1-3.039 3.617 24.399 24.399 0 0 1-1.561 1.433q-2.5 2.1-5.4 2.1a4.592 4.592 0 0 1-1.953-.446 5.612 5.612 0 0 1-.397-.204 5.61 5.61 0 0 1-1.079-.806q-.555-.522-1.071-1.244a5.36 5.36 0 0 1-.475-1.02q-.409-1.154-.575-2.88a11.658 11.658 0 0 1-.054-1.117 10.291 10.291 0 0 1 .704-3.783 1051.953 1051.953 0 0 1 1.002-2.083l.876-1.808a617.659 617.659 0 0 1 .272-.559 131.882 131.882 0 0 1 1.663-3.298 119.794 119.794 0 0 1 .237-.452 216.161 216.161 0 0 1 1.739-3.227 237.907 237.907 0 0 1 .261-.473q.981-1.774 2.179-3.984a800.399 800.399 0 0 0 .171-.316 181.541 181.541 0 0 0 .701-1.273q.272-.498.509-.942a86.046 86.046 0 0 0 .44-.835q.65-1.25 1.3-2a4.467 4.467 0 0 1 .588-.57 3.224 3.224 0 0 1 .812-.48q.68-.272 1.729-.216a7.587 7.587 0 0 1 .221.016 15.299 15.299 0 0 1 1.772.286 17.082 17.082 0 0 1 .278.064 5.086 5.086 0 0 0 1.182.139 5.402 5.402 0 0 0 .968-.089 4.409 4.409 0 0 0-.654.448q-.882.714-1.996 2.152-1.55 2-3.2 4.7-1.65 2.7-3.3 5.75t-2.95 5.75Zm-13.8-8.5q.4-1.8 1.25-3.65.85-1.85 2.05-3.45 1.2-1.6 2.75-2.8 1.55-1.2 3.35-1.7a14.238 14.238 0 0 1 1.516-.365q1.586-.286 2.889-.087a6.493 6.493 0 0 1 .295.052q2 .4 3 1.8.953 1.333.953 3.573a10.864 10.864 0 0 1-.003.227 9.818 9.818 0 0 1-.28 2.065q-.379 1.594-1.27 3.435-1.813 2.225-3.083 3.567a26.839 26.839 0 0 1-.517.533 16.213 16.213 0 0 1-.496.477q-.762.7-1.219.891a1.215 1.215 0 0 1-.085.032.32.32 0 0 1-.05.013q-.438.069.504-1.748a28.605 28.605 0 0 1 .246-.465 79.109 79.109 0 0 0 1.508-2.922 65.854 65.854 0 0 0 .792-1.678 22.732 22.732 0 0 0 .652-1.58q.288-.786.469-1.496a11.207 11.207 0 0 0 .179-.824 6.818 6.818 0 0 0 .078-.582q.063-.71-.054-1.289a2.934 2.934 0 0 0-.324-.879 1.957 1.957 0 0 0-.876-.79q-.348-.169-.801-.261a5.632 5.632 0 0 0-.823-.099 5.226 5.226 0 0 0-.372-.014q-1.085 0-2.14.455a6.285 6.285 0 0 0-.238.109 5.822 5.822 0 0 0-1.725 1.285 7.431 7.431 0 0 0-.625.765q-1.027 1.4-2.184 3.236a79.005 79.005 0 0 0-.166.264 23.977 23.977 0 0 0-.961 1.678q-.549 1.059-.889 2.022a6.487 6.487 0 0 0-.309 1.025q-.112.513-.168 1.1a11.547 11.547 0 0 0-.023.275 6.452 6.452 0 0 0-.016.459q0 1.132.416 2.091a3.112 3.112 0 0 0 .954 1.209q.385.303.89.542a5.841 5.841 0 0 0 .106.049q1.373.615 3.954.29a18.074 18.074 0 0 0 .296-.04 4.732 4.732 0 0 1 .213-.026q1.187-.115 1.187.576 0 .75-2 .95a20.109 20.109 0 0 1-1.105.104q-2.525.165-4.095-.454-1.621-.64-2.515-1.681a4.498 4.498 0 0 1-.285-.369q-.9-1.3-1-2.9-.1-1.6.2-3Zm7.8 8.1q-1.6 2.9-3.25 5.65a33.146 33.146 0 0 1-2.16 3.183 27.529 27.529 0 0 1-1.39 1.667 20.424 20.424 0 0 1-2.295 2.186 16.65 16.65 0 0 1-1.705 1.214q-2.1 1.3-4.5 1.3a12.722 12.722 0 0 1-2.977-.325 7.373 7.373 0 0 1-5.023-3.775q-1.3-2.4-1.35-4.15a8.629 8.629 0 0 1-.003-.247q0-1.189.342-2.035a3.413 3.413 0 0 1 .261-.518 3.777 3.777 0 0 1 .611-.762 2.887 2.887 0 0 1 1.039-.638q1-.35 1.75 0 .666.31.938 1.212a3.549 3.549 0 0 1 .062.238 2.236 2.236 0 0 1 .053.41q.038 1.008-.703 2.49a2.998 2.998 0 0 0-.265 1.125q-.012.359.065.725.2.95.75 1.75t1.4 1.35a3.443 3.443 0 0 0 1.679.541 4.222 4.222 0 0 0 .271.009 10.302 10.302 0 0 0 .585.018q.652.001 1.231-.086a5.991 5.991 0 0 0 1.134-.282 6.729 6.729 0 0 0 1.782-.978 8.166 8.166 0 0 0 .568-.472q2.3-2 4.45-4.9 2.15-2.9 3.95-6.1a.256.256 0 0 1 .096-.056q.306-.111 1.304.056a11.719 11.719 0 0 0 .38.068q.395.066.92.132Z" vector-effect="non-scaling-stroke"><animate attributeName="stroke-dasharray" begin="0s" dur="1.5s" values="0,183;183,0" fill="freeze"/><animate attributeName="fill" from="#fff" to="#000" begin="1s" dur="1s" fill="freeze" repeatCount="1"/></path><path d="M615.851 69.129q-.7 1.4-1.45 3.45a21.925 21.925 0 0 0-.818 2.771 18.889 18.889 0 0 0-.232 1.229 10.514 10.514 0 0 0-.1.895q-.06.893.061 1.653a5.369 5.369 0 0 0 .189.802 1.881 1.881 0 0 0 .661.963q.347.259.842.365a3.598 3.598 0 0 0 .747.072 3.974 3.974 0 0 0 1.692-.402q.613-.287 1.241-.778a10.295 10.295 0 0 0 1.017-.92 28.965 28.965 0 0 0 2.583-3.058 35.106 35.106 0 0 0 1.267-1.842q1.8-2.8 3.25-5.65 1.45-2.85 2.25-4.45a3.828 3.828 0 0 1 .204-.387q.484-.794 1.057-.599a.877.877 0 0 1 .089.036.634.634 0 0 1 .375.497q.07.414-.219 1.112a5.834 5.834 0 0 1-.106.241q-.756 1.581-1.772 3.588a294.862 294.862 0 0 1-.978 1.912q-1.65 3.2-3.75 6.15a28.363 28.363 0 0 1-3.039 3.617 24.399 24.399 0 0 1-1.561 1.433q-2.5 2.1-5.4 2.1a4.592 4.592 0 0 1-1.953-.446 5.612 5.612 0 0 1-.397-.204 5.61 5.61 0 0 1-1.079-.806q-.555-.522-1.071-1.244a6.642 6.642 0 0 1-.47-.94q-.486-1.173-.83-2.96a9.699 9.699 0 0 1-.177-1.652q-.031-1.693.577-3.248 1.032-2.149 1.841-3.891a233.852 233.852 0 0 0 .259-.559 134.893 134.893 0 0 1 1.575-3.298 122.272 122.272 0 0 1 .225-.452 197.427 197.427 0 0 1 1.652-3.227 217.387 217.387 0 0 1 .248-.473 339.918 339.918 0 0 1 1.004-1.891q.606-1.134 1.296-2.409 1.9-3.6 3.3-5a4.373 4.373 0 0 1 2.389-1.215q.517-.092 1.096-.092a7.58 7.58 0 0 1 .315.007 15.299 15.299 0 0 1 1.772.286 17.082 17.082 0 0 1 .278.064 5.086 5.086 0 0 0 1.182.139 5.402 5.402 0 0 0 .968-.089 4.409 4.409 0 0 0-.654.448q-.882.714-1.996 2.152-1.55 2-3.2 4.7-1.65 2.7-3.3 5.75t-2.95 5.75Zm-18.7 2.1a39.272 39.272 0 0 0 .087-.175q.377-.762.913-1.925 1.3-2.7 2.95-5.75 1.65-3.05 3.3-5.75t3.2-4.7q1.114-1.438 1.996-2.152a4.409 4.409 0 0 1 .654-.448 5.402 5.402 0 0 1-.968.089 5.086 5.086 0 0 1-1.182-.139 17.082 17.082 0 0 0-.278-.064 15.299 15.299 0 0 0-1.772-.286 7.58 7.58 0 0 0-.315-.007q-.579 0-1.096.092a4.373 4.373 0 0 0-2.389 1.215q-1.05 1.05-2.381 3.337a46.019 46.019 0 0 0-.919 1.663q-3.7 6.8-6.95 13.8-3.25 7-6.85 14.2a4.412 4.412 0 0 1 .05-.031q.325-.197.642-.312a2.518 2.518 0 0 1 .858-.157 13.905 13.905 0 0 0 .507-.01q.27-.01.575-.03a29.816 29.816 0 0 0 .768-.06 22.494 22.494 0 0 0 .517-.006q1.218-.028 1.883-.194a1.628 1.628 0 0 0 .602-.3q.233-.179.445-.453a4.092 4.092 0 0 0 .353-.547 854.09 854.09 0 0 1 .712-1.641q.74-1.703 1.295-2.953a218.331 218.331 0 0 1 .493-1.106 227.563 227.563 0 0 0 .4-.894q.618-1.388 1-2.306.313-.75.586-1.344a22.786 22.786 0 0 1 .314-.656Zm15.971-5.634a8.092 8.092 0 0 0 1.029-1.966q.2-.2-.4-.2a2.967 2.967 0 0 0-.211.007q-.262.019-.425.087a.51.51 0 0 0-.164.106 6.23 6.23 0 0 1-.271.444 5.176 5.176 0 0 1-.929 1.056 1.798 1.798 0 0 1-.701.37q-.519.143-1.199.03a9.1 9.1 0 0 1-.952-.164 10.123 10.123 0 0 1-2.398-.886q-1.65-.85-3.55-.95-2-.2-3.45 1.3a16.009 16.009 0 0 0-1.216 1.406 11.732 11.732 0 0 0-1.034 1.594.39.39 0 0 0-.015.025q-.135.24.359.27a2.558 2.558 0 0 0 .156.005 4.168 4.168 0 0 0 .163-.003q.378-.015.538-.103a.229.229 0 0 0 .099-.094 3.37 3.37 0 0 1 .357-.565 3.753 3.753 0 0 1 .843-.785q.8-.55 1.8-.45 1.7.1 3.45 1.05a9.755 9.755 0 0 0 .713.351 8.093 8.093 0 0 0 2.837.699 4.527 4.527 0 0 0 .451.023q1.008 0 1.882-.472a4.808 4.808 0 0 0 1.167-.901 10.762 10.762 0 0 0 1.071-1.284Z" vector-effect="non-scaling-stroke"><animate attributeName="stroke-dasharray" begin="0s" dur="1.5s" values="0,183;183,0" fill="freeze"/><animate attributeName="fill" from="#fff" to="#000" begin="1s" dur="1s" fill="freeze" repeatCount="1"/></path><path d="M639.351 49.129h6.1a13.614 13.614 0 0 0-1.047.769 11.301 11.301 0 0 0-.553.481q-.7.65-1.45 1.55a15.187 15.187 0 0 0-.665.864q-.435.604-.885 1.336-.543.883-1.18 2.136a55.74 55.74 0 0 0-.62 1.264 92.003 92.003 0 0 0-1.783 3.48 77.698 77.698 0 0 0-.717 1.52q-1.1 2.1-2.1 4.3a176.005 176.005 0 0 1-.481 1.05q-.648 1.4-1.148 2.408a56.998 56.998 0 0 1-.071.142q-1.756 3.805-1.989 6.373a9.275 9.275 0 0 0-.011.127 11.996 11.996 0 0 0-.029.52q-.046 1.382.277 2.267a2.595 2.595 0 0 0 .502.863 1.832 1.832 0 0 0 1.377.612q.647.014 1.473-.312 1.71-.675 3.825-3.011a26.373 26.373 0 0 0 .475-.539q2.1-2.4 4.15-5.7 2.05-3.3 3.95-6.85 1.9-3.55 3.65-7.05t3.15-6.5a4.528 4.528 0 0 1 .488-.78q.461-.586 1.062-.87.95-.45 2.35-.45h5.4a46.811 46.811 0 0 0-.905.759q-.545.469-.995.891a10.858 10.858 0 0 0-.884.938 13.882 13.882 0 0 0-.666.862q-.75 1.05-1.55 2.6a100.672 100.672 0 0 0-.642 1.268q-.57 1.144-1.258 2.582-1.1 2.1-2.15 4.35a235.483 235.483 0 0 0-1.97 4.333 216.854 216.854 0 0 0-.03.067q-.95 2.15-1.65 4a23.804 23.804 0 0 0-.422 1.207q-.346 1.09-.478 1.943a17.822 17.822 0 0 0-.192 1.011q-.327 2.058.08 3.179a2.479 2.479 0 0 0 .162.36 4.075 4.075 0 0 0 .447.656q.611.722 1.403.794 1.8 0 3.65-1.6a18.765 18.765 0 0 0 1.924-1.94 25.332 25.332 0 0 0 1.626-2.11 48.803 48.803 0 0 0 2.267-3.605 57.685 57.685 0 0 0 .983-1.795 190.115 190.115 0 0 0 2.013-3.938 161.938 161.938 0 0 0 .837-1.712 3.828 3.828 0 0 1 .204-.387q.484-.794 1.057-.599a.877.877 0 0 1 .089.036.634.634 0 0 1 .375.497q.07.414-.219 1.112a5.834 5.834 0 0 1-.106.241q-1.2 2.6-2.8 5.75-1.6 3.15-3.6 5.95-2 2.8-4.4 4.7a9.278 9.278 0 0 1-2.236 1.331 7.484 7.484 0 0 1-2.864.569 5.764 5.764 0 0 1-1.774-.266 5.06 5.06 0 0 1-1.226-.584q-1.3-.85-1.95-2.5a8.582 8.582 0 0 1-.444-1.588q-.141-.765-.186-1.642a16.317 16.317 0 0 1-.02-.82q0-2.077.749-4.603a24.898 24.898 0 0 1 .251-.797q-1.3 2.3-2.85 4.55a34.666 34.666 0 0 1-2.758 3.512 31.314 31.314 0 0 1-.542.588 19.31 19.31 0 0 1-2.016 1.859 15.727 15.727 0 0 1-1.634 1.141 8.849 8.849 0 0 1-1.527.744q-1.069.393-2.106.405a5.643 5.643 0 0 1-.067.001 9.905 9.905 0 0 1-.892-.043 13.062 13.062 0 0 1-.858-.107 5.526 5.526 0 0 1-1.68-.56 6.311 6.311 0 0 1-.17-.09 5.517 5.517 0 0 1-1.166-.877 6.815 6.815 0 0 1-.484-.523 4.619 4.619 0 0 1-.716-1.208 6.365 6.365 0 0 1-.334-1.092 10.261 10.261 0 0 1-.179-1.769q-.008-.675.079-1.331.2-1.5.75-2.95.55-1.45 1.3-2.8.75-1.35 1.45-2.75-.5 0-.95-.3-.45-.3.05-1.3.5-.8.9-1.7.4-.9.9-1.8l3-5.8a230.849 230.849 0 0 0 1.236-2.423q.559-1.113 1.047-2.119a135.127 135.127 0 0 0 .317-.658 4.528 4.528 0 0 1 .488-.78q.461-.586 1.062-.87.95-.45 2.35-.45Zm15.2 32.7a41.535 41.535 0 0 0-2.519 2.195 50.943 50.943 0 0 0-1.531 1.505q-2.05 2.1-3.8 4.3a27.307 27.307 0 0 0-1.891 2.681 22.363 22.363 0 0 0-.959 1.719 14.914 14.914 0 0 0-.638 1.453q-.496 1.331-.562 2.447a5.413 5.413 0 0 0 .099 1.063q.136.677.458 1.216a3.389 3.389 0 0 0 .043.071 1.832 1.832 0 0 0 .902.723q.333.133.756.188a4.994 4.994 0 0 0 .642.039 4.159 4.159 0 0 0 1.816-.431 5.763 5.763 0 0 0 .934-.569q1.35-1 2.35-2 .183-.183.614-.24a2.614 2.614 0 0 1 .086-.01q.5-.05.3.65-.2.8-.95 1.75t-2.05 1.8q-1.3.85-2.95 1.45a10.106 10.106 0 0 1-2.962.585 11.679 11.679 0 0 1-.588.015 5.465 5.465 0 0 1-1.761-.275 4.748 4.748 0 0 1-1.489-.825 3.268 3.268 0 0 1-1.101-1.766q-.188-.723-.149-1.634.072-1.649 1.043-3.657a18.398 18.398 0 0 1 .907-1.643 36.501 36.501 0 0 1 3.502-4.743 41.475 41.475 0 0 1 .948-1.057 50.971 50.971 0 0 1 4.154-4.009 45.21 45.21 0 0 1 1.196-.991q2.75-2.2 4.55-3h.55a.11.11 0 0 1 .102.072q.093.193-.046.898a8.257 8.257 0 0 1-.006.03Z" vector-effect="non-scaling-stroke"><animate attributeName="stroke-dasharray" begin="0s" dur="1.5s" values="0,183;183,0" fill="freeze"/><animate attributeName="fill" from="#fff" to="#000" begin="1s" dur="1s" fill="freeze" repeatCount="1"/></path><path d="M690.551 64.829q-1.4 3-3 6.35-1.6 3.35-3.8 6.2-2.2 2.85-5.15 4.7t-7.15 1.85q-3.8 0-6.65-2.4a7.863 7.863 0 0 1-2.479-3.907q-.379-1.29-.455-2.844a15.909 15.909 0 0 1-.016-.449 20.06 20.06 0 0 1 .205-2.793 25.251 25.251 0 0 1 .345-1.907q.55-2.5 1.6-4.95t2.45-4.75q1.4-2.3 3.1-4.3 1.9-2.2 4.2-4a22.074 22.074 0 0 1 2.516-1.715 17.343 17.343 0 0 1 2.084-1.035 12.982 12.982 0 0 1 2.402-.742 10.4 10.4 0 0 1 2.048-.208q2.15 0 3.85 1.2 1.4 1.1 1.65 2.8.248 1.681-.532 3.704a11.32 11.32 0 0 1-.018.046 13.679 13.679 0 0 1-1.104 2.192 18.702 18.702 0 0 1-1.396 1.958 22 22 0 0 1-2.874 2.922 25.958 25.958 0 0 1-1.226.978q-1.2.9-2.85 1.7-1.65.8-3.45 1.4a36.426 36.426 0 0 1-2.067.624 29.192 29.192 0 0 1-1.333.326 20.644 20.644 0 0 1-.941.184q-.907.155-1.566.165a5.952 5.952 0 0 1-.093.001q-.407.951-.746 2.319a28.658 28.658 0 0 0-.304 1.381 17.647 17.647 0 0 0-.337 3.393 16.258 16.258 0 0 0 .037 1.107 8.888 8.888 0 0 0 .414 2.182 7.407 7.407 0 0 0 .786 1.668q1.024 1.608 3.426 1.649a7.413 7.413 0 0 0 .124.001q3.3 0 5.95-1.95 2.65-1.95 4.7-4.65 2.05-2.7 3.5-5.6 1.433-2.866 2.329-4.853a73.232 73.232 0 0 0 .021-.047q.3-.7.75-1.05a2.425 2.425 0 0 1 .246-.169q.287-.172.527-.181a.712.712 0 0 1 .027 0 .538.538 0 0 1 .234.049q.123.058.206.186a.763.763 0 0 1 .06.115.501.501 0 0 1 .036.132q.046.354-.286 1.018Zm-10.4-2.8q2-1.7 3.35-3.8a18.914 18.914 0 0 0 .957-1.657q.429-.844.703-1.634a10.136 10.136 0 0 0 .19-.609 9.714 9.714 0 0 0 .203-.876q.179-.997.066-1.775a3.56 3.56 0 0 0-.069-.349 1.943 1.943 0 0 0-.209-.528q-.394-.66-1.291-.622a2.847 2.847 0 0 0-.769.154q-1.038.344-2.531 1.446-2.1 1.55-5.2 5.25-2 2.4-3.65 5.2-1.65 2.8-2.35 4.2a5.393 5.393 0 0 0 .487-.025q.506-.046 1.186-.179a19.728 19.728 0 0 0 .227-.046 15.565 15.565 0 0 0 1.108-.276q.561-.161 1.176-.376a27.188 27.188 0 0 0 .416-.148 21.494 21.494 0 0 0 2.23-.97 25.071 25.071 0 0 0 .82-.43q1.55-.85 2.95-1.95Z" vector-effect="non-scaling-stroke"><animate attributeName="stroke-dasharray" begin="0s" dur="1.5s" values="0,183;183,0" fill="freeze"/><animate attributeName="fill" from="#fff" to="#000" begin="1s" dur="1s" fill="freeze" repeatCount="1"/></path><path d="M702.317 39.183a332.523 332.523 0 0 0-5.466 10.046q-2.2 4.2-4.3 8.45-2.1 4.25-4.1 8-2 3.75-3.8 6.85-1.125 1.937-2.132 3.445a37.442 37.442 0 0 1-1.168 1.655q-.353.495-.282.915a.903.903 0 0 0 .132.335q.35.55.95.05 1.137-1.061 2.905-3.931a71.247 71.247 0 0 0 1.195-2.019q1.625-2.844 3.602-6.489a567.447 567.447 0 0 0 2.498-4.661 119.973 119.973 0 0 0-1.075 2.283 98.968 98.968 0 0 0-1.575 3.617 56.226 56.226 0 0 0-.15.369q-1.039 2.583-1.6 4.731-.408 1.575-.408 3.031a9.676 9.676 0 0 0 .208 2.019 8.598 8.598 0 0 0 .095.397 6.937 6.937 0 0 0 2.055 3.453q1.057.961 2.648 1.47a11.439 11.439 0 0 0 1.952.43 10.35 10.35 0 0 0 .327.039q2.008.207 4.611-.291a28.65 28.65 0 0 0 2.312-.548q3.1-.8 5.8-2.85 2.7-2.05 4.8-4.85 2.1-2.8 3.55-6a35.55 35.55 0 0 0 .351-.8 31.703 31.703 0 0 0 1.799-5.6q.5-2.4.35-4.75a13.017 13.017 0 0 0-.066-.725 11.136 11.136 0 0 0-1.034-3.575q-.95-1.95-2.75-3.3a8.597 8.597 0 0 0-2.309-1.218 11.704 11.704 0 0 0-2.191-.532 11.108 11.108 0 0 0-.34-.055q-1.067-.154-1.762-.024a2.277 2.277 0 0 0-.448.129 3.82 3.82 0 0 0-.229.103q-.635.312-.721.697-.077.349.237.669a1.71 1.71 0 0 0 .213.181 1.408 1.408 0 0 0 .29.16q.434.181 1.094.157a4.919 4.919 0 0 0 .266-.017 10.586 10.586 0 0 1 .258-.019q1.283-.075 2.219.196a3.546 3.546 0 0 1 1.173.573 3.961 3.961 0 0 1 1.169 1.43 5.257 5.257 0 0 1 .431 1.32 8.404 8.404 0 0 1 .079.481q.219 1.621-.129 3.619a21.361 21.361 0 0 1-.464 2.051 26.468 26.468 0 0 1-.936 2.749q-1.3 3-3.35 6.45t-4.15 5.95a44.713 44.713 0 0 1-.286.342q-4.586 5.427-7.644 5.427a3.221 3.221 0 0 1-.67-.069 5.229 5.229 0 0 1-.435-.103q-1.444-.408-2.18-1.578a4.676 4.676 0 0 1-.585-1.469q-.6-2.65.05-6.4a38.497 38.497 0 0 1 .818-3.626 50.224 50.224 0 0 1 1.432-4.374 92.673 92.673 0 0 1 .405-1.056 83.732 83.732 0 0 1 3.095-6.994q.8-1.7 1.85-3.6 1.05-1.9 2.15-4a178.972 178.972 0 0 0 3.277-1.081q4.81-1.639 8.988-3.384a99.106 99.106 0 0 0 7.985-3.735q8.35-4.4 14.85-10.9 3-3 5.5-6.4a54.804 54.804 0 0 0 1.824-2.634 43.944 43.944 0 0 0 2.326-4.016q1.65-3.25 2.35-6.2a15.45 15.45 0 0 0 .282-1.497q.274-2.031-.132-3.653a5.429 5.429 0 0 0-.805-1.802 5.588 5.588 0 0 0-1.745-1.598q-1.785-1.072-4.926-1.027a19.457 19.457 0 0 0-.774.027q-3.8.2-7.3 1.9a31.319 31.319 0 0 0-2.28 1.228 36.689 36.689 0 0 0-4.57 3.222 55.388 55.388 0 0 0-2.505 2.189 67.002 67.002 0 0 0-4.145 4.211q-3.3 3.65-6.6 7.65a107.392 107.392 0 0 0-3.076 4.074 125.301 125.301 0 0 0-6.424 9.926 390.507 390.507 0 0 0-2.734 4.754Zm2.434 5.646a81.312 81.312 0 0 0 11.978-4.484 95.319 95.319 0 0 0 4.372-2.166q8.25-4.35 14.95-11.25 3.6-3.7 6.35-7.85a46.881 46.881 0 0 0 1.987-3.265q1.271-2.307 2.013-4.385 1.25-3.5.6-5.8t-3.75-2.3a11.634 11.634 0 0 0-3.791.664q-1.411.485-2.865 1.322a19.99 19.99 0 0 0-.194.114 33.547 33.547 0 0 0-3.786 2.626 45.161 45.161 0 0 0-3.364 2.974 72.07 72.07 0 0 0-4.879 5.261 85.683 85.683 0 0 0-2.171 2.689q-3.45 4.45-6.65 9.05-3.2 4.6-5.95 9a2174.163 2174.163 0 0 0-2.281 3.658q-1.387 2.229-2.569 4.142Zm-6.5 2-1.2 2.4q-2.2.3-4.3-.2-2.1-.5-3.5-2.2-.7-.8-1.1-1.75a3.293 3.293 0 0 1-.266-1.289 3.364 3.364 0 0 1 .066-.661q.076-.529.351-.83a1.086 1.086 0 0 1 .199-.17q.45-.3.9-.2.45.1.75.45a1.102 1.102 0 0 1 .203.365q.097.286.097.685v.2q.357 2.138 2.26 2.808a4.707 4.707 0 0 0 .49.142q2.35.55 5.05.25Z" vector-effect="non-scaling-stroke"><animate attributeName="stroke-dasharray" begin="0s" dur="1.5s" values="0,183;183,0" fill="freeze"/><animate attributeName="fill" from="#fff" to="#000" begin="1s" dur="1s" fill="freeze" repeatCount="1"/></path></g></svg>