<svg width="750.443" height="115.13" viewBox="0 0 750.443 115.13" xmlns="http://www.w3.org/2000/svg"><g id="svgGroup" stroke-linecap="round" fill-rule="evenodd" font-size="9pt" stroke="#000" stroke-width="0.25mm" fill="#000" style="stroke:#000;stroke-width:0.25mm;">

<path fill='none' d="M 84.151 18.929 Q 84.151 21.629 82.551 24.829 A 14.999 14.999 0 0 1 80.439 27.941 Q 79.127 29.454 77.301 30.879 Q 74.302 33.221 69.749 35.09 A 51.22 51.22 0 0 1 67.701 35.879 A 44.562 44.562 0 0 1 62.413 37.403 Q 59.791 37.997 56.789 38.406 A 86.44 86.44 0 0 1 53.051 38.829 Q 47.385 39.362 42.251 39.362 A 91.414 91.414 0 0 1 37.251 39.229 Q 29.951 38.829 22.851 36.529 A 60.264 60.264 0 0 0 22.12 37.544 Q 20.976 39.166 19.551 41.379 Q 17.651 44.329 15.601 47.729 Q 13.551 51.129 11.601 54.779 A 73.86 73.86 0 0 0 9.613 58.774 A 58.571 58.571 0 0 0 8.351 61.729 A 63.615 63.615 0 0 0 6.694 66.407 Q 4.796 72.574 5.22 76.702 A 13.379 13.379 0 0 0 5.251 76.979 A 14.435 14.435 0 0 0 5.874 79.817 Q 6.415 81.421 7.33 82.553 A 6.788 6.788 0 0 0 9.701 84.429 Q 13.451 86.229 19.501 84.179 A 31.218 31.218 0 0 0 24.557 81.911 Q 28.354 79.813 32.451 76.429 A 101.89 101.89 0 0 0 39.192 70.164 A 113.38 113.38 0 0 0 40.151 69.179 Q 43.951 65.229 47.401 61.079 A 126.535 126.535 0 0 0 53.018 53.816 A 115.046 115.046 0 0 0 53.751 52.779 Q 56.651 48.629 58.651 44.929 Q 60.412 41.638 61.996 40.28 A 4.749 4.749 0 0 1 62.951 39.629 A 6.093 6.093 0 0 1 63.553 39.365 Q 65.115 38.785 66.001 39.629 A 2.501 2.501 0 0 1 66.637 40.657 Q 66.95 41.578 66.801 42.979 Q 66.551 45.329 64.351 47.729 A 46.82 46.82 0 0 0 61.875 50.825 A 58.905 58.905 0 0 0 60.201 53.229 Q 58.151 56.329 56.401 59.829 Q 54.651 63.329 53.301 67.079 A 48.985 48.985 0 0 0 51.341 74.066 A 45.258 45.258 0 0 0 51.251 74.529 Q 50.157 80.276 50.934 83.194 A 6.457 6.457 0 0 0 51.101 83.729 A 6.984 6.984 0 0 0 51.726 85.045 Q 52.179 85.773 52.769 86.206 A 3.261 3.261 0 0 0 54.451 86.829 A 4.685 4.685 0 0 0 54.857 86.846 Q 56.385 86.846 58.244 85.891 A 15.562 15.562 0 0 0 59.851 84.929 Q 62.951 82.829 65.951 79.129 A 84.772 84.772 0 0 0 68.7 75.319 A 105.758 105.758 0 0 0 70.601 72.429 Q 72.951 68.729 74.651 64.929 A 4.68 4.68 0 0 1 74.985 64.358 Q 75.42 63.729 75.924 63.577 A 1.129 1.129 0 0 1 76.251 63.529 Q 77.151 63.529 76.351 65.329 A 109.689 109.689 0 0 1 75.784 66.524 Q 75.276 67.579 74.651 68.829 A 71.455 71.455 0 0 1 73.158 71.65 A 83.74 83.74 0 0 1 72.401 72.979 Q 71.151 75.129 69.801 77.329 A 47.159 47.159 0 0 1 68.094 79.922 A 39.142 39.142 0 0 1 67.051 81.329 A 26.725 26.725 0 0 1 64.204 84.482 A 29.297 29.297 0 0 1 64.101 84.579 Q 62.451 86.129 60.551 87.329 Q 58.651 88.529 56.551 89.229 A 13.227 13.227 0 0 1 52.417 89.929 A 12.607 12.607 0 0 1 52.351 89.929 Q 49.551 89.929 47.851 88.429 A 8.586 8.586 0 0 1 45.623 85.292 A 10.447 10.447 0 0 1 45.351 84.579 A 16.599 16.599 0 0 1 44.636 81.51 A 21.124 21.124 0 0 1 44.451 79.329 A 28.007 28.007 0 0 1 44.435 78.363 A 27.637 27.637 0 0 1 44.851 73.579 A 32.307 32.307 0 0 1 45.728 69.849 A 27.73 27.73 0 0 1 46.251 68.279 Q 46.94 66.403 47.747 65.084 A 10.822 10.822 0 0 1 48.251 64.329 Q 46.876 65.979 45.076 67.936 A 153.08 153.08 0 0 1 43.351 69.779 Q 40.451 72.829 37.101 75.879 Q 33.751 78.929 29.951 81.629 A 45.916 45.916 0 0 1 24.703 84.869 A 39.499 39.499 0 0 1 22.301 86.029 A 26.103 26.103 0 0 1 16.073 87.923 A 23.867 23.867 0 0 1 14.551 88.129 A 15.913 15.913 0 0 1 12.927 88.213 A 14.513 14.513 0 0 1 7.151 87.029 A 9.927 9.927 0 0 1 2.245 82.594 A 13.136 13.136 0 0 1 1.751 81.629 Q 0 77.834 0 72.62 A 31.402 31.402 0 0 1 0.001 72.329 Q 0.051 66.929 1.901 60.429 A 57.572 57.572 0 0 1 4.976 52.187 A 71.538 71.538 0 0 1 7.551 47.129 Q 9.451 43.729 11.601 40.529 Q 13.751 37.329 16.351 34.429 A 42.942 42.942 0 0 1 11.773 31.956 A 38.366 38.366 0 0 1 10.801 31.329 A 24.274 24.274 0 0 1 7.214 28.428 A 21.755 21.755 0 0 1 6.351 27.529 A 7.543 7.543 0 0 1 4.927 25.249 A 9.001 9.001 0 0 1 4.701 24.629 A 13.867 13.867 0 0 1 4.117 22.003 A 12.456 12.456 0 0 1 4.051 21.279 Q 3.976 20.03 4.158 18.924 A 8.688 8.688 0 0 1 4.301 18.229 A 5.319 5.319 0 0 1 4.564 17.432 Q 4.901 16.641 5.451 16.229 A 3.301 3.301 0 0 1 5.733 15.897 Q 6.372 15.246 6.986 15.544 A 1.271 1.271 0 0 1 7.201 15.679 Q 8.012 16.299 7.321 17.966 A 7.019 7.019 0 0 1 7.251 18.129 A 7.819 7.819 0 0 0 6.854 19.259 Q 6.428 20.884 6.951 22.229 A 10.54 10.54 0 0 0 7.755 23.842 Q 8.395 24.904 9.351 26.029 A 21.817 21.817 0 0 0 13.359 29.601 Q 15.284 30.95 17.656 32.094 A 37.264 37.264 0 0 0 18.151 32.329 Q 22.851 27.129 28.351 22.379 Q 33.851 17.629 40.001 14.029 Q 46.151 10.429 52.901 8.329 Q 59.651 6.229 66.951 6.229 Q 72.67 6.229 76.62 7.998 A 14.385 14.385 0 0 1 79.601 9.779 Q 84.151 13.329 84.151 18.929 Z M 80.051 17.729 A 8.726 8.726 0 0 0 79.6 14.849 Q 78.794 12.53 76.548 11.119 A 9.297 9.297 0 0 0 76.401 11.029 Q 72.751 8.829 67.251 8.829 A 40.086 40.086 0 0 0 58.198 9.822 A 35.183 35.183 0 0 0 54.251 10.979 Q 48.251 13.129 43.051 16.679 Q 37.851 20.229 33.251 24.879 Q 28.651 29.529 24.451 34.529 A 48.08 48.08 0 0 0 34.336 36.615 A 55.488 55.488 0 0 0 36.901 36.829 A 73.667 73.667 0 0 0 39.796 36.943 Q 45.531 37.062 53.051 36.429 A 56.345 56.345 0 0 0 59.3 35.587 A 43.634 43.634 0 0 0 64.251 34.329 A 37.257 37.257 0 0 0 68.609 32.642 A 27.227 27.227 0 0 0 72.751 30.279 A 20.478 20.478 0 0 0 76.019 27.464 A 16.607 16.607 0 0 0 78.151 24.629 Q 80.051 21.429 80.051 17.729 Z" id="0" vector-effect="non-scaling-stroke">
<animate id="an_r" attributeName="stroke-dasharray" begin="0s" dur="1.5s" values="0,183;183,0"  fill="freeze" />
<animate id="project_anim1" attributeName="fill" from="#fff" to="#000" begin="1s" dur="1s" fill="freeze" repeatCount="1"></animate>
</path>


<path fill='none' d="M 107.851 49.129 L 113.251 49.129 A 46.811 46.811 0 0 0 112.346 49.888 Q 111.801 50.357 111.351 50.779 A 10.858 10.858 0 0 0 110.467 51.717 A 13.882 13.882 0 0 0 109.801 52.579 Q 109.051 53.629 108.251 55.179 A 100.672 100.672 0 0 0 107.609 56.447 Q 107.039 57.591 106.351 59.029 Q 105.251 61.129 104.201 63.379 A 235.483 235.483 0 0 0 102.231 67.712 A 216.854 216.854 0 0 0 102.201 67.779 Q 101.251 69.929 100.551 71.779 A 23.804 23.804 0 0 0 100.129 72.986 Q 99.783 74.076 99.651 74.929 A 17.822 17.822 0 0 0 99.459 75.94 Q 99.132 77.998 99.539 79.119 A 2.479 2.479 0 0 0 99.701 79.479 A 4.075 4.075 0 0 0 100.148 80.135 Q 100.759 80.857 101.551 80.929 Q 103.351 80.929 105.201 79.329 A 18.765 18.765 0 0 0 107.125 77.389 A 25.332 25.332 0 0 0 108.751 75.279 A 48.803 48.803 0 0 0 111.018 71.674 A 57.685 57.685 0 0 0 112.001 69.879 A 190.115 190.115 0 0 0 114.014 65.941 A 161.938 161.938 0 0 0 114.851 64.229 A 3.828 3.828 0 0 1 115.055 63.842 Q 115.539 63.048 116.112 63.243 A 0.877 0.877 0 0 1 116.201 63.279 A 0.634 0.634 0 0 1 116.576 63.776 Q 116.646 64.19 116.357 64.888 A 5.834 5.834 0 0 1 116.251 65.129 Q 115.051 67.729 113.451 70.879 Q 111.851 74.029 109.851 76.829 Q 107.851 79.629 105.451 81.529 A 9.278 9.278 0 0 1 103.215 82.86 A 7.484 7.484 0 0 1 100.351 83.429 A 5.764 5.764 0 0 1 98.577 83.163 A 5.06 5.06 0 0 1 97.351 82.579 Q 96.051 81.729 95.401 80.079 A 8.582 8.582 0 0 1 94.957 78.491 Q 94.816 77.726 94.771 76.849 A 16.317 16.317 0 0 1 94.751 76.029 Q 94.751 73.952 95.5 71.426 A 24.898 24.898 0 0 1 95.751 70.629 Q 96.451 68.429 97.451 65.929 Q 98.451 63.429 99.601 60.879 Q 100.751 58.329 101.901 55.829 Q 103.051 53.329 103.951 51.229 A 4.528 4.528 0 0 1 104.439 50.449 Q 104.9 49.863 105.501 49.579 Q 106.451 49.129 107.851 49.129 Z M 82.451 79.029 A 19.125 19.125 0 0 0 85.036 76.337 A 23.032 23.032 0 0 0 86.101 74.879 Q 87.751 72.429 89.201 69.629 Q 90.651 66.829 91.901 63.929 Q 93.151 61.029 94.251 58.479 Q 95.351 55.929 96.351 53.979 A 15.172 15.172 0 0 1 97.051 52.75 Q 97.729 51.685 98.451 51.029 A 7.686 7.686 0 0 1 99.151 50.405 Q 99.545 50.098 99.939 49.887 A 4.568 4.568 0 0 1 100.051 49.829 A 5.2 5.2 0 0 1 100.971 49.478 Q 101.427 49.35 101.951 49.279 Q 102.897 49.15 104.1 49.132 A 26.63 26.63 0 0 1 104.501 49.129 L 108.151 49.129 A 0.965 0.965 0 0 1 108.226 49.131 Q 108.508 49.153 108.274 49.359 A 1.07 1.07 0 0 1 108.251 49.379 A 2.686 2.686 0 0 1 108.035 49.54 Q 107.802 49.697 107.465 49.871 A 9.442 9.442 0 0 1 107.351 49.929 Q 106.751 50.229 105.901 50.479 Q 105.29 50.659 104.807 50.709 A 3.43 3.43 0 0 1 104.451 50.729 A 12.251 12.251 0 0 0 104.057 50.721 Q 102.525 50.718 101.509 51.124 A 3.244 3.244 0 0 0 100.351 51.879 Q 99.536 52.728 98.674 54.063 A 27.14 27.14 0 0 0 97.851 55.429 A 43.915 43.915 0 0 0 96.669 57.746 Q 96.128 58.882 95.561 60.202 A 100.552 100.552 0 0 0 94.401 63.029 Q 92.551 67.729 90.201 72.279 A 41.442 41.442 0 0 1 87.368 77.002 A 33.293 33.293 0 0 1 84.901 80.129 Q 81.951 83.429 78.051 83.429 A 11.899 11.899 0 0 1 74.782 82.99 A 10.774 10.774 0 0 1 73.601 82.579 Q 71.551 81.729 70.251 79.329 Q 68.451 76.029 69.201 74.029 Q 69.951 72.029 71.351 71.479 Q 72.565 71.002 73.478 71.727 A 2.686 2.686 0 0 1 73.751 71.979 A 1.544 1.544 0 0 1 74.143 72.757 Q 74.365 73.861 73.451 75.829 A 2.454 2.454 0 0 0 73.185 76.94 Q 73.185 77.229 73.251 77.529 Q 73.451 78.429 74.001 79.179 Q 74.551 79.929 75.401 80.379 Q 76.251 80.829 77.151 80.829 Q 78.641 80.741 79.785 80.462 A 9.808 9.808 0 0 0 80.101 80.379 A 5.459 5.459 0 0 0 81.749 79.59 A 6.888 6.888 0 0 0 82.451 79.029 Z" id="1" vector-effect="non-scaling-stroke">
<animate id="an_r" attributeName="stroke-dasharray" begin="0s" dur="1.5s" values="0,183;183,0" fill="black" />
<animate id="project_anim1" attributeName="fill" from="#fff" to="#000" begin="1s" dur="1s" fill="freeze" repeatCount="1"></animate>
</path>

<path id="Stroke_r2" stroke-dasharray="0,183" fill='none' d="M 141.051 64.829 Q 139.651 67.829 138.051 71.179 Q 136.451 74.529 134.251 77.379 Q 132.051 80.229 129.101 82.079 Q 126.151 83.929 121.951 83.929 Q 118.151 83.929 115.301 81.529 A 7.863 7.863 0 0 1 112.822 77.622 Q 112.443 76.332 112.367 74.778 A 15.909 15.909 0 0 1 112.351 74.329 A 20.06 20.06 0 0 1 112.556 71.536 A 25.251 25.251 0 0 1 112.901 69.629 Q 113.451 67.129 114.501 64.679 Q 115.551 62.229 116.951 59.929 Q 118.351 57.629 120.051 55.629 Q 121.951 53.429 124.251 51.629 A 22.074 22.074 0 0 1 126.767 49.914 A 17.343 17.343 0 0 1 128.851 48.879 A 12.982 12.982 0 0 1 131.253 48.137 A 10.4 10.4 0 0 1 133.301 47.929 Q 135.451 47.929 137.151 49.129 Q 138.551 50.229 138.801 51.929 Q 139.049 53.61 138.269 55.633 A 11.32 11.32 0 0 1 138.251 55.679 A 13.679 13.679 0 0 1 137.147 57.871 A 18.702 18.702 0 0 1 135.751 59.829 A 22 22 0 0 1 132.877 62.751 A 25.958 25.958 0 0 1 131.651 63.729 Q 130.451 64.629 128.801 65.429 Q 127.151 66.229 125.351 66.829 A 36.426 36.426 0 0 1 123.284 67.453 A 29.192 29.192 0 0 1 121.951 67.779 A 20.644 20.644 0 0 1 121.01 67.963 Q 120.103 68.118 119.444 68.128 A 5.952 5.952 0 0 1 119.351 68.129 Q 118.944 69.08 118.605 70.448 A 28.658 28.658 0 0 0 118.301 71.829 A 17.647 17.647 0 0 0 117.964 75.222 A 16.258 16.258 0 0 0 118.001 76.329 A 8.888 8.888 0 0 0 118.415 78.511 A 7.407 7.407 0 0 0 119.201 80.179 Q 120.225 81.787 122.627 81.828 A 7.413 7.413 0 0 0 122.751 81.829 Q 126.051 81.829 128.701 79.879 Q 131.351 77.929 133.401 75.229 Q 135.451 72.529 136.901 69.629 Q 138.334 66.763 139.23 64.776 A 73.232 73.232 0 0 0 139.251 64.729 Q 139.551 64.029 140.001 63.679 A 2.425 2.425 0 0 1 140.247 63.51 Q 140.534 63.338 140.774 63.329 A 0.712 0.712 0 0 1 140.801 63.329 A 0.538 0.538 0 0 1 141.035 63.378 Q 141.158 63.436 141.241 63.564 A 0.763 0.763 0 0 1 141.301 63.679 A 0.501 0.501 0 0 1 141.337 63.811 Q 141.383 64.165 141.051 64.829 Z M 130.651 62.029 Q 132.651 60.329 134.001 58.229 A 18.914 18.914 0 0 0 134.958 56.572 Q 135.387 55.728 135.661 54.938 A 10.136 10.136 0 0 0 135.851 54.329 A 9.714 9.714 0 0 0 136.054 53.453 Q 136.233 52.456 136.12 51.678 A 3.56 3.56 0 0 0 136.051 51.329 A 1.943 1.943 0 0 0 135.842 50.801 Q 135.448 50.141 134.551 50.179 A 2.847 2.847 0 0 0 133.782 50.333 Q 132.744 50.677 131.251 51.779 Q 129.151 53.329 126.051 57.029 Q 124.051 59.429 122.401 62.229 Q 120.751 65.029 120.051 66.429 A 5.393 5.393 0 0 0 120.538 66.404 Q 121.044 66.358 121.724 66.225 A 19.728 19.728 0 0 0 121.951 66.179 A 15.565 15.565 0 0 0 123.059 65.903 Q 123.62 65.742 124.235 65.527 A 27.188 27.188 0 0 0 124.651 65.379 A 21.494 21.494 0 0 0 126.881 64.409 A 25.071 25.071 0 0 0 127.701 63.979 Q 129.251 63.129 130.651 62.029 Z" id="2" vector-effect="non-scaling-stroke">   
<animate id="an_r" attributeName="stroke-dasharray" begin="0s" dur="1.5s" values="0,183;183,0" fill="freeze" />
<animate id="project_anim1" attributeName="fill" from="#fff" to="#000" begin="1s" dur="1s" fill="freeze" repeatCount="1"></animate>
</path>

<path fill='none' d="M 145.351 64.129 Q 146.951 62.129 148.901 59.929 Q 150.851 57.729 153.051 55.729 Q 155.251 53.729 157.551 52.079 A 23.014 23.014 0 0 1 160.283 50.384 A 18.772 18.772 0 0 1 162.151 49.529 A 26.557 26.557 0 0 1 164.053 48.921 Q 166.489 48.248 168.145 48.406 A 5.913 5.913 0 0 1 168.351 48.429 A 6.562 6.562 0 0 1 169.526 48.684 Q 170.158 48.889 170.62 49.219 A 2.841 2.841 0 0 1 171.451 50.129 A 5.231 5.231 0 0 1 171.681 51.111 Q 171.718 51.401 171.718 51.684 A 4.153 4.153 0 0 1 171.651 52.429 A 4.344 4.344 0 0 1 171.226 53.687 A 3.904 3.904 0 0 1 170.801 54.329 Q 170.151 55.129 169.151 55.479 Q 168.238 55.798 167.241 55.576 A 4.201 4.201 0 0 1 167.051 55.529 A 1.964 1.964 0 0 0 166.441 54.296 A 3.082 3.082 0 0 0 165.901 53.879 A 3.473 3.473 0 0 0 164.924 53.474 Q 164.12 53.269 163.051 53.329 A 9.4 9.4 0 0 0 161.61 53.53 Q 160.891 53.684 160.093 53.949 A 20.544 20.544 0 0 0 158.801 54.429 Q 156.351 55.429 153.651 57.529 Q 151.351 64.229 151.701 69.479 Q 151.941 73.075 153.002 75.569 A 10.517 10.517 0 0 0 154.151 77.629 A 8.19 8.19 0 0 0 155.871 79.41 A 6.346 6.346 0 0 0 159.451 80.679 Q 161.868 80.792 164.399 78.766 A 16.297 16.297 0 0 0 166.051 77.229 A 19.09 19.09 0 0 0 167.467 75.538 Q 168.163 74.61 168.878 73.473 A 44.388 44.388 0 0 0 170.001 71.579 Q 172.051 67.929 174.151 63.529 Q 174.693 62.446 175.234 62.706 A 0.707 0.707 0 0 1 175.351 62.779 Q 175.951 63.229 175.451 64.429 Q 172.451 71.229 169.801 75.179 A 39.18 39.18 0 0 1 168.003 77.658 Q 167.103 78.795 166.228 79.69 A 16.732 16.732 0 0 1 164.701 81.079 A 14.8 14.8 0 0 1 162.929 82.302 Q 161.425 83.176 160.001 83.429 A 16.985 16.985 0 0 1 157.024 83.695 A 16.253 16.253 0 0 1 155.551 83.629 Q 154.151 83.529 152.701 82.979 A 8.533 8.533 0 0 1 150.653 81.847 A 10.308 10.308 0 0 1 149.951 81.279 A 11.696 11.696 0 0 1 148.388 79.58 A 14.566 14.566 0 0 1 147.601 78.429 A 9.2 9.2 0 0 1 146.76 76.637 Q 146.364 75.51 146.151 74.129 A 46.766 46.766 0 0 1 145.883 72.155 Q 145.697 70.501 145.697 69.22 A 16.43 16.43 0 0 1 145.701 68.829 Q 145.751 66.729 146.051 65.329 Q 144.751 67.029 143.401 68.929 Q 142.051 70.829 141.051 72.829 Q 140.451 74.029 139.601 76.029 A 504.987 504.987 0 0 1 139.129 77.135 Q 138.595 78.385 137.86 80.088 A 2014.938 2014.938 0 0 1 137.151 81.729 A 4.092 4.092 0 0 1 136.798 82.276 Q 136.586 82.55 136.353 82.729 A 1.628 1.628 0 0 1 135.751 83.029 Q 135.086 83.195 133.868 83.223 A 22.494 22.494 0 0 1 133.351 83.229 A 29.816 29.816 0 0 1 132.583 83.289 Q 132.278 83.309 132.008 83.319 A 13.905 13.905 0 0 1 131.501 83.329 A 2.518 2.518 0 0 0 130.643 83.486 Q 130.326 83.601 130.001 83.798 A 4.412 4.412 0 0 0 129.951 83.829 Q 133.551 76.629 136.801 69.629 Q 140.051 62.629 143.751 55.829 A 46.019 46.019 0 0 1 144.67 54.166 Q 146.001 51.879 147.051 50.829 A 4.373 4.373 0 0 1 149.44 49.614 Q 149.957 49.522 150.536 49.522 A 7.58 7.58 0 0 1 150.851 49.529 A 15.299 15.299 0 0 1 152.623 49.815 A 17.082 17.082 0 0 1 152.901 49.879 A 5.086 5.086 0 0 0 154.083 50.018 A 5.402 5.402 0 0 0 155.051 49.929 A 4.286 4.286 0 0 0 154.464 50.329 Q 153.792 50.866 153.001 51.829 A 33.808 33.808 0 0 0 151.966 53.159 Q 151.454 53.851 150.914 54.641 A 58.016 58.016 0 0 0 150.551 55.179 A 81.616 81.616 0 0 0 148.907 57.753 A 98.965 98.965 0 0 0 147.901 59.429 Q 146.551 61.729 145.351 64.129 Z" id="3" vector-effect="non-scaling-stroke">
<animate id="an_r" attributeName="stroke-dasharray" begin="0s" dur="1.5s" values="0,183;183,0" fill="freeze" />
<animate id="project_anim1" attributeName="fill" from="#fff" to="#000" begin="1s" dur="1s" fill="freeze" repeatCount="1"></animate>
</path>


<path fill='none' d="M 199.676 70.355 A 157.633 157.633 0 0 0 202.151 65.229 Q 202.57 64.332 202.488 63.864 A 0.546 0.546 0 0 0 202.151 63.429 A 0.732 0.732 0 0 0 202.136 63.422 Q 201.561 63.191 200.986 64.108 A 5.007 5.007 0 0 0 200.751 64.529 Q 199.251 67.529 197.551 70.629 Q 195.851 73.729 193.751 76.279 A 23.009 23.009 0 0 1 193.016 77.129 A 19.903 19.903 0 0 1 189.101 80.479 A 10.006 10.006 0 0 1 186.816 81.577 A 11.222 11.222 0 0 1 183.251 82.129 A 7.298 7.298 0 0 1 181.984 82.024 A 4.487 4.487 0 0 1 178.701 79.779 A 9.823 9.823 0 0 1 177.778 77.598 A 11.394 11.394 0 0 1 177.351 74.429 A 16.4 16.4 0 0 1 177.38 73.461 A 18.242 18.242 0 0 1 177.951 69.929 A 36.534 36.534 0 0 1 178.105 69.358 A 32.842 32.842 0 0 1 179.401 65.579 A 40.455 40.455 0 0 1 180.053 64.09 A 33.257 33.257 0 0 1 181.201 61.829 A 60.844 60.844 0 0 1 181.222 61.792 Q 181.863 60.647 182.389 59.822 A 19.706 19.706 0 0 1 182.851 59.129 A 31.262 31.262 0 0 1 183.644 57.997 A 37.172 37.172 0 0 1 185.151 56.079 Q 186.451 54.529 187.901 53.329 A 23.317 23.317 0 0 1 189.071 52.42 A 18.469 18.469 0 0 1 190.751 51.329 Q 192.151 50.529 193.551 50.529 Q 194.951 50.529 195.601 51.679 A 1.952 1.952 0 0 1 195.691 51.858 Q 196.11 52.819 195.743 54.624 A 13.313 13.313 0 0 1 195.551 55.429 A 8.235 8.235 0 0 1 195.136 56.558 A 9.915 9.915 0 0 1 194.201 58.179 Q 193.251 59.529 192.451 60.529 Q 193.12 61.198 193.999 61.132 A 2.387 2.387 0 0 0 194.351 61.079 Q 195.451 60.829 196.451 59.929 A 8.103 8.103 0 0 0 197.138 59.23 A 9.496 9.496 0 0 0 198.201 57.729 Q 198.951 56.429 199.151 55.229 A 9.559 9.559 0 0 0 199.184 54.943 Q 199.264 54.131 199.191 53.404 A 5.341 5.341 0 0 0 197.801 50.229 A 5.114 5.114 0 0 0 196.187 49.065 Q 194.616 48.329 192.251 48.329 A 12.796 12.796 0 0 0 188.871 48.787 A 15.353 15.353 0 0 0 185.151 50.379 A 18.913 18.913 0 0 0 181.974 52.73 A 23.827 23.827 0 0 0 178.851 56.229 A 34.056 34.056 0 0 0 177.643 57.95 A 40.638 40.638 0 0 0 175.501 61.629 Q 173.951 64.629 173.001 67.729 Q 172.051 70.829 171.901 73.729 A 14.432 14.432 0 0 0 171.882 74.474 Q 171.882 75.239 171.967 75.956 A 10.068 10.068 0 0 0 172.751 78.879 A 7.65 7.65 0 0 0 173.937 80.758 A 8.729 8.729 0 0 0 176.051 82.529 A 8.067 8.067 0 0 0 177.525 83.225 Q 178.557 83.595 179.812 83.771 A 17.649 17.649 0 0 0 182.251 83.929 A 22.881 22.881 0 0 0 182.505 83.927 Q 184.284 83.908 185.842 83.61 A 13.572 13.572 0 0 0 189.301 82.479 Q 192.251 81.029 194.501 78.479 A 27.286 27.286 0 0 0 196.126 76.447 A 32.772 32.772 0 0 0 198.551 72.529 A 133.472 133.472 0 0 0 199.676 70.355 Z" id="4" vector-effect="non-scaling-stroke">
<animate id="an_r" attributeName="stroke-dasharray" begin="0s" dur="1.5s" values="0,183;183,0" fill="freeze" />
<animate id="project_anim1" attributeName="fill" from="#fff" to="#000" begin="1s" dur="1s" fill="freeze" repeatCount="1"></animate>
</path>

<path fill='none' d="M 235.549 66.966 A 105.522 105.522 0 0 0 236.451 65.129 Q 236.87 64.232 236.788 63.764 A 0.546 0.546 0 0 0 236.451 63.329 Q 235.871 63.08 235.291 63.93 A 4.46 4.46 0 0 0 235.051 64.329 Q 234.251 65.929 232.751 68.779 Q 231.251 71.629 229.401 74.429 Q 227.551 77.229 225.651 79.229 Q 223.842 81.133 222.304 81.133 A 2.453 2.453 0 0 1 222.151 81.129 Q 220.145 81.129 220.966 76.141 A 30.017 30.017 0 0 1 221.151 75.129 A 21.294 21.294 0 0 1 221.311 74.451 Q 221.825 72.41 222.851 69.929 Q 224.051 67.029 225.501 64.279 Q 226.951 61.529 228.301 59.379 A 41.138 41.138 0 0 1 228.932 58.402 Q 229.848 57.032 230.451 56.429 A 5.402 5.402 0 0 1 229.483 56.518 A 5.086 5.086 0 0 1 228.301 56.379 A 17.082 17.082 0 0 0 228.023 56.315 A 15.299 15.299 0 0 0 226.251 56.029 Q 225.781 55.989 225.35 56.023 A 3.877 3.877 0 0 0 222.501 57.529 A 14.947 14.947 0 0 0 222.377 57.687 Q 221.501 58.822 220.48 60.575 A 54.499 54.499 0 0 0 219.451 62.429 Q 217.451 66.129 215.301 69.679 Q 213.151 73.229 210.551 76.429 Q 209.595 77.544 208.639 78.392 A 13.575 13.575 0 0 1 206.951 79.679 Q 205.826 80.397 204.877 80.667 A 3.944 3.944 0 0 1 203.801 80.829 A 2.996 2.996 0 0 1 203.744 80.828 Q 202.916 80.812 202.318 80.336 A 2.765 2.765 0 0 1 201.701 79.629 A 2.649 2.649 0 0 1 201.468 79.15 Q 201.106 78.18 201.256 76.588 A 13.057 13.057 0 0 1 201.351 75.829 Q 201.551 74.429 202.101 72.879 Q 202.651 71.329 203.301 69.879 Q 203.647 69.108 203.978 68.437 A 30.398 30.398 0 0 1 204.551 67.329 Q 205.151 66.229 205.451 65.729 Q 208.151 61.229 211.751 57.279 A 42.634 42.634 0 0 1 213.028 55.936 Q 215.957 52.99 218.751 51.429 A 11.823 11.823 0 0 1 218.866 51.368 Q 221.602 49.941 224.001 50.529 A 4.08 4.08 0 0 1 226.6 52.41 A 6.033 6.033 0 0 1 227.251 53.929 Q 228.147 54.067 228.639 53.634 A 1.455 1.455 0 0 0 229.001 53.129 Q 229.362 52.328 228.729 51.464 A 3.766 3.766 0 0 0 228.351 51.029 Q 226.251 48.729 223.201 48.129 A 13.702 13.702 0 0 0 220.55 47.872 Q 220.312 47.872 220.073 47.88 A 15.424 15.424 0 0 0 216.901 48.329 A 21.091 21.091 0 0 0 214.88 48.936 A 24.109 24.109 0 0 0 210.501 51.029 A 22.902 22.902 0 0 0 210.305 51.148 A 20.391 20.391 0 0 0 205.151 55.629 Q 201.351 60.129 199.401 64.479 A 42.172 42.172 0 0 0 199.027 65.338 Q 198.248 67.186 197.739 68.903 A 24.117 24.117 0 0 0 196.951 72.479 Q 196.639 74.76 196.815 76.67 A 12.25 12.25 0 0 0 197.201 78.829 A 11.213 11.213 0 0 0 197.392 79.447 Q 197.698 80.343 198.123 81.057 A 5.751 5.751 0 0 0 199.651 82.779 Q 201.351 84.029 203.801 83.529 Q 205.524 83.177 207.469 81.689 A 19.504 19.504 0 0 0 209.151 80.229 A 30.977 30.977 0 0 0 209.832 79.559 A 34.177 34.177 0 0 0 213.251 75.479 A 100.906 100.906 0 0 0 214.104 74.272 Q 215.433 72.36 216.351 70.829 A 33.787 33.787 0 0 0 215.892 72.638 Q 215.288 75.346 215.401 77.279 A 13.608 13.608 0 0 0 215.532 78.545 Q 215.65 79.31 215.853 79.949 A 5.915 5.915 0 0 0 216.451 81.279 A 5.889 5.889 0 0 0 216.885 81.89 A 4.509 4.509 0 0 0 218.751 83.279 Q 220.151 83.829 221.351 83.729 Q 223.551 83.529 225.801 81.479 A 25.388 25.388 0 0 0 227.722 79.522 A 31.62 31.62 0 0 0 230.051 76.529 Q 232.051 73.629 233.701 70.529 A 197.153 197.153 0 0 0 234.679 68.669 Q 235.141 67.779 235.549 66.966 Z" id="5" vector-effect="non-scaling-stroke">
<animate id="an_r" attributeName="stroke-dasharray" begin="0s" dur="1.5s" values="0,183;183,0" fill="freeze" />
<animate id="project_anim1" attributeName="fill" from="#fff" to="#000" begin="1s" dur="1s" fill="freeze" repeatCount="1"></animate>
</path>

<path fill='none' d="M 256.151 69.129 Q 255.451 70.529 254.701 72.579 A 21.925 21.925 0 0 0 253.883 75.35 A 18.889 18.889 0 0 0 253.651 76.579 A 10.514 10.514 0 0 0 253.551 77.474 Q 253.491 78.367 253.612 79.127 A 5.369 5.369 0 0 0 253.801 79.929 A 1.881 1.881 0 0 0 254.462 80.892 Q 254.809 81.151 255.304 81.257 A 3.598 3.598 0 0 0 256.051 81.329 A 3.974 3.974 0 0 0 257.743 80.927 Q 258.356 80.64 258.984 80.149 A 10.295 10.295 0 0 0 260.001 79.229 A 28.965 28.965 0 0 0 262.584 76.171 A 35.106 35.106 0 0 0 263.851 74.329 Q 265.651 71.529 267.101 68.679 Q 268.551 65.829 269.351 64.229 A 3.828 3.828 0 0 1 269.555 63.842 Q 270.039 63.048 270.612 63.243 A 0.877 0.877 0 0 1 270.701 63.279 A 0.634 0.634 0 0 1 271.076 63.776 Q 271.146 64.19 270.857 64.888 A 5.834 5.834 0 0 1 270.751 65.129 Q 269.995 66.71 268.979 68.717 A 294.862 294.862 0 0 1 268.001 70.629 Q 266.351 73.829 264.251 76.779 A 28.363 28.363 0 0 1 261.212 80.396 A 24.399 24.399 0 0 1 259.651 81.829 Q 257.151 83.929 254.251 83.929 A 4.592 4.592 0 0 1 252.298 83.483 A 5.612 5.612 0 0 1 251.901 83.279 A 5.61 5.61 0 0 1 250.822 82.473 Q 250.267 81.951 249.751 81.229 A 6.642 6.642 0 0 1 249.281 80.289 Q 248.795 79.116 248.451 77.329 A 9.699 9.699 0 0 1 248.274 75.677 Q 248.243 73.984 248.851 72.429 Q 249.883 70.28 250.692 68.538 A 233.852 233.852 0 0 0 250.951 67.979 A 134.893 134.893 0 0 1 252.526 64.681 A 122.272 122.272 0 0 1 252.751 64.229 A 197.427 197.427 0 0 1 254.403 61.002 A 217.387 217.387 0 0 1 254.651 60.529 A 339.918 339.918 0 0 1 255.655 58.638 Q 256.261 57.504 256.951 56.229 Q 258.851 52.629 260.251 51.229 A 4.373 4.373 0 0 1 262.64 50.014 Q 263.157 49.922 263.736 49.922 A 7.58 7.58 0 0 1 264.051 49.929 A 15.299 15.299 0 0 1 265.823 50.215 A 17.082 17.082 0 0 1 266.101 50.279 A 5.086 5.086 0 0 0 267.283 50.418 A 5.402 5.402 0 0 0 268.251 50.329 A 4.409 4.409 0 0 0 267.597 50.777 Q 266.715 51.491 265.601 52.929 Q 264.051 54.929 262.401 57.629 Q 260.751 60.329 259.101 63.379 Q 257.451 66.429 256.151 69.129 Z M 237.451 71.229 A 39.272 39.272 0 0 0 237.538 71.054 Q 237.915 70.292 238.451 69.129 Q 239.751 66.429 241.401 63.379 Q 243.051 60.329 244.701 57.629 Q 246.351 54.929 247.901 52.929 Q 249.015 51.491 249.897 50.777 A 4.409 4.409 0 0 1 250.551 50.329 A 5.402 5.402 0 0 1 249.583 50.418 A 5.086 5.086 0 0 1 248.401 50.279 A 17.082 17.082 0 0 0 248.123 50.215 A 15.299 15.299 0 0 0 246.351 49.929 A 7.58 7.58 0 0 0 246.036 49.922 Q 245.457 49.922 244.94 50.014 A 4.373 4.373 0 0 0 242.551 51.229 Q 241.501 52.279 240.17 54.566 A 46.019 46.019 0 0 0 239.251 56.229 Q 235.551 63.029 232.301 70.029 Q 229.051 77.029 225.451 84.229 A 4.412 4.412 0 0 1 225.501 84.198 Q 225.826 84.001 226.143 83.886 A 2.518 2.518 0 0 1 227.001 83.729 A 13.905 13.905 0 0 0 227.508 83.719 Q 227.778 83.709 228.083 83.689 A 29.816 29.816 0 0 0 228.851 83.629 A 22.494 22.494 0 0 0 229.368 83.623 Q 230.586 83.595 231.251 83.429 A 1.628 1.628 0 0 0 231.853 83.129 Q 232.086 82.95 232.298 82.676 A 4.092 4.092 0 0 0 232.651 82.129 A 854.09 854.09 0 0 1 233.363 80.488 Q 234.103 78.785 234.658 77.535 A 218.331 218.331 0 0 1 235.151 76.429 A 227.563 227.563 0 0 0 235.551 75.535 Q 236.169 74.147 236.551 73.229 Q 236.864 72.479 237.137 71.885 A 22.786 22.786 0 0 1 237.451 71.229 Z M 253.422 65.595 A 8.092 8.092 0 0 0 254.451 63.629 Q 254.651 63.429 254.051 63.429 A 2.967 2.967 0 0 0 253.84 63.436 Q 253.578 63.455 253.415 63.523 A 0.51 0.51 0 0 0 253.251 63.629 A 6.23 6.23 0 0 1 252.98 64.073 A 5.176 5.176 0 0 1 252.051 65.129 A 1.798 1.798 0 0 1 251.35 65.499 Q 250.831 65.642 250.151 65.529 A 9.1 9.1 0 0 1 249.199 65.365 A 10.123 10.123 0 0 1 246.801 64.479 Q 245.151 63.629 243.251 63.529 Q 241.251 63.329 239.801 64.829 A 16.009 16.009 0 0 0 238.585 66.235 A 11.732 11.732 0 0 0 237.551 67.829 A 0.39 0.39 0 0 0 237.536 67.854 Q 237.401 68.094 237.895 68.124 A 2.558 2.558 0 0 0 238.051 68.129 A 4.168 4.168 0 0 0 238.214 68.126 Q 238.592 68.111 238.752 68.023 A 0.229 0.229 0 0 0 238.851 67.929 A 3.37 3.37 0 0 1 239.208 67.364 A 3.753 3.753 0 0 1 240.051 66.579 Q 240.851 66.029 241.851 66.129 Q 243.551 66.229 245.301 67.179 A 9.755 9.755 0 0 0 246.014 67.53 A 8.093 8.093 0 0 0 248.851 68.229 A 4.527 4.527 0 0 0 249.302 68.252 Q 250.31 68.252 251.184 67.78 A 4.808 4.808 0 0 0 252.351 66.879 A 10.762 10.762 0 0 0 253.422 65.595 Z" id="6" vector-effect="non-scaling-stroke">
<animate id="an_r" attributeName="stroke-dasharray" begin="0s" dur="1.5s" values="0,183;183,0" fill="freeze" />
<animate id="project_anim1" attributeName="fill" from="#fff" to="#000" begin="1s" dur="1s" fill="freeze" repeatCount="1"></animate>
</path>

<path fill='none' d="M 309.651 65.129 Q 307.751 69.029 306.151 72.129 A 44.438 44.438 0 0 1 304.409 75.211 A 34.179 34.179 0 0 1 302.801 77.579 A 27.488 27.488 0 0 1 300.277 80.526 A 23.823 23.823 0 0 1 299.051 81.679 A 18.44 18.44 0 0 1 296.239 83.69 A 23.248 23.248 0 0 1 294.251 84.729 Q 292.578 89.355 289.499 94.612 A 83.357 83.357 0 0 1 289.401 94.779 Q 286.251 100.129 282.001 104.629 Q 277.751 109.129 272.651 112.129 A 21.849 21.849 0 0 1 266.572 114.614 A 19.224 19.224 0 0 1 262.151 115.129 A 16.757 16.757 0 0 1 258.662 114.799 Q 252.751 113.535 252.751 107.429 Q 252.751 103.729 255.301 100.879 A 24.591 24.591 0 0 1 260.138 96.743 A 28.512 28.512 0 0 1 261.451 95.929 A 66.107 66.107 0 0 1 265.998 93.452 A 54.992 54.992 0 0 1 268.651 92.229 A 122.499 122.499 0 0 1 274.662 89.833 A 110.633 110.633 0 0 1 275.501 89.529 Q 278.851 88.329 282.001 87.329 Q 285.151 86.329 288.051 85.129 Q 288.951 82.529 289.501 79.779 A 58.618 58.618 0 0 0 290.262 74.868 A 65.406 65.406 0 0 0 290.351 74.029 A 62.783 62.783 0 0 0 290.556 71.616 Q 290.651 70.144 290.651 68.879 Q 290.651 66.868 290.492 66.016 A 3.208 3.208 0 0 0 290.451 65.829 Q 289.636 67.392 288.427 69.44 A 147.194 147.194 0 0 1 287.201 71.479 Q 285.151 74.829 282.601 77.729 A 24.595 24.595 0 0 1 279.622 80.612 A 19.978 19.978 0 0 1 277.151 82.329 A 8.356 8.356 0 0 1 275.185 83.179 Q 273.256 83.721 271.284 83.138 A 7.955 7.955 0 0 1 271.251 83.129 A 10.332 10.332 0 0 1 269.064 81.901 A 6.834 6.834 0 0 1 266.501 78.279 Q 265.698 75.529 266.218 72.278 A 18.731 18.731 0 0 1 266.451 71.079 A 28.757 28.757 0 0 1 268.104 66.083 A 35.905 35.905 0 0 1 269.601 63.029 A 45.444 45.444 0 0 1 273.579 56.948 A 40.703 40.703 0 0 1 274.651 55.629 Q 276.851 52.929 279.701 51.079 A 19.431 19.431 0 0 1 284.689 48.74 A 18.082 18.082 0 0 1 285.651 48.479 A 15.232 15.232 0 0 1 289.245 48.046 A 15.418 15.418 0 0 1 291.901 48.279 A 12.76 12.76 0 0 1 296.61 50.145 A 15.692 15.692 0 0 1 297.851 51.029 Q 299.151 52.129 299.301 53.129 Q 299.451 54.129 299.001 54.679 A 1.343 1.343 0 0 1 298.662 54.98 Q 298.321 55.188 297.878 55.132 A 1.622 1.622 0 0 1 297.851 55.129 Q 297.169 55.031 296.771 53.983 A 4.277 4.277 0 0 1 296.751 53.929 Q 296.15 52.305 295.278 51.405 A 3.674 3.674 0 0 0 294.001 50.529 Q 292.626 49.979 290.973 50.324 A 7.806 7.806 0 0 0 290.051 50.579 Q 287.851 51.329 285.401 53.229 Q 282.951 55.129 280.651 57.629 Q 277.951 60.729 275.651 64.329 Q 273.351 67.929 272.101 71.179 A 21.652 21.652 0 0 0 271.372 73.407 Q 270.899 75.194 270.899 76.689 A 9.294 9.294 0 0 0 270.901 76.879 A 4.682 4.682 0 0 0 271.103 78.197 A 3.223 3.223 0 0 0 272.951 80.229 A 3.779 3.779 0 0 0 274.396 80.513 Q 275.682 80.513 277.13 79.676 A 9.918 9.918 0 0 0 277.901 79.179 A 22.428 22.428 0 0 0 280.767 76.74 A 30.548 30.548 0 0 0 283.201 73.979 Q 285.751 70.729 287.751 67.129 A 50.269 50.269 0 0 0 288.874 64.996 Q 289.97 62.779 290.451 61.129 A 8.905 8.905 0 0 1 290.756 60.252 Q 291.139 59.323 291.65 58.822 A 2.476 2.476 0 0 1 291.751 58.729 Q 292.551 58.029 293.451 57.829 A 8.274 8.274 0 0 1 294.827 57.638 A 7.374 7.374 0 0 1 295.201 57.629 A 2.403 2.403 0 0 0 295.983 57.506 A 2.093 2.093 0 0 0 296.651 57.129 A 54.476 54.476 0 0 1 297.392 66.1 A 55.936 55.936 0 0 1 297.301 69.279 Q 296.951 75.429 295.351 81.429 Q 297.151 80.129 299.001 78.529 Q 300.851 76.929 302.351 74.929 Q 304.588 71.977 305.824 69.305 A 21.068 21.068 0 0 0 306.101 68.679 Q 307.351 65.729 308.151 64.329 A 4.207 4.207 0 0 1 308.4 63.92 Q 308.971 63.1 309.574 63.318 A 0.871 0.871 0 0 1 309.601 63.329 Q 310.351 63.629 309.651 65.129 Z M 287.051 88.029 Q 286.251 88.329 285.351 88.629 L 283.551 89.229 Q 278.051 91.129 272.201 93.379 Q 266.351 95.629 261.551 98.829 Q 259.151 100.429 257.401 102.879 A 17.72 17.72 0 0 0 256.178 104.836 Q 255.615 105.891 255.291 106.906 A 10.066 10.066 0 0 0 255.101 107.579 Q 254.912 108.352 254.912 109.055 A 4.42 4.42 0 0 0 255.601 111.479 A 3.136 3.136 0 0 0 257.068 112.677 Q 258.129 113.129 259.751 113.129 A 10.73 10.73 0 0 0 261.617 112.957 A 14.285 14.285 0 0 0 263.201 112.579 Q 265.051 112.029 266.751 111.229 A 36.662 36.662 0 0 0 269.478 109.808 A 32.971 32.971 0 0 0 269.951 109.529 Q 271.451 108.629 272.351 107.929 A 40.493 40.493 0 0 0 275.222 105.304 A 50.037 50.037 0 0 0 276.951 103.479 Q 279.251 100.929 281.351 98.129 Q 285.051 92.929 287.051 88.029 Z" id="7" vector-effect="non-scaling-stroke">
<animate id="an_r" attributeName="stroke-dasharray" begin="0s" dur="1.5s" values="0,183;183,0" fill="freeze" />
<animate id="project_anim1" attributeName="fill" from="#fff" to="#000" begin="1s" dur="1s" fill="freeze" repeatCount="1"></animate>
</path>

<path fill='none' d="M 308.351 82.129 L 298.951 105.429 Q 297.451 108.629 296.101 109.729 A 3.901 3.901 0 0 1 294.655 110.455 Q 293.628 110.739 292.251 110.629 A 11.426 11.426 0 0 1 290.593 110.334 A 13.01 13.01 0 0 1 290.201 110.229 Q 289.151 109.929 288.051 110.129 A 3.827 3.827 0 0 0 288.353 109.775 Q 289.01 108.928 290.351 106.679 A 116.374 116.374 0 0 0 291.697 104.358 Q 292.287 103.315 292.925 102.146 A 229.118 229.118 0 0 0 294.251 99.679 Q 296.451 95.529 298.951 90.629 A 252.642 252.642 0 0 0 303.058 82.207 A 229.977 229.977 0 0 0 303.601 81.029 Q 305.751 76.329 307.301 72.379 Q 308.851 68.429 309.351 66.129 A 5.619 5.619 0 0 1 308.832 66.848 Q 308.239 67.538 307.551 67.779 Q 306.551 68.129 307.051 67.029 Q 307.358 66.416 307.781 65.452 A 76.061 76.061 0 0 0 308.051 64.829 Q 308.621 63.498 309.011 62.62 A 99.174 99.174 0 0 1 309.051 62.529 Q 309.751 60.929 310.301 58.829 A 24.709 24.709 0 0 0 310.833 56.282 A 20.335 20.335 0 0 0 311.001 54.829 Q 311.151 52.929 310.851 51.579 A 3.52 3.52 0 0 0 310.671 50.992 Q 310.333 50.18 309.651 50.029 Q 310.751 49.829 311.751 49.629 Q 312.551 49.429 313.401 49.379 A 13.933 13.933 0 0 0 313.77 49.353 Q 314.322 49.305 314.551 49.229 Q 315.535 49.139 316.199 49.09 A 50.337 50.337 0 0 1 316.351 49.079 A 2.773 2.773 0 0 1 316.51 49.072 Q 316.995 49.065 317.321 49.244 A 1.112 1.112 0 0 1 317.451 49.329 Q 317.851 49.629 318.001 50.579 A 9.401 9.401 0 0 1 318.077 51.218 Q 318.151 52.063 318.151 53.329 A 12.457 12.457 0 0 1 318.077 54.638 Q 317.969 55.662 317.701 56.879 Q 317.251 58.929 316.651 61.129 Q 316.051 63.329 315.351 65.429 A 132.768 132.768 0 0 1 314.758 67.171 Q 314.389 68.229 314.051 69.129 A 65.14 65.14 0 0 1 315.289 67.612 Q 315.851 66.942 316.492 66.209 A 128.826 128.826 0 0 1 317.851 64.679 A 57.251 57.251 0 0 1 320.726 61.706 A 47.862 47.862 0 0 1 322.451 60.129 Q 323.829 58.904 325.706 57.532 A 67.613 67.613 0 0 1 326.901 56.679 Q 329.551 54.829 332.251 53.379 Q 334.951 51.929 337.301 51.129 Q 339.303 50.447 340.542 50.636 A 2.85 2.85 0 0 1 340.951 50.729 A 353.674 353.674 0 0 0 337.397 57.283 A 296.942 296.942 0 0 0 335.451 61.029 Q 334.351 63.129 333.301 65.329 Q 332.251 67.529 331.351 69.579 Q 330.451 71.629 329.801 73.429 A 23.956 23.956 0 0 0 329.379 74.702 Q 329.2 75.303 329.082 75.834 A 11.016 11.016 0 0 0 328.951 76.529 A 21.763 21.763 0 0 0 328.796 77.423 Q 328.515 79.293 328.779 80.185 A 1.572 1.572 0 0 0 328.951 80.579 A 2.351 2.351 0 0 0 329.388 81.1 A 1.711 1.711 0 0 0 330.551 81.529 A 4.002 4.002 0 0 0 332.19 81.155 Q 332.8 80.883 333.428 80.413 A 10.486 10.486 0 0 0 334.551 79.429 Q 336.651 77.329 338.551 74.479 Q 340.451 71.629 341.951 68.729 A 729.905 729.905 0 0 0 342.658 67.36 Q 343.651 65.429 344.251 64.229 A 3.828 3.828 0 0 1 344.455 63.842 Q 344.939 63.048 345.512 63.243 A 0.877 0.877 0 0 1 345.601 63.279 A 0.634 0.634 0 0 1 345.976 63.776 Q 346.046 64.19 345.757 64.888 A 5.834 5.834 0 0 1 345.651 65.129 Q 344.895 66.71 343.879 68.717 A 294.862 294.862 0 0 1 342.901 70.629 Q 341.251 73.829 339.151 76.779 A 28.363 28.363 0 0 1 336.112 80.396 A 24.399 24.399 0 0 1 334.551 81.829 Q 332.051 83.929 329.151 83.929 Q 327.851 83.929 326.451 83.429 Q 325.051 82.929 324.101 81.579 A 5.68 5.68 0 0 1 323.38 80.129 Q 323.159 79.479 323.039 78.706 A 11.258 11.258 0 0 1 322.951 77.979 Q 322.751 75.729 323.851 72.229 Q 324.318 70.674 325.268 68.787 A 35.043 35.043 0 0 1 325.851 67.679 A 101.214 101.214 0 0 1 327 65.647 Q 327.519 64.75 328.107 63.771 A 188.138 188.138 0 0 1 329.351 61.729 A 10.364 10.364 0 0 0 329.836 60.83 Q 330.052 60.372 330.18 59.959 A 4.073 4.073 0 0 0 330.351 59.129 Q 330.451 58.029 329.601 57.829 Q 328.891 57.662 327.519 58.332 A 12.121 12.121 0 0 0 326.951 58.629 A 12.618 12.618 0 0 0 325.852 59.326 Q 324.336 60.388 322.251 62.329 Q 321.134 63.36 319.758 64.687 A 231.261 231.261 0 0 0 319.301 65.129 A 31.862 31.862 0 0 0 317.819 66.672 Q 316.842 67.757 315.801 69.079 Q 313.98 71.392 312.111 74.529 A 70.579 70.579 0 0 0 312.051 74.629 A 50.927 50.927 0 0 0 310.205 78.045 Q 309.324 79.826 308.466 81.857 A 83.221 83.221 0 0 0 308.351 82.129 Z" id="8" vector-effect="non-scaling-stroke">
<animate id="an_r" attributeName="stroke-dasharray" begin="0s" dur="1.5s" values="0,183;183,0" fill="freeze" />
<animate id="project_anim1" attributeName="fill" from="#fff" to="#000" begin="1s" dur="1s" fill="freeze" repeatCount="1"></animate>
</path>

<path fill='none' d="M 464.36 15.527 A 33.82 33.82 0 0 0 460.651 13.029 Q 455.451 9.929 449.051 8.229 Q 450.351 6.929 451.551 5.979 A 44.332 44.332 0 0 1 451.604 5.937 Q 452.397 5.311 453.012 4.885 A 13.794 13.794 0 0 1 453.551 4.529 Q 455.351 3.429 455.151 2.729 Q 454.951 2.029 452.551 3.029 A 25.289 25.289 0 0 0 450.644 3.777 A 19.369 19.369 0 0 0 448.501 4.879 Q 446.751 5.929 445.051 7.229 Q 436.151 5.429 426.801 5.679 Q 417.451 5.929 409.051 7.129 Q 405.451 7.629 401.151 8.629 A 78.592 78.592 0 0 0 400.074 8.887 A 86.532 86.532 0 0 0 392.401 11.179 Q 387.951 12.729 383.751 14.879 A 41.819 41.819 0 0 0 383.165 15.185 A 37.502 37.502 0 0 0 376.201 19.929 A 28.847 28.847 0 0 0 375.787 20.294 A 25.562 25.562 0 0 0 370.751 26.429 A 16.434 16.434 0 0 0 369.532 29.01 A 18.122 18.122 0 0 0 368.451 34.529 Q 368.356 36.344 368.58 37.942 A 12.925 12.925 0 0 0 369.451 41.179 A 16.22 16.22 0 0 0 369.889 42.132 A 13.701 13.701 0 0 0 372.701 45.979 Q 374.751 47.929 377.501 48.929 Q 380.251 49.929 383.251 50.029 Q 383.796 50.048 384.343 50.031 A 18.132 18.132 0 0 0 389.101 49.229 Q 392.051 48.329 394.451 46.529 Q 396.851 44.729 398.351 42.079 A 11.161 11.161 0 0 0 399.403 39.523 A 13.159 13.159 0 0 0 399.851 36.029 A 3.638 3.638 0 0 0 399.848 35.877 Q 399.809 34.925 399.251 34.879 A 0.619 0.619 0 0 0 399.2 34.877 Q 398.751 34.877 398.54 35.558 A 3.169 3.169 0 0 0 398.451 35.929 Q 397.551 38.429 396.001 40.679 Q 394.451 42.929 392.451 44.579 Q 390.451 46.229 388.151 47.179 Q 385.851 48.129 383.451 48.029 Q 381.151 47.929 379.201 46.929 Q 377.251 45.929 375.901 44.229 Q 374.551 42.529 373.901 40.229 A 10.841 10.841 0 0 1 373.499 37.266 Q 373.499 37.207 373.5 37.148 A 12.799 12.799 0 0 1 373.651 35.329 Q 374.551 29.729 378.501 25.479 Q 382.451 21.229 387.751 18.179 Q 393.051 15.129 398.901 13.229 Q 404.751 11.329 409.451 10.429 A 57.128 57.128 0 0 1 409.867 10.35 Q 411.334 10.077 412.985 9.848 A 95.336 95.336 0 0 1 416.501 9.429 Q 420.451 9.029 424.751 8.879 A 106.774 106.774 0 0 1 428.474 8.814 A 114.36 114.36 0 0 1 433.551 8.929 Q 438.051 9.129 442.351 9.729 Q 440.951 11.029 439.701 12.429 A 161.049 161.049 0 0 1 439.067 13.135 A 184.289 184.289 0 0 1 437.051 15.329 Q 430.651 22.529 425.801 30.729 Q 420.951 38.929 416.701 46.929 Q 412.451 54.929 408.351 62.029 A 64.315 64.315 0 0 1 404.611 67.801 A 49.008 49.008 0 0 1 399.351 73.929 Q 394.251 78.829 388.651 81.729 Q 383.051 84.629 376.351 84.329 A 15.549 15.549 0 0 1 374.962 84.189 Q 373.861 84.026 372.945 83.707 A 7.228 7.228 0 0 1 370.901 82.629 A 8.824 8.824 0 0 1 370.163 81.995 A 6.91 6.91 0 0 1 368.301 79.029 Q 367.651 76.929 368.301 74.729 Q 368.951 72.529 370.801 71.029 A 7.378 7.378 0 0 1 371.011 70.865 Q 372.039 70.091 373.386 69.635 A 11.892 11.892 0 0 1 375.601 69.129 Q 377.642 68.852 380.184 69.484 A 21.618 21.618 0 0 1 382.551 70.229 A 5.247 5.247 0 0 0 382.729 70.294 Q 383.369 70.514 383.739 70.436 A 0.565 0.565 0 0 0 384.151 70.129 A 0.513 0.513 0 0 0 384.161 70.108 Q 384.424 69.518 382.851 68.929 A 38.239 38.239 0 0 0 381.495 68.504 Q 377.696 67.393 374.582 67.393 A 15.961 15.961 0 0 0 372.901 67.479 A 22.956 22.956 0 0 0 371.962 67.597 Q 370.321 67.84 368.931 68.302 A 12.369 12.369 0 0 0 365.951 69.729 A 11.355 11.355 0 0 0 365.073 70.376 A 8.908 8.908 0 0 0 362.251 74.279 A 9.743 9.743 0 0 0 362.095 74.745 Q 361.711 75.994 361.711 77.222 A 7.999 7.999 0 0 0 362.101 79.679 A 7.4 7.4 0 0 0 362.38 80.41 Q 363.357 82.623 365.851 84.429 A 11.511 11.511 0 0 0 367.626 85.477 Q 368.957 86.116 370.605 86.539 A 24.645 24.645 0 0 0 373.851 87.129 A 35.8 35.8 0 0 0 378.241 87.403 A 33.06 33.06 0 0 0 389.401 85.479 Q 396.851 82.829 403.251 76.829 Q 407.551 72.629 411.251 68.079 Q 414.951 63.529 418.251 58.629 A 33.521 33.521 0 0 0 419.29 58.69 Q 421.952 58.807 425.433 58.572 A 94.993 94.993 0 0 0 428.351 58.329 Q 434.451 57.729 440.651 56.229 A 41.528 41.528 0 0 0 444.996 54.901 A 51.691 51.691 0 0 0 450.751 52.379 Q 455.951 49.729 460.251 46.229 A 42.069 42.069 0 0 0 461.305 45.342 A 37.244 37.244 0 0 0 467.501 38.479 A 23.655 23.655 0 0 0 469.252 35.539 A 18.318 18.318 0 0 0 471.051 29.829 A 13.217 13.217 0 0 0 471.173 28.041 Q 471.173 24.544 469.301 21.079 Q 467.722 18.156 464.36 15.527 Z M 458.351 15.129 Q 456.051 13.629 453.201 12.529 A 50.337 50.337 0 0 0 448.339 10.939 A 56.587 56.587 0 0 0 447.151 10.629 Q 443.351 16.029 439.951 21.779 Q 436.551 27.529 433.251 33.379 Q 429.951 39.229 426.601 45.079 Q 423.251 50.929 419.651 56.529 A 31.121 31.121 0 0 0 421.287 56.571 Q 424.42 56.571 428.051 55.979 A 77.933 77.933 0 0 0 436.254 54.169 A 86.806 86.806 0 0 0 437.451 53.829 Q 442.851 52.229 447.601 49.429 A 48.533 48.533 0 0 0 453.861 45.068 A 42.398 42.398 0 0 0 456.001 43.179 Q 459.651 39.729 461.951 35.929 Q 464.251 32.129 464.751 28.379 Q 465.251 24.629 463.751 21.179 Q 462.271 17.774 458.454 15.197 A 21.401 21.401 0 0 0 458.351 15.129 Z" id="10" vector-effect="non-scaling-stroke">
<animate id="an_r" attributeName="stroke-dasharray" begin="0s" dur="1.5s" values="0,183;183,0" fill="freeze" />
<animate id="project_anim1" attributeName="fill" from="#fff" to="#000" begin="1s" dur="1s" fill="freeze" repeatCount="1"></animate>
</path>


<path fill='none' d="M 469.551 49.129 L 475.651 49.129 Q 474.951 49.729 473.901 50.429 Q 473.095 50.966 472.377 52.035 A 10.287 10.287 0 0 0 471.951 52.729 Q 469.351 57.129 467.201 61.529 Q 465.051 65.929 462.951 70.429 Q 461.195 74.234 460.962 76.802 A 9.275 9.275 0 0 0 460.951 76.929 A 11.996 11.996 0 0 0 460.922 77.449 Q 460.876 78.831 461.199 79.716 A 2.595 2.595 0 0 0 461.701 80.579 A 1.832 1.832 0 0 0 463.078 81.191 Q 463.725 81.205 464.551 80.879 Q 466.261 80.204 468.376 77.868 A 26.373 26.373 0 0 0 468.851 77.329 Q 470.919 74.966 473.083 71.732 A 75.178 75.178 0 0 0 473.151 71.629 Q 475.351 68.329 477.401 64.779 Q 479.451 61.229 481.301 57.729 Q 483.151 54.229 484.551 51.229 A 4.528 4.528 0 0 1 485.039 50.449 Q 485.5 49.863 486.101 49.579 Q 487.051 49.129 488.451 49.129 L 493.851 49.129 Q 492.451 50.129 491.401 51.379 A 17.576 17.576 0 0 0 490.028 53.263 A 21.025 21.025 0 0 0 489.451 54.229 Q 488.551 55.829 487.751 57.879 Q 486.951 59.929 486.051 62.429 Q 484.151 67.529 482.201 73.429 Q 480.251 79.329 478.051 85.329 Q 479.651 84.829 481.601 84.029 A 24.708 24.708 0 0 0 485.095 82.25 A 27.386 27.386 0 0 0 485.451 82.029 A 25.55 25.55 0 0 0 488.473 79.782 A 29.092 29.092 0 0 0 489.151 79.179 A 23.873 23.873 0 0 0 492.357 75.56 A 26.235 26.235 0 0 0 492.451 75.429 A 71.615 71.615 0 0 0 494.817 71.699 A 56.069 56.069 0 0 0 496.351 68.929 A 286.712 286.712 0 0 1 497.101 67.485 Q 498.099 65.579 498.69 64.536 A 37.282 37.282 0 0 1 498.751 64.429 A 4.325 4.325 0 0 1 498.984 64.042 Q 499.543 63.223 500.103 63.456 A 0.791 0.791 0 0 1 500.151 63.479 A 0.608 0.608 0 0 1 500.491 63.966 Q 500.55 64.369 500.275 65.045 A 6.036 6.036 0 0 1 500.151 65.329 Q 497.551 70.529 495.551 74.079 A 32.99 32.99 0 0 1 493.159 77.756 A 26.668 26.668 0 0 1 491.101 80.179 Q 488.651 82.729 485.201 84.679 A 39.43 39.43 0 0 1 482.34 86.134 Q 479.726 87.341 476.351 88.529 Q 473.951 92.729 470.901 97.429 Q 467.851 102.129 464.051 106.079 Q 460.251 110.029 455.551 112.579 Q 450.851 115.129 445.351 115.129 A 21.186 21.186 0 0 1 443.142 115.021 Q 442.089 114.911 441.212 114.686 A 8.159 8.159 0 0 1 439.451 114.029 Q 437.351 112.929 436.501 111.129 Q 435.658 109.343 435.947 107.214 A 8.62 8.62 0 0 1 435.951 107.179 Q 436.251 105.029 437.351 102.929 Q 438.751 100.129 441.301 98.129 Q 443.851 96.129 446.751 94.729 A 53.021 53.021 0 0 1 452.945 92.299 A 69.311 69.311 0 0 1 458.401 90.779 Q 464.951 89.229 471.051 87.529 Q 472.451 85.029 473.751 81.929 Q 475.051 78.829 476.151 75.729 Q 477.251 72.629 478.151 69.829 A 358.199 358.199 0 0 0 478.784 67.841 Q 479.276 66.279 479.651 65.029 A 1002.936 1002.936 0 0 1 478.606 66.873 Q 478.141 67.692 477.628 68.593 A 1862.406 1862.406 0 0 1 476.551 70.479 Q 474.751 73.629 472.501 76.479 Q 470.251 79.329 467.601 81.379 A 10.485 10.485 0 0 1 465.235 82.78 A 8.183 8.183 0 0 1 462.051 83.429 A 9.905 9.905 0 0 1 461.159 83.386 A 13.062 13.062 0 0 1 460.301 83.279 A 5.526 5.526 0 0 1 458.621 82.719 A 6.311 6.311 0 0 1 458.451 82.629 A 5.517 5.517 0 0 1 457.285 81.752 A 6.815 6.815 0 0 1 456.801 81.229 A 4.619 4.619 0 0 1 456.085 80.021 A 6.365 6.365 0 0 1 455.751 78.929 A 10.261 10.261 0 0 1 455.572 77.16 Q 455.564 76.485 455.651 75.829 Q 455.851 74.329 456.401 72.879 Q 456.951 71.429 457.701 70.079 Q 458.451 68.729 459.151 67.329 Q 458.651 67.329 458.201 67.029 Q 457.751 66.729 458.251 65.729 Q 458.751 64.929 459.151 64.029 Q 459.551 63.129 460.051 62.229 L 463.051 56.429 A 230.849 230.849 0 0 0 464.287 54.006 Q 464.846 52.893 465.334 51.887 A 135.127 135.127 0 0 0 465.651 51.229 A 4.528 4.528 0 0 1 466.139 50.449 Q 466.6 49.863 467.201 49.579 Q 468.151 49.129 469.551 49.129 Z M 469.251 90.729 Q 466.851 91.329 464.101 92.029 Q 461.351 92.729 458.551 93.529 A 151.769 151.769 0 0 0 453.804 94.967 A 138.091 138.091 0 0 0 453.151 95.179 Q 450.551 96.029 448.451 96.929 A 21.145 21.145 0 0 0 444.38 99.3 A 17.896 17.896 0 0 0 442.101 101.329 A 19.145 19.145 0 0 0 440.428 103.347 Q 439.606 104.499 439.098 105.642 A 10.301 10.301 0 0 0 438.701 106.679 Q 437.851 109.329 438.851 111.229 A 3.215 3.215 0 0 0 440.603 112.739 Q 441.601 113.129 443.051 113.129 A 11.82 11.82 0 0 0 446.987 112.425 A 16.525 16.525 0 0 0 449.851 111.079 A 41.557 41.557 0 0 0 455.785 106.84 A 46.633 46.633 0 0 0 456.601 106.129 Q 459.851 103.229 462.601 100.029 Q 465.351 96.829 467.051 94.429 Q 467.551 93.629 468.101 92.679 A 144.18 144.18 0 0 1 469.177 90.854 A 157.82 157.82 0 0 1 469.251 90.729 Z" id="11" vector-effect="non-scaling-stroke">
<animate id="an_r" attributeName="stroke-dasharray" begin="0s" dur="1.5s" values="0,183;183,0" fill="freeze" />
<animate id="project_anim1" attributeName="fill" from="#fff" to="#000" begin="1s" dur="1s" fill="freeze" repeatCount="1"></animate>
</path>


<path fill='none' d="M 529.851 49.129 L 535.251 49.129 A 46.811 46.811 0 0 0 534.346 49.888 Q 533.801 50.357 533.351 50.779 A 10.858 10.858 0 0 0 532.467 51.717 A 13.882 13.882 0 0 0 531.801 52.579 Q 531.051 53.629 530.251 55.179 A 100.672 100.672 0 0 0 529.609 56.447 Q 529.039 57.591 528.351 59.029 Q 527.251 61.129 526.201 63.379 A 235.483 235.483 0 0 0 524.231 67.712 A 216.854 216.854 0 0 0 524.201 67.779 Q 523.251 69.929 522.551 71.779 A 23.804 23.804 0 0 0 522.129 72.986 Q 521.783 74.076 521.651 74.929 A 17.939 17.939 0 0 0 521.459 75.938 Q 521.076 78.344 521.701 79.429 A 4.187 4.187 0 0 0 522.191 80.119 Q 522.787 80.79 523.551 80.929 A 3.84 3.84 0 0 0 524.122 80.972 Q 525.83 80.972 527.501 79.429 A 17.836 17.836 0 0 0 529.289 77.498 Q 530.292 76.252 531.251 74.679 A 55.396 55.396 0 0 0 533.336 70.929 A 69.121 69.121 0 0 0 534.701 68.079 A 544.919 544.919 0 0 0 537.474 61.844 A 495.654 495.654 0 0 0 537.851 60.979 A 150.736 150.736 0 0 1 539.292 57.764 Q 540.016 56.2 540.701 54.829 Q 542.051 52.129 543.251 51.029 A 7.686 7.686 0 0 1 543.951 50.405 Q 544.345 50.098 544.739 49.887 A 4.568 4.568 0 0 1 544.851 49.829 A 5.2 5.2 0 0 1 545.771 49.478 Q 546.227 49.35 546.751 49.279 Q 547.697 49.15 548.9 49.132 A 26.63 26.63 0 0 1 549.301 49.129 L 552.951 49.129 A 0.965 0.965 0 0 1 553.026 49.131 Q 553.308 49.153 553.074 49.359 A 1.07 1.07 0 0 1 553.051 49.379 A 2.686 2.686 0 0 1 552.835 49.54 Q 552.602 49.697 552.265 49.871 A 9.442 9.442 0 0 1 552.151 49.929 Q 551.551 50.229 550.701 50.479 Q 550.09 50.659 549.607 50.709 A 3.43 3.43 0 0 1 549.251 50.729 A 12.245 12.245 0 0 0 548.857 50.721 Q 546.271 50.716 545.201 51.879 Q 544.429 52.719 543.543 54.032 A 35.927 35.927 0 0 0 542.651 55.429 A 27.496 27.496 0 0 0 541.819 56.987 Q 541.382 57.869 540.938 58.895 A 55.031 55.031 0 0 0 540.401 60.179 Q 539.251 63.029 537.901 66.179 Q 536.551 69.329 534.951 72.479 Q 533.351 75.629 531.451 78.079 A 19.497 19.497 0 0 1 529.203 80.534 A 15.885 15.885 0 0 1 527.301 82.029 A 8.149 8.149 0 0 1 522.687 83.435 A 9.071 9.071 0 0 1 522.351 83.429 A 6.428 6.428 0 0 1 520.479 83.048 A 5.654 5.654 0 0 1 519.351 82.479 Q 518.051 81.629 517.401 79.979 A 8.715 8.715 0 0 1 516.938 78.293 Q 516.798 77.501 516.763 76.595 A 16.005 16.005 0 0 1 516.751 75.979 A 13.335 13.335 0 0 1 516.943 73.798 Q 517.189 72.316 517.751 70.629 Q 518.451 68.429 519.451 65.929 Q 520.451 63.429 521.601 60.879 Q 522.751 58.329 523.901 55.829 Q 525.051 53.329 525.951 51.229 A 4.528 4.528 0 0 1 526.439 50.449 Q 526.9 49.863 527.501 49.579 Q 528.451 49.129 529.851 49.129 Z M 550.951 49.129 L 556.351 49.129 A 46.811 46.811 0 0 0 555.446 49.888 Q 554.901 50.357 554.451 50.779 A 10.858 10.858 0 0 0 553.567 51.717 A 13.882 13.882 0 0 0 552.901 52.579 Q 552.151 53.629 551.351 55.179 A 100.672 100.672 0 0 0 550.709 56.447 Q 550.139 57.591 549.451 59.029 Q 548.351 61.129 547.301 63.379 A 235.483 235.483 0 0 0 545.331 67.712 A 216.854 216.854 0 0 0 545.301 67.779 Q 544.351 69.929 543.651 71.779 A 23.804 23.804 0 0 0 543.229 72.986 Q 542.883 74.076 542.751 74.929 A 17.822 17.822 0 0 0 542.559 75.94 Q 542.232 77.998 542.639 79.119 A 2.479 2.479 0 0 0 542.801 79.479 A 4.075 4.075 0 0 0 543.248 80.135 Q 543.859 80.857 544.651 80.929 Q 546.451 80.929 548.301 79.329 A 18.765 18.765 0 0 0 550.225 77.389 A 25.332 25.332 0 0 0 551.851 75.279 A 48.803 48.803 0 0 0 554.118 71.674 A 57.685 57.685 0 0 0 555.101 69.879 A 190.115 190.115 0 0 0 557.114 65.941 A 161.938 161.938 0 0 0 557.951 64.229 A 3.828 3.828 0 0 1 558.155 63.842 Q 558.639 63.048 559.212 63.243 A 0.877 0.877 0 0 1 559.301 63.279 A 0.634 0.634 0 0 1 559.676 63.776 Q 559.746 64.19 559.457 64.888 A 5.834 5.834 0 0 1 559.351 65.129 Q 558.151 67.729 556.551 70.879 Q 554.951 74.029 552.951 76.829 A 24.545 24.545 0 0 1 550.295 79.977 A 20.66 20.66 0 0 1 548.551 81.529 A 9.278 9.278 0 0 1 546.315 82.86 A 7.484 7.484 0 0 1 543.451 83.429 A 5.764 5.764 0 0 1 541.677 83.163 A 5.06 5.06 0 0 1 540.451 82.579 Q 539.151 81.729 538.501 80.079 A 8.582 8.582 0 0 1 538.057 78.491 Q 537.916 77.726 537.871 76.849 A 16.317 16.317 0 0 1 537.851 76.029 Q 537.851 73.952 538.6 71.426 A 24.898 24.898 0 0 1 538.851 70.629 Q 539.551 68.429 540.551 65.929 Q 541.551 63.429 542.701 60.879 Q 543.851 58.329 545.001 55.829 Q 546.151 53.329 547.051 51.229 A 4.528 4.528 0 0 1 547.539 50.449 Q 548 49.863 548.601 49.579 Q 549.551 49.129 550.951 49.129 Z M 506.251 79.029 A 19.125 19.125 0 0 0 508.836 76.337 A 23.032 23.032 0 0 0 509.901 74.879 Q 511.551 72.429 513.001 69.629 Q 514.451 66.829 515.701 63.929 Q 516.951 61.029 518.051 58.479 Q 519.151 55.929 520.151 53.979 A 15.172 15.172 0 0 1 520.851 52.75 Q 521.529 51.685 522.251 51.029 A 7.686 7.686 0 0 1 522.951 50.405 Q 523.345 50.098 523.739 49.887 A 4.568 4.568 0 0 1 523.851 49.829 A 5.2 5.2 0 0 1 524.771 49.478 Q 525.227 49.35 525.751 49.279 Q 526.697 49.15 527.9 49.132 A 26.63 26.63 0 0 1 528.301 49.129 L 531.951 49.129 A 0.965 0.965 0 0 1 532.026 49.131 Q 532.308 49.153 532.074 49.359 A 1.07 1.07 0 0 1 532.051 49.379 A 2.686 2.686 0 0 1 531.835 49.54 Q 531.602 49.697 531.265 49.871 A 9.442 9.442 0 0 1 531.151 49.929 Q 530.551 50.229 529.701 50.479 Q 529.09 50.659 528.607 50.709 A 3.43 3.43 0 0 1 528.251 50.729 A 12.251 12.251 0 0 0 527.857 50.721 Q 526.325 50.718 525.309 51.124 A 3.244 3.244 0 0 0 524.151 51.879 Q 523.336 52.728 522.474 54.063 A 27.14 27.14 0 0 0 521.651 55.429 A 43.915 43.915 0 0 0 520.469 57.746 Q 519.928 58.882 519.361 60.202 A 100.552 100.552 0 0 0 518.201 63.029 Q 516.351 67.729 514.001 72.279 A 41.442 41.442 0 0 1 511.168 77.002 A 33.293 33.293 0 0 1 508.701 80.129 Q 505.751 83.429 501.851 83.429 A 11.899 11.899 0 0 1 498.582 82.99 A 10.774 10.774 0 0 1 497.401 82.579 Q 495.351 81.729 494.051 79.329 Q 492.251 76.029 493.001 74.029 Q 493.751 72.029 495.151 71.479 Q 496.365 71.002 497.278 71.727 A 2.686 2.686 0 0 1 497.551 71.979 A 1.544 1.544 0 0 1 497.943 72.757 Q 498.165 73.861 497.251 75.829 A 2.454 2.454 0 0 0 496.985 76.94 Q 496.985 77.229 497.051 77.529 Q 497.251 78.429 497.801 79.179 Q 498.351 79.929 499.201 80.379 Q 500.051 80.829 500.951 80.829 Q 502.441 80.741 503.585 80.462 A 9.808 9.808 0 0 0 503.901 80.379 A 5.459 5.459 0 0 0 505.549 79.59 A 6.888 6.888 0 0 0 506.251 79.029 Z" id="12" vector-effect="non-scaling-stroke">
<animate id="an_r" attributeName="stroke-dasharray" begin="0s" dur="1.5s" values="0,183;183,0" fill="freeze" />
<animate id="project_anim1" attributeName="fill" from="#fff" to="#000" begin="1s" dur="1s" fill="freeze" repeatCount="1"></animate>
</path>


<path fill='none' d="M 581.451 69.129 Q 580.751 70.529 580.001 72.579 A 21.925 21.925 0 0 0 579.183 75.35 A 18.889 18.889 0 0 0 578.951 76.579 A 10.514 10.514 0 0 0 578.851 77.474 Q 578.791 78.367 578.912 79.127 A 5.369 5.369 0 0 0 579.101 79.929 A 1.881 1.881 0 0 0 579.762 80.892 Q 580.109 81.151 580.604 81.257 A 3.598 3.598 0 0 0 581.351 81.329 A 3.974 3.974 0 0 0 583.043 80.927 Q 583.656 80.64 584.284 80.149 A 10.295 10.295 0 0 0 585.301 79.229 A 28.965 28.965 0 0 0 587.884 76.171 A 35.106 35.106 0 0 0 589.151 74.329 Q 590.951 71.529 592.401 68.679 Q 593.851 65.829 594.651 64.229 A 3.828 3.828 0 0 1 594.855 63.842 Q 595.339 63.048 595.912 63.243 A 0.877 0.877 0 0 1 596.001 63.279 A 0.634 0.634 0 0 1 596.376 63.776 Q 596.446 64.19 596.157 64.888 A 5.834 5.834 0 0 1 596.051 65.129 Q 595.295 66.71 594.279 68.717 A 294.862 294.862 0 0 1 593.301 70.629 Q 591.651 73.829 589.551 76.779 A 28.363 28.363 0 0 1 586.512 80.396 A 24.399 24.399 0 0 1 584.951 81.829 Q 582.451 83.929 579.551 83.929 A 4.592 4.592 0 0 1 577.598 83.483 A 5.612 5.612 0 0 1 577.201 83.279 A 5.61 5.61 0 0 1 576.122 82.473 Q 575.567 81.951 575.051 81.229 A 5.36 5.36 0 0 1 574.576 80.209 Q 574.167 79.055 574.001 77.329 A 11.658 11.658 0 0 1 573.947 76.212 A 10.291 10.291 0 0 1 574.651 72.429 A 1051.953 1051.953 0 0 1 575.653 70.346 Q 576.114 69.393 576.529 68.538 A 617.659 617.659 0 0 1 576.801 67.979 A 131.882 131.882 0 0 1 578.464 64.681 A 119.794 119.794 0 0 1 578.701 64.229 A 216.161 216.161 0 0 1 580.44 61.002 A 237.907 237.907 0 0 1 580.701 60.529 Q 581.682 58.755 582.88 56.545 A 800.399 800.399 0 0 0 583.051 56.229 A 181.541 181.541 0 0 0 583.752 54.956 Q 584.024 54.458 584.261 54.014 A 86.046 86.046 0 0 0 584.701 53.179 Q 585.351 51.929 586.001 51.179 A 4.467 4.467 0 0 1 586.589 50.609 A 3.224 3.224 0 0 1 587.401 50.129 Q 588.081 49.857 589.13 49.913 A 7.587 7.587 0 0 1 589.351 49.929 A 15.299 15.299 0 0 1 591.123 50.215 A 17.082 17.082 0 0 1 591.401 50.279 A 5.086 5.086 0 0 0 592.583 50.418 A 5.402 5.402 0 0 0 593.551 50.329 A 4.409 4.409 0 0 0 592.897 50.777 Q 592.015 51.491 590.901 52.929 Q 589.351 54.929 587.701 57.629 Q 586.051 60.329 584.401 63.379 Q 582.751 66.429 581.451 69.129 Z M 567.651 60.629 Q 568.051 58.829 568.901 56.979 Q 569.751 55.129 570.951 53.529 Q 572.151 51.929 573.701 50.729 Q 575.251 49.529 577.051 49.029 A 14.238 14.238 0 0 1 578.567 48.664 Q 580.153 48.378 581.456 48.577 A 6.493 6.493 0 0 1 581.751 48.629 Q 583.751 49.029 584.751 50.429 Q 585.704 51.762 585.704 54.002 A 10.864 10.864 0 0 1 585.701 54.229 A 9.818 9.818 0 0 1 585.421 56.294 Q 585.042 57.888 584.151 59.729 Q 582.338 61.954 581.068 63.296 A 26.839 26.839 0 0 1 580.551 63.829 A 16.213 16.213 0 0 1 580.055 64.306 Q 579.293 65.006 578.836 65.197 A 1.215 1.215 0 0 1 578.751 65.229 A 0.32 0.32 0 0 1 578.701 65.242 Q 578.263 65.311 579.205 63.494 A 28.605 28.605 0 0 1 579.451 63.029 A 79.109 79.109 0 0 0 580.959 60.107 A 65.854 65.854 0 0 0 581.751 58.429 A 22.732 22.732 0 0 0 582.403 56.849 Q 582.691 56.063 582.872 55.353 A 11.207 11.207 0 0 0 583.051 54.529 A 6.818 6.818 0 0 0 583.129 53.947 Q 583.192 53.237 583.075 52.658 A 2.934 2.934 0 0 0 582.751 51.779 A 1.957 1.957 0 0 0 581.875 50.989 Q 581.527 50.82 581.074 50.728 A 5.632 5.632 0 0 0 580.251 50.629 A 5.226 5.226 0 0 0 579.879 50.615 Q 578.794 50.615 577.739 51.07 A 6.285 6.285 0 0 0 577.501 51.179 A 5.822 5.822 0 0 0 575.776 52.464 A 7.431 7.431 0 0 0 575.151 53.229 Q 574.124 54.629 572.967 56.465 A 79.005 79.005 0 0 0 572.801 56.729 A 23.977 23.977 0 0 0 571.84 58.407 Q 571.291 59.466 570.951 60.429 A 6.487 6.487 0 0 0 570.642 61.454 Q 570.53 61.967 570.474 62.554 A 11.547 11.547 0 0 0 570.451 62.829 A 6.452 6.452 0 0 0 570.435 63.288 Q 570.435 64.42 570.851 65.379 A 3.112 3.112 0 0 0 571.805 66.588 Q 572.19 66.891 572.695 67.13 A 5.841 5.841 0 0 0 572.801 67.179 Q 574.174 67.794 576.755 67.469 A 18.074 18.074 0 0 0 577.051 67.429 A 4.732 4.732 0 0 1 577.264 67.403 Q 578.451 67.288 578.451 67.979 Q 578.451 68.729 576.451 68.929 A 20.109 20.109 0 0 1 575.346 69.033 Q 572.821 69.198 571.251 68.579 Q 569.63 67.939 568.736 66.898 A 4.498 4.498 0 0 1 568.451 66.529 Q 567.551 65.229 567.451 63.629 Q 567.351 62.029 567.651 60.629 Z M 575.451 68.729 Q 573.851 71.629 572.201 74.379 A 33.146 33.146 0 0 1 570.041 77.562 A 27.529 27.529 0 0 1 568.651 79.229 A 20.424 20.424 0 0 1 566.356 81.415 A 16.65 16.65 0 0 1 564.651 82.629 Q 562.551 83.929 560.151 83.929 A 12.722 12.722 0 0 1 557.174 83.604 A 7.373 7.373 0 0 1 552.151 79.829 Q 550.851 77.429 550.801 75.679 A 8.629 8.629 0 0 1 550.798 75.432 Q 550.798 74.243 551.14 73.397 A 3.413 3.413 0 0 1 551.401 72.879 A 3.777 3.777 0 0 1 552.012 72.117 A 2.887 2.887 0 0 1 553.051 71.479 Q 554.051 71.129 554.801 71.479 Q 555.467 71.789 555.739 72.691 A 3.549 3.549 0 0 1 555.801 72.929 A 2.236 2.236 0 0 1 555.854 73.339 Q 555.892 74.347 555.151 75.829 A 2.998 2.998 0 0 0 554.886 76.954 Q 554.874 77.313 554.951 77.679 Q 555.151 78.629 555.701 79.429 Q 556.251 80.229 557.101 80.779 A 3.443 3.443 0 0 0 558.78 81.32 A 4.222 4.222 0 0 0 559.051 81.329 A 10.302 10.302 0 0 0 559.636 81.347 Q 560.288 81.348 560.867 81.261 A 5.991 5.991 0 0 0 562.001 80.979 A 6.729 6.729 0 0 0 563.783 80.001 A 8.166 8.166 0 0 0 564.351 79.529 Q 566.651 77.529 568.801 74.629 Q 570.951 71.729 572.751 68.529 A 0.256 0.256 0 0 1 572.847 68.473 Q 573.153 68.362 574.151 68.529 A 11.719 11.719 0 0 0 574.531 68.597 Q 574.926 68.663 575.451 68.729 Z" id="13" vector-effect="non-scaling-stroke">
<animate id="an_r" attributeName="stroke-dasharray" begin="0s" dur="1.5s" values="0,183;183,0" fill="freeze" />
<animate id="project_anim1" attributeName="fill" from="#fff" to="#000" begin="1s" dur="1s" fill="freeze" repeatCount="1"></animate>
</path>


<path fill='none' d="M 615.851 69.129 Q 615.151 70.529 614.401 72.579 A 21.925 21.925 0 0 0 613.583 75.35 A 18.889 18.889 0 0 0 613.351 76.579 A 10.514 10.514 0 0 0 613.251 77.474 Q 613.191 78.367 613.312 79.127 A 5.369 5.369 0 0 0 613.501 79.929 A 1.881 1.881 0 0 0 614.162 80.892 Q 614.509 81.151 615.004 81.257 A 3.598 3.598 0 0 0 615.751 81.329 A 3.974 3.974 0 0 0 617.443 80.927 Q 618.056 80.64 618.684 80.149 A 10.295 10.295 0 0 0 619.701 79.229 A 28.965 28.965 0 0 0 622.284 76.171 A 35.106 35.106 0 0 0 623.551 74.329 Q 625.351 71.529 626.801 68.679 Q 628.251 65.829 629.051 64.229 A 3.828 3.828 0 0 1 629.255 63.842 Q 629.739 63.048 630.312 63.243 A 0.877 0.877 0 0 1 630.401 63.279 A 0.634 0.634 0 0 1 630.776 63.776 Q 630.846 64.19 630.557 64.888 A 5.834 5.834 0 0 1 630.451 65.129 Q 629.695 66.71 628.679 68.717 A 294.862 294.862 0 0 1 627.701 70.629 Q 626.051 73.829 623.951 76.779 A 28.363 28.363 0 0 1 620.912 80.396 A 24.399 24.399 0 0 1 619.351 81.829 Q 616.851 83.929 613.951 83.929 A 4.592 4.592 0 0 1 611.998 83.483 A 5.612 5.612 0 0 1 611.601 83.279 A 5.61 5.61 0 0 1 610.522 82.473 Q 609.967 81.951 609.451 81.229 A 6.642 6.642 0 0 1 608.981 80.289 Q 608.495 79.116 608.151 77.329 A 9.699 9.699 0 0 1 607.974 75.677 Q 607.943 73.984 608.551 72.429 Q 609.583 70.28 610.392 68.538 A 233.852 233.852 0 0 0 610.651 67.979 A 134.893 134.893 0 0 1 612.226 64.681 A 122.272 122.272 0 0 1 612.451 64.229 A 197.427 197.427 0 0 1 614.103 61.002 A 217.387 217.387 0 0 1 614.351 60.529 A 339.918 339.918 0 0 1 615.355 58.638 Q 615.961 57.504 616.651 56.229 Q 618.551 52.629 619.951 51.229 A 4.373 4.373 0 0 1 622.34 50.014 Q 622.857 49.922 623.436 49.922 A 7.58 7.58 0 0 1 623.751 49.929 A 15.299 15.299 0 0 1 625.523 50.215 A 17.082 17.082 0 0 1 625.801 50.279 A 5.086 5.086 0 0 0 626.983 50.418 A 5.402 5.402 0 0 0 627.951 50.329 A 4.409 4.409 0 0 0 627.297 50.777 Q 626.415 51.491 625.301 52.929 Q 623.751 54.929 622.101 57.629 Q 620.451 60.329 618.801 63.379 Q 617.151 66.429 615.851 69.129 Z M 597.151 71.229 A 39.272 39.272 0 0 0 597.238 71.054 Q 597.615 70.292 598.151 69.129 Q 599.451 66.429 601.101 63.379 Q 602.751 60.329 604.401 57.629 Q 606.051 54.929 607.601 52.929 Q 608.715 51.491 609.597 50.777 A 4.409 4.409 0 0 1 610.251 50.329 A 5.402 5.402 0 0 1 609.283 50.418 A 5.086 5.086 0 0 1 608.101 50.279 A 17.082 17.082 0 0 0 607.823 50.215 A 15.299 15.299 0 0 0 606.051 49.929 A 7.58 7.58 0 0 0 605.736 49.922 Q 605.157 49.922 604.64 50.014 A 4.373 4.373 0 0 0 602.251 51.229 Q 601.201 52.279 599.87 54.566 A 46.019 46.019 0 0 0 598.951 56.229 Q 595.251 63.029 592.001 70.029 Q 588.751 77.029 585.151 84.229 A 4.412 4.412 0 0 1 585.201 84.198 Q 585.526 84.001 585.843 83.886 A 2.518 2.518 0 0 1 586.701 83.729 A 13.905 13.905 0 0 0 587.208 83.719 Q 587.478 83.709 587.783 83.689 A 29.816 29.816 0 0 0 588.551 83.629 A 22.494 22.494 0 0 0 589.068 83.623 Q 590.286 83.595 590.951 83.429 A 1.628 1.628 0 0 0 591.553 83.129 Q 591.786 82.95 591.998 82.676 A 4.092 4.092 0 0 0 592.351 82.129 A 854.09 854.09 0 0 1 593.063 80.488 Q 593.803 78.785 594.358 77.535 A 218.331 218.331 0 0 1 594.851 76.429 A 227.563 227.563 0 0 0 595.251 75.535 Q 595.869 74.147 596.251 73.229 Q 596.564 72.479 596.837 71.885 A 22.786 22.786 0 0 1 597.151 71.229 Z M 613.122 65.595 A 8.092 8.092 0 0 0 614.151 63.629 Q 614.351 63.429 613.751 63.429 A 2.967 2.967 0 0 0 613.54 63.436 Q 613.278 63.455 613.115 63.523 A 0.51 0.51 0 0 0 612.951 63.629 A 6.23 6.23 0 0 1 612.68 64.073 A 5.176 5.176 0 0 1 611.751 65.129 A 1.798 1.798 0 0 1 611.05 65.499 Q 610.531 65.642 609.851 65.529 A 9.1 9.1 0 0 1 608.899 65.365 A 10.123 10.123 0 0 1 606.501 64.479 Q 604.851 63.629 602.951 63.529 Q 600.951 63.329 599.501 64.829 A 16.009 16.009 0 0 0 598.285 66.235 A 11.732 11.732 0 0 0 597.251 67.829 A 0.39 0.39 0 0 0 597.236 67.854 Q 597.101 68.094 597.595 68.124 A 2.558 2.558 0 0 0 597.751 68.129 A 4.168 4.168 0 0 0 597.914 68.126 Q 598.292 68.111 598.452 68.023 A 0.229 0.229 0 0 0 598.551 67.929 A 3.37 3.37 0 0 1 598.908 67.364 A 3.753 3.753 0 0 1 599.751 66.579 Q 600.551 66.029 601.551 66.129 Q 603.251 66.229 605.001 67.179 A 9.755 9.755 0 0 0 605.714 67.53 A 8.093 8.093 0 0 0 608.551 68.229 A 4.527 4.527 0 0 0 609.002 68.252 Q 610.01 68.252 610.884 67.78 A 4.808 4.808 0 0 0 612.051 66.879 A 10.762 10.762 0 0 0 613.122 65.595 Z" id="14" vector-effect="non-scaling-stroke">
<animate id="an_r" attributeName="stroke-dasharray" begin="0s" dur="1.5s" values="0,183;183,0" fill="freeze" />
<animate id="project_anim1" attributeName="fill" from="#fff" to="#000" begin="1s" dur="1s" fill="freeze" repeatCount="1"></animate>
</path>


<path fill='none' d="M 639.351 49.129 L 645.451 49.129 A 13.614 13.614 0 0 0 644.404 49.898 A 11.301 11.301 0 0 0 643.851 50.379 Q 643.151 51.029 642.401 51.929 A 15.187 15.187 0 0 0 641.736 52.793 Q 641.301 53.397 640.851 54.129 Q 640.308 55.012 639.671 56.265 A 55.74 55.74 0 0 0 639.051 57.529 A 92.003 92.003 0 0 0 637.268 61.009 A 77.698 77.698 0 0 0 636.551 62.529 Q 635.451 64.629 634.451 66.829 A 176.005 176.005 0 0 1 633.97 67.879 Q 633.322 69.279 632.822 70.287 A 56.998 56.998 0 0 1 632.751 70.429 Q 630.995 74.234 630.762 76.802 A 9.275 9.275 0 0 0 630.751 76.929 A 11.996 11.996 0 0 0 630.722 77.449 Q 630.676 78.831 630.999 79.716 A 2.595 2.595 0 0 0 631.501 80.579 A 1.832 1.832 0 0 0 632.878 81.191 Q 633.525 81.205 634.351 80.879 Q 636.061 80.204 638.176 77.868 A 26.373 26.373 0 0 0 638.651 77.329 Q 640.751 74.929 642.801 71.629 Q 644.851 68.329 646.751 64.779 Q 648.651 61.229 650.401 57.729 Q 652.151 54.229 653.551 51.229 A 4.528 4.528 0 0 1 654.039 50.449 Q 654.5 49.863 655.101 49.579 Q 656.051 49.129 657.451 49.129 L 662.851 49.129 A 46.811 46.811 0 0 0 661.946 49.888 Q 661.401 50.357 660.951 50.779 A 10.858 10.858 0 0 0 660.067 51.717 A 13.882 13.882 0 0 0 659.401 52.579 Q 658.651 53.629 657.851 55.179 A 100.672 100.672 0 0 0 657.209 56.447 Q 656.639 57.591 655.951 59.029 Q 654.851 61.129 653.801 63.379 A 235.483 235.483 0 0 0 651.831 67.712 A 216.854 216.854 0 0 0 651.801 67.779 Q 650.851 69.929 650.151 71.779 A 23.804 23.804 0 0 0 649.729 72.986 Q 649.383 74.076 649.251 74.929 A 17.822 17.822 0 0 0 649.059 75.94 Q 648.732 77.998 649.139 79.119 A 2.479 2.479 0 0 0 649.301 79.479 A 4.075 4.075 0 0 0 649.748 80.135 Q 650.359 80.857 651.151 80.929 Q 652.951 80.929 654.801 79.329 A 18.765 18.765 0 0 0 656.725 77.389 A 25.332 25.332 0 0 0 658.351 75.279 A 48.803 48.803 0 0 0 660.618 71.674 A 57.685 57.685 0 0 0 661.601 69.879 A 190.115 190.115 0 0 0 663.614 65.941 A 161.938 161.938 0 0 0 664.451 64.229 A 3.828 3.828 0 0 1 664.655 63.842 Q 665.139 63.048 665.712 63.243 A 0.877 0.877 0 0 1 665.801 63.279 A 0.634 0.634 0 0 1 666.176 63.776 Q 666.246 64.19 665.957 64.888 A 5.834 5.834 0 0 1 665.851 65.129 Q 664.651 67.729 663.051 70.879 Q 661.451 74.029 659.451 76.829 Q 657.451 79.629 655.051 81.529 A 9.278 9.278 0 0 1 652.815 82.86 A 7.484 7.484 0 0 1 649.951 83.429 A 5.764 5.764 0 0 1 648.177 83.163 A 5.06 5.06 0 0 1 646.951 82.579 Q 645.651 81.729 645.001 80.079 A 8.582 8.582 0 0 1 644.557 78.491 Q 644.416 77.726 644.371 76.849 A 16.317 16.317 0 0 1 644.351 76.029 Q 644.351 73.952 645.1 71.426 A 24.898 24.898 0 0 1 645.351 70.629 Q 644.051 72.929 642.501 75.179 A 34.666 34.666 0 0 1 639.743 78.691 A 31.314 31.314 0 0 1 639.201 79.279 A 19.31 19.31 0 0 1 637.185 81.138 A 15.727 15.727 0 0 1 635.551 82.279 A 8.849 8.849 0 0 1 634.024 83.023 Q 632.955 83.416 631.918 83.428 A 5.643 5.643 0 0 1 631.851 83.429 A 9.905 9.905 0 0 1 630.959 83.386 A 13.062 13.062 0 0 1 630.101 83.279 A 5.526 5.526 0 0 1 628.421 82.719 A 6.311 6.311 0 0 1 628.251 82.629 A 5.517 5.517 0 0 1 627.085 81.752 A 6.815 6.815 0 0 1 626.601 81.229 A 4.619 4.619 0 0 1 625.885 80.021 A 6.365 6.365 0 0 1 625.551 78.929 A 10.261 10.261 0 0 1 625.372 77.16 Q 625.364 76.485 625.451 75.829 Q 625.651 74.329 626.201 72.879 Q 626.751 71.429 627.501 70.079 Q 628.251 68.729 628.951 67.329 Q 628.451 67.329 628.001 67.029 Q 627.551 66.729 628.051 65.729 Q 628.551 64.929 628.951 64.029 Q 629.351 63.129 629.851 62.229 L 632.851 56.429 A 230.849 230.849 0 0 0 634.087 54.006 Q 634.646 52.893 635.134 51.887 A 135.127 135.127 0 0 0 635.451 51.229 A 4.528 4.528 0 0 1 635.939 50.449 Q 636.4 49.863 637.001 49.579 Q 637.951 49.129 639.351 49.129 Z M 654.551 81.829 A 41.535 41.535 0 0 0 652.032 84.024 A 50.943 50.943 0 0 0 650.501 85.529 Q 648.451 87.629 646.701 89.829 A 27.307 27.307 0 0 0 644.81 92.51 A 22.363 22.363 0 0 0 643.851 94.229 A 14.914 14.914 0 0 0 643.213 95.682 Q 642.717 97.013 642.651 98.129 A 5.413 5.413 0 0 0 642.75 99.192 Q 642.886 99.869 643.208 100.408 A 3.389 3.389 0 0 0 643.251 100.479 A 1.832 1.832 0 0 0 644.153 101.202 Q 644.486 101.335 644.909 101.39 A 4.994 4.994 0 0 0 645.551 101.429 A 4.159 4.159 0 0 0 647.367 100.998 A 5.763 5.763 0 0 0 648.301 100.429 Q 649.651 99.429 650.651 98.429 Q 650.834 98.246 651.265 98.189 A 2.614 2.614 0 0 1 651.351 98.179 Q 651.851 98.129 651.651 98.829 Q 651.451 99.629 650.701 100.579 Q 649.951 101.529 648.651 102.379 Q 647.351 103.229 645.701 103.829 A 10.106 10.106 0 0 1 642.739 104.414 A 11.679 11.679 0 0 1 642.151 104.429 A 5.465 5.465 0 0 1 640.39 104.154 A 4.748 4.748 0 0 1 638.901 103.329 A 3.268 3.268 0 0 1 637.8 101.563 Q 637.612 100.84 637.651 99.929 Q 637.723 98.28 638.694 96.272 A 18.398 18.398 0 0 1 639.601 94.629 A 36.501 36.501 0 0 1 643.103 89.886 A 41.475 41.475 0 0 1 644.051 88.829 A 50.971 50.971 0 0 1 648.205 84.82 A 45.21 45.21 0 0 1 649.401 83.829 Q 652.151 81.629 653.951 80.829 L 654.501 80.829 A 0.11 0.11 0 0 1 654.603 80.901 Q 654.696 81.094 654.557 81.799 A 8.257 8.257 0 0 1 654.551 81.829 Z" id="15" vector-effect="non-scaling-stroke">
<animate id="an_r" attributeName="stroke-dasharray" begin="0s" dur="1.5s" values="0,183;183,0" fill="freeze" />
<animate id="project_anim1" attributeName="fill" from="#fff" to="#000" begin="1s" dur="1s" fill="freeze" repeatCount="1"></animate>
</path>


<path fill='none' d="M 690.551 64.829 Q 689.151 67.829 687.551 71.179 Q 685.951 74.529 683.751 77.379 Q 681.551 80.229 678.601 82.079 Q 675.651 83.929 671.451 83.929 Q 667.651 83.929 664.801 81.529 A 7.863 7.863 0 0 1 662.322 77.622 Q 661.943 76.332 661.867 74.778 A 15.909 15.909 0 0 1 661.851 74.329 A 20.06 20.06 0 0 1 662.056 71.536 A 25.251 25.251 0 0 1 662.401 69.629 Q 662.951 67.129 664.001 64.679 Q 665.051 62.229 666.451 59.929 Q 667.851 57.629 669.551 55.629 Q 671.451 53.429 673.751 51.629 A 22.074 22.074 0 0 1 676.267 49.914 A 17.343 17.343 0 0 1 678.351 48.879 A 12.982 12.982 0 0 1 680.753 48.137 A 10.4 10.4 0 0 1 682.801 47.929 Q 684.951 47.929 686.651 49.129 Q 688.051 50.229 688.301 51.929 Q 688.549 53.61 687.769 55.633 A 11.32 11.32 0 0 1 687.751 55.679 A 13.679 13.679 0 0 1 686.647 57.871 A 18.702 18.702 0 0 1 685.251 59.829 A 22 22 0 0 1 682.377 62.751 A 25.958 25.958 0 0 1 681.151 63.729 Q 679.951 64.629 678.301 65.429 Q 676.651 66.229 674.851 66.829 A 36.426 36.426 0 0 1 672.784 67.453 A 29.192 29.192 0 0 1 671.451 67.779 A 20.644 20.644 0 0 1 670.51 67.963 Q 669.603 68.118 668.944 68.128 A 5.952 5.952 0 0 1 668.851 68.129 Q 668.444 69.08 668.105 70.448 A 28.658 28.658 0 0 0 667.801 71.829 A 17.647 17.647 0 0 0 667.464 75.222 A 16.258 16.258 0 0 0 667.501 76.329 A 8.888 8.888 0 0 0 667.915 78.511 A 7.407 7.407 0 0 0 668.701 80.179 Q 669.725 81.787 672.127 81.828 A 7.413 7.413 0 0 0 672.251 81.829 Q 675.551 81.829 678.201 79.879 Q 680.851 77.929 682.901 75.229 Q 684.951 72.529 686.401 69.629 Q 687.834 66.763 688.73 64.776 A 73.232 73.232 0 0 0 688.751 64.729 Q 689.051 64.029 689.501 63.679 A 2.425 2.425 0 0 1 689.747 63.51 Q 690.034 63.338 690.274 63.329 A 0.712 0.712 0 0 1 690.301 63.329 A 0.538 0.538 0 0 1 690.535 63.378 Q 690.658 63.436 690.741 63.564 A 0.763 0.763 0 0 1 690.801 63.679 A 0.501 0.501 0 0 1 690.837 63.811 Q 690.883 64.165 690.551 64.829 Z M 680.151 62.029 Q 682.151 60.329 683.501 58.229 A 18.914 18.914 0 0 0 684.458 56.572 Q 684.887 55.728 685.161 54.938 A 10.136 10.136 0 0 0 685.351 54.329 A 9.714 9.714 0 0 0 685.554 53.453 Q 685.733 52.456 685.62 51.678 A 3.56 3.56 0 0 0 685.551 51.329 A 1.943 1.943 0 0 0 685.342 50.801 Q 684.948 50.141 684.051 50.179 A 2.847 2.847 0 0 0 683.282 50.333 Q 682.244 50.677 680.751 51.779 Q 678.651 53.329 675.551 57.029 Q 673.551 59.429 671.901 62.229 Q 670.251 65.029 669.551 66.429 A 5.393 5.393 0 0 0 670.038 66.404 Q 670.544 66.358 671.224 66.225 A 19.728 19.728 0 0 0 671.451 66.179 A 15.565 15.565 0 0 0 672.559 65.903 Q 673.12 65.742 673.735 65.527 A 27.188 27.188 0 0 0 674.151 65.379 A 21.494 21.494 0 0 0 676.381 64.409 A 25.071 25.071 0 0 0 677.201 63.979 Q 678.751 63.129 680.151 62.029 Z" id="16" vector-effect="non-scaling-stroke">
<animate id="an_r" attributeName="stroke-dasharray" begin="0s" dur="1.5s" values="0,183;183,0" fill="freeze" />
<animate id="project_anim1" attributeName="fill" from="#fff" to="#000" begin="1s" dur="1s" fill="freeze" repeatCount="1"></animate>
</path>

<path fill='none' d="M 702.317 39.183 A 332.523 332.523 0 0 0 696.851 49.229 Q 694.651 53.429 692.551 57.679 Q 690.451 61.929 688.451 65.679 Q 686.451 69.429 684.651 72.529 Q 683.526 74.466 682.519 75.974 A 37.442 37.442 0 0 1 681.351 77.629 Q 680.998 78.124 681.069 78.544 A 0.903 0.903 0 0 0 681.201 78.879 Q 681.551 79.429 682.151 78.929 Q 683.288 77.868 685.056 74.998 A 71.247 71.247 0 0 0 686.251 72.979 Q 687.876 70.135 689.853 66.49 A 567.447 567.447 0 0 0 692.351 61.829 A 119.973 119.973 0 0 0 691.276 64.112 A 98.968 98.968 0 0 0 689.701 67.729 A 56.226 56.226 0 0 0 689.551 68.098 Q 688.512 70.681 687.951 72.829 Q 687.543 74.404 687.543 75.86 A 9.676 9.676 0 0 0 687.751 77.879 A 8.598 8.598 0 0 0 687.846 78.276 A 6.937 6.937 0 0 0 689.901 81.729 Q 690.958 82.69 692.549 83.199 A 11.439 11.439 0 0 0 694.501 83.629 A 10.35 10.35 0 0 0 694.828 83.668 Q 696.836 83.875 699.439 83.377 A 28.65 28.65 0 0 0 701.751 82.829 Q 704.851 82.029 707.551 79.979 Q 710.251 77.929 712.351 75.129 Q 714.451 72.329 715.901 69.129 A 35.55 35.55 0 0 0 716.252 68.329 A 31.703 31.703 0 0 0 718.051 62.729 Q 718.551 60.329 718.401 57.979 A 13.017 13.017 0 0 0 718.335 57.254 A 11.136 11.136 0 0 0 717.301 53.679 Q 716.351 51.729 714.551 50.379 A 8.597 8.597 0 0 0 712.242 49.161 A 11.704 11.704 0 0 0 710.051 48.629 A 11.108 11.108 0 0 0 709.711 48.574 Q 708.644 48.42 707.949 48.55 A 2.277 2.277 0 0 0 707.501 48.679 A 3.82 3.82 0 0 0 707.272 48.782 Q 706.637 49.094 706.551 49.479 Q 706.474 49.828 706.788 50.148 A 1.71 1.71 0 0 0 707.001 50.329 A 1.408 1.408 0 0 0 707.291 50.489 Q 707.725 50.67 708.385 50.646 A 4.919 4.919 0 0 0 708.651 50.629 A 10.586 10.586 0 0 1 708.909 50.61 Q 710.192 50.535 711.128 50.806 A 3.546 3.546 0 0 1 712.301 51.379 A 3.961 3.961 0 0 1 713.47 52.809 A 5.257 5.257 0 0 1 713.901 54.129 A 8.404 8.404 0 0 1 713.98 54.61 Q 714.199 56.231 713.851 58.229 A 21.361 21.361 0 0 1 713.387 60.28 A 26.468 26.468 0 0 1 712.451 63.029 Q 711.151 66.029 709.101 69.479 Q 707.051 72.929 704.951 75.429 A 44.713 44.713 0 0 1 704.665 75.771 Q 700.079 81.198 697.021 81.198 A 3.221 3.221 0 0 1 696.351 81.129 A 5.229 5.229 0 0 1 695.916 81.026 Q 694.472 80.618 693.736 79.448 A 4.676 4.676 0 0 1 693.151 77.979 Q 692.551 75.329 693.201 71.579 A 38.497 38.497 0 0 1 694.019 67.953 A 50.224 50.224 0 0 1 695.451 63.579 A 92.673 92.673 0 0 1 695.856 62.523 A 83.732 83.732 0 0 1 698.951 55.529 Q 699.751 53.829 700.801 51.929 Q 701.851 50.029 702.951 47.929 A 178.972 178.972 0 0 0 706.228 46.848 Q 711.038 45.209 715.216 43.464 A 99.106 99.106 0 0 0 723.201 39.729 Q 731.551 35.329 738.051 28.829 Q 741.051 25.829 743.551 22.429 A 54.804 54.804 0 0 0 745.375 19.795 A 43.944 43.944 0 0 0 747.701 15.779 Q 749.351 12.529 750.051 9.579 A 15.45 15.45 0 0 0 750.333 8.082 Q 750.607 6.051 750.201 4.429 A 5.429 5.429 0 0 0 749.396 2.627 A 5.588 5.588 0 0 0 747.651 1.029 Q 745.866 -0.043 742.725 0.002 A 19.457 19.457 0 0 0 741.951 0.029 Q 738.151 0.229 734.651 1.929 A 31.319 31.319 0 0 0 732.371 3.157 A 36.689 36.689 0 0 0 727.801 6.379 A 55.388 55.388 0 0 0 725.296 8.568 A 67.002 67.002 0 0 0 721.151 12.779 Q 717.851 16.429 714.551 20.429 A 107.392 107.392 0 0 0 711.475 24.503 A 125.301 125.301 0 0 0 705.051 34.429 A 390.507 390.507 0 0 0 702.317 39.183 Z M 704.751 44.829 A 81.312 81.312 0 0 0 716.729 40.345 A 95.319 95.319 0 0 0 721.101 38.179 Q 729.351 33.829 736.051 26.929 Q 739.651 23.229 742.401 19.079 A 46.881 46.881 0 0 0 744.388 15.814 Q 745.659 13.507 746.401 11.429 Q 747.651 7.929 747.001 5.629 Q 746.351 3.329 743.251 3.329 A 11.634 11.634 0 0 0 739.46 3.993 Q 738.049 4.478 736.595 5.315 A 19.99 19.99 0 0 0 736.401 5.429 A 33.547 33.547 0 0 0 732.615 8.055 A 45.161 45.161 0 0 0 729.251 11.029 A 72.07 72.07 0 0 0 724.372 16.29 A 85.683 85.683 0 0 0 722.201 18.979 Q 718.751 23.429 715.551 28.029 Q 712.351 32.629 709.601 37.029 A 2174.163 2174.163 0 0 0 707.32 40.687 Q 705.933 42.916 704.751 44.829 Z M 698.251 46.829 L 697.051 49.229 Q 694.851 49.529 692.751 49.029 Q 690.651 48.529 689.251 46.829 Q 688.551 46.029 688.151 45.079 A 3.293 3.293 0 0 1 687.885 43.79 A 3.364 3.364 0 0 1 687.951 43.129 Q 688.027 42.6 688.302 42.299 A 1.086 1.086 0 0 1 688.501 42.129 Q 688.951 41.829 689.401 41.929 Q 689.851 42.029 690.151 42.379 A 1.102 1.102 0 0 1 690.354 42.744 Q 690.451 43.03 690.451 43.429 L 690.451 43.629 Q 690.808 45.767 692.711 46.437 A 4.707 4.707 0 0 0 693.201 46.579 Q 695.551 47.129 698.251 46.829 Z" id="17" vector-effect="non-scaling-stroke">
<animate id="an_r" attributeName="stroke-dasharray" begin="0s" dur="1.5s" values="0,183;183,0" fill="freeze" />
<animate id="project_anim1" attributeName="fill" from="#fff" to="#000" begin="1s" dur="1s" fill="freeze" repeatCount="1"></animate>
</path>


</g></svg>